<?xml version="1.0" encoding="utf-8"?>
<!-- Generator: Adobe Illustrator 25.2.0, SVG Export Plug-In . SVG Version: 6.00 Build 0)  -->
<svg version="1.1" id="Layer_1" xmlns="http://www.w3.org/2000/svg" xmlns:xlink="http://www.w3.org/1999/xlink" x="0px" y="0px"
	 viewBox="0 0 536.2 812" style="enable-background:new 0 0 536.2 812;" xml:space="preserve">
<style type="text/css">
	.st0{fill-rule:evenodd;clip-rule:evenodd;fill:#BF2A2A;}
	.st1{fill-rule:evenodd;clip-rule:evenodd;fill:#FFF2BD;}
	.st2{fill-rule:evenodd;clip-rule:evenodd;fill:#7AC943;}
	.st3{fill-rule:evenodd;clip-rule:evenodd;fill:#011826;}
	.st4{fill-rule:evenodd;clip-rule:evenodd;fill:#FFE556;}
	.st5{fill-rule:evenodd;clip-rule:evenodd;}
</style>
<g id="Layer_2_1_">
	<g id="Layer_3">
		<path class="st0" d="M294.9,2.2c5.3,1,14.1,11.8,11.3,19.6l-28.5,13.9c-4.8,2.9-8.2,7-12.4,10.4c-9.7,8-16.7,17-23.4,28.1
			c-2.6,4.3-12,17.4-11.5,23.1l14.4,6.6l11.8,9.8l8.9,6.5c4.6,5.9,8.3,12.5,11,19.5c1,5.8,2,11.6,3,17.4c2.7,7.1,7.6,12.4,10.9,19.3
			c4.1,8.8,7.2,17.9,9.4,27.3c1,4.2,1,10.6,5.1,11.8c2-2.6,5.3-5.9,10.1-5l7.2,10.1l9.4,26.9v6c0,7.7-1,15.5-2.7,23
			c-0.6,2.8-3,6.8-1.8,9.5c4.6-0.4,7.9-1,10.4,2.4c0.7,1.5,1.3,3,2,4.5c4.2,4.2,11.1,2.3,13.9,9.2c3.1,7.7-2.5,12.1-4.8,16.8
			c-0.9,3.1-1.8,6.1-2.7,9.2c-2.1,4.3-6,6.8-8.3,10.6l0.1,0.1c11,7.8-6.3,16.9-11.6,19.8c-1.9,11.2-3.7,20.2-14.2,23.1
			c-2.8,0.8-6.2,1.8-9.8,0.8c-4.5-1.2-8.1-6.8-12.8-6.4c-1.7,2.5-0.7,5.2-1.5,9.1c-1.1,3.1-2.1,6.1-3.2,9.2l-0.6,11.9
			c-4.8,32,3.5,55.5,17.1,74.8l8.6,9.1c7.3,9,15.7,16.1,25.2,23c5.1,3.6,9.3,8,14.2,11.6l8.6,5.4c2.5,1.9,10.9,13,11.3,16.3
			c0.4,2.8-4.4,10-5.9,11.3l-4.2,1.8l-16.5,7.8h-11c-3.9,0.6-7.1,1.5-11.9,1.5v0.2l7.7,24.3c-0.5,2.7-1,5.4-1.5,8.2
			c-0.6,3.9,1.5,16.2,2.9,18.7c13.2-3,19.7,2.7,23,13c1.3,4,1,8.4,2.4,12.7c0.4,1.3,6,6.1,7.2,7.1c0,2.3-1.5,3.4-1.4,4.1
			c2.3,4.7,10.7,1.4,12.8,7.1l-1.7,2.1l0.1,0.2c5.5,3.8,6.7,2.2,14.4,3.6c6.5,1.2,13.5,2.6,20.4,3.8l9.7,0.2c21,3.1,43.5,2.8,65,5.9
			c22.5,3.2,35.6-1.3,46.5,14.8c2.3,3.5,8.1,19.8,6.2,26.9c-1.4,4.9-3.1,9.7-5.1,14.3c-0.9,2.5-1.8,4.9-2.7,7.4l-5.4,6.2
			c-7.2,8.8-17.6,15-26.7,21.8c-3.9,2.9-7.4,6.5-14,4.7l-5.3,3.9l-8.1,3.3l-15.4,1.8c-6.1,1.4-11.6,4.1-18.3,5.3l-22,0.6l-5.3-0.5
			c-3.1,4.9-3.2,12.7-8,15.9c-9.4,6.1-27.1,3.8-34.9-2c-4.9-3.6-6.5-11.1-8.6-17.5l-14.4-2l-13.3-1l-20.1-4.5L286,778l-44.7-8
			c-18.9-5.8-36.6-12.1-54.1-19.2l-15.7-6.5c-1.8-1-3.5-1.9-5.3-2.9c-6.6-1.9-7.4,4.5-9.8,7.4c-2,2.1-4.4,3.6-7.1,4.5
			c-13.1,4.7-28.8-2.8-34.4-11c-2.1-3.1-2.7-6.7-4.7-10.1c-13.1,3.5-19-20.7-21.3-31.9c-6.6-2.7-11.3-8.4-16.8-12.2
			c-15.3-10.8-30.2-29.1-35.5-49.7c-2.6-10.2,0.3-23.3,2-31.9c-25.1-19.9-43.8-73-33.2-119.2c2.3-10.1,5.8-19.9,10.3-29.3
			c1.9-3.9,5.9-7.9,6.3-12.5c-2.9-4.7-7.5-7.5-9.1-13.9l0.8-7.7c2.4-15,7.3-20.9,15.9-29.5l6-6.2l9.7-4.5l0.6-9.1
			c1.3-3.5,9.2-11,14.3-10.1l2,2.7c8.4-14.8,19.9-26.4,31.6-37.9l9.7-8.9l3.8-2c0.6-1.2,1.1-2.3,1.7-3.5c1.4-5-0.7-15.6-1.5-19.2
			c-2.1-9.6-1.8-20.5-3.5-31.1l0.9-24.3c-0.5-3.2,0.4-6.7-0.2-10c-1.4-8.4-0.8-20.3,0.8-28.4c0.3-2.7,0.6-5.3,0.9-8
			c1.3-2.3,2.6-4.6,3.9-6.9c0.3-2.1,0.6-4.1,0.9-6.2c1-2.7,2-5.3,3-8c1-3.4,1.9-6.9,2.9-10.3l6-12.7c1.5-4,1.7-8.1,3.8-11.3
			c6.9-10.8,14.3-23.3,25.2-30.2l11.3-5.3l10.3-6.3c0.8-0.2,1.4,0.4,1.7,0.3c4.7-1.4,10.4-3.5,14-6.2c5.1-3.7,9.6-13.7,13.4-19
			c6.1-8.6,11.6-17.7,18.1-25.8l9.5-9.8c2.2-2.5,4.3-4.9,6.5-7.4l10.9-6c9.5-5.6,20.8-13,31.6-16.9L294.9,2.2z M117.9,371.3
			c1.1,6.7,3.2,13.2,6.3,19.2l0.4,5l3,10.9l4.1,12.4l3,5.3l6.5,17.7c1.1,2,3,4,4.1,6.2l4.2,10c1.6,2.7,4.5,5.2,5.3,8.6
			c1.1,4.8-4.3,11.8-5.6,14.8c-3.9,8.9-5.1,18.3-6.9,29.3c-0.4,2.6-1.6,7-1.1,10.4c1.3,8,5.5,19.6,9.2,25.8
			c4.1,6.8,9.6,13.4,13.1,20.7c-3.8-0.2-9.2-1.2-13.3-0.3c-9.8,2.1-11.9,12.3-13.4,23c-0.8,5.5,2.2,10,0.9,14l-0.4,0.5
			c-2.6-0.3-4.1-1.8-6.2-2.6c-5.7-2.1-10.8-2.7-17.7-4.2c-2.2-0.5-3.9-1.4-6.8-1.4c-3.7-3.6-7-18.4-9-24.6c-0.7-2.2-3-6.1-2.1-8.6
			c1-2.9,7.4-6.8,9.5-10.9c2.5-4.8,3.6-10.3,5.7-15.7c2.5-6.3,4.9-12.6,7.4-18.9c0.8-7.7,1.5-15.5,2.3-23.3v-10
			c1-3.5,7.5-2.9,6.5-8.8c-1.5-8.4-7.2-4.3-9.7-7.7l-2-5.1l-4.5-5.3c-1.9-3.7-3.8-7.3-5.7-11c-2.1-2.8-6.2-4.2-9.1-6.3
			c-0.7-5.5,5.4-12.5,4.5-17.5c-1.3-7.1-11.1-12.1-11-20.1c5.3-3,8.9-10.9,4.5-17.5c-1.5-2.3-4.7-3.6-5-7.1
			c7.6-8.1,11.1-19.9,20.8-25.8C118.2,352.4,116.7,364.1,117.9,371.3L117.9,371.3z M183.7,506.5l7.7,8.2l4.5,5.7l3.3,2.4l5.9,6.3
			c5.2,3.8,11.1,6.2,16.8,9.7c4.9,3,9.4,7.1,15.1,9.5l6.3,1.7c7.1,3,15.6,7.1,22.7,10.4v-0.6l9.2,3.6c2.7,0.6,4.1,0,5.7,1.4
			c7.6,6,10.5,22.1,12.4,34l0.3,15.1c0.9,6.5,2.8,17.7-0.9,22.7c-0.7,0.9-2,0.4-3,1.1l-5.1,5c-1.2,1.5-6.4,11.6-7,11.9
			c-2.2,1.3-14.6-1.8-16.6-2.4l0.9-0.3v-0.2l-15.3-1.7c-9.4-2.2-18.7-5.3-27.6-9.1v-0.3c4.3-3.1,6.1-9.5,9.2-13.8
			c2.6-3.5,7.1-6.3,8.8-10.4c-0.7-6.4-8.6-8.6-9.8-11.8c-0.5-2.8-1-5.6-1.5-8.5c-1.7-5.8-3.6-13.9-6.8-18.7
			c-2.4-3.6-6.2-5.9-9.5-8.6c-2.8-2.3-7.3-8.2-11.5-8l-0.9,0.9c-0.2,1,0,2,0.5,2.9c-5.7-2.1-8.4-11-10.9-16.5
			c-4.2-9.5-11.9-15.9-14.6-26.9c-1.6-6.2,2.5-19.4,5.6-21.3C180.1,501.5,181.9,504.2,183.7,506.5L183.7,506.5z"/>
		<path class="st1" d="M229,173.2c2.9-0.3,5.6,1.2,6.9,3.8c5-1,7.7,4.6,8.9,8.2c2.1,0,3.4,0.4,4.2,1.7c2.7,3.9,3.1,21.6,4.2,27.8
			c0.5,2.6,2.2,7.3,1.1,10c-1,2.4-3.3,2.4-5.9,2c-0.5,2.8-3.3,6.4-7.1,4.7l-2-1.8c-2-0.9-3.1-0.4-4.2-2l-1.8-4.7
			c-3.3,1.6-5.9,0.8-7.1-2.6c-2.7,0.6-1.7,6.7-2.4,9.2c-0.9,3.4-3.3,7.1-6.8,7.9l-3.6-0.3c-1.9,0.6-3.1,3.9-6.6,2.6
			s-1.1-4.4-2.4-7.4c-0.4-0.9-1.6-1.5-2-2.7c-1.3-4.1-0.2-10.8,0.6-14.9l0.1-6c2.8-12.9,7.8-26.1,16.9-32.8
			C222.4,173.9,226.4,174.4,229,173.2z M123.1,177.2c2.5,0,4.3,0.8,6,1.1c1.9,0.3,4-1.9,6.5-0.6c5.8,2.9,8.8,22.4,10.4,30.4
			c1.5,7.5,3.9,23.3-5.1,23.6c-0.8,3.7-5.3,5.4-7.4,1.8c-1.7-3-0.4-8.1-1.5-11.6c-1.9,2.8-5.4,5.4-9.1,2.6
			c-1.2,6.1-2.4,15.9-9.4,14.8c-1.2-0.2-2.3,0.2-3.3-0.5c-1.3-0.9-1.1-3-2.3-3.9c-1.3-0.5-2.4-1.1-3.5-2c-0.2-21-2-45,12.4-53.6
			C118.8,178.1,120.9,178.1,123.1,177.2L123.1,177.2z M314.1,210.5c4.3,1.2,8.5,12.4,10.1,17.2c2.4,6.7,4.8,13.3,7.2,19.9v6.2
			c0,11.2-1.5,22.6-5.1,30.8l-0.3-0.1l-0.9-0.9c0.3,1.6-0.2,2.5-0.5,3.9l0.5-0.1c0.8-0.9,5.2-2.6,7.2-2.1l5,3.3c0.7,1.5,1.3,3,2,4.5
			c4.2,4.2,11.1,2.3,13.9,9.2c3.1,7.7-2.5,12.1-4.8,16.8c-0.9,3.1-1.8,6.1-2.7,9.2c-2,4-4.8,7.6-8.3,10.4l0.1,0.3
			c5.5,3.9,2.6,11.3-1.8,14.5c-3.7,2.7-5,1.7-10.6,2.7c-4.5,0.8-9.9,3.2-14.8,3.9l-3.6-0.8c-3.4-0.1-6.6,1.7-11,1.1l-5.3-1.4
			c-2.3-0.1-6.8,4.1-10.7,1.2c-2.3-1.7-3.3-7.8-1.5-10.9l2.9-3.2l-0.1-0.1c-5.6-2.8-10.5-6.8-14.4-11.8L263,331
			c-1.3-2.3-1.6-5.8-2.4-8.1c-0.8-2.2-2.4-5.9-1.2-9.1c2.2-6.2,6.5-9.8,10.1-14.5l3.2-2.9c0.2-0.4,2.5-9.6,2.6-10
			c-0.6-2.3-1.2-4.6-1.8-7c-0.4-2.8-0.7-5.6-1.1-8.5l-2-2.4c-0.4-2.4-0.8-4.8-1.2-7.2c-3.8-2.9-2.7-8.5-2.7-15
			c0-11.4,5-18.1,15-11.9c2.6,1.6,3.9,4.4,5.6,6.9l5.3,7.1c2.4,4.3,3.8,11.4,5.1,16.3c0.6,2.4,1.9,12.8,3.3,12.7l5.1-7.7
			c-0.4-2-0.7-4-1.1-6l-0.5-10.4c0.2-6.6,0.8-13.1,1.8-19.6c-0.2-1.6-0.5-3.1-0.8-4.7c-0.6-3.9-0.6-7.9,0.2-11.8
			c0.6-2.7,2.4-3.5,3.3-5.9L314.1,210.5z M238.3,269.5c7.6-0.1,2.4,10.5,0.9,13.6c4.8,2.4,0.8,12.1-1.4,15.5
			c-3.4,5.5-12,13.8-18.1,16.5l-11.2,3.9c-4.7,2.1-12.4,4.6-15.2-1c-5.9,0.1-12.1,0.1-17.1-1.1c-1.9-0.4-2.6-1.5-3.9-2.3l-10-1.8
			c-4.1-0.7-10.5,5.1-13.4,0.5c-2.3-3.7,3.5-6.4,4.1-10.1c-2.9-2.5-1.2-8.7-0.8-12.5c-4.7-0.9-2.8-3.5-4.7-5.9c-1.6-2-8.6-3-5.3-7.9
			c1.6-2.3,19.1-2.6,21.6-0.6c1.4,1.1,1,2.9,1.2,4.5c6.1-1.8,9.7,1.9,14.4,3.6l6.6,2.3c1.6,0.9,2.9,3.2,6,2.4l3-1.7h2.9
			c1-0.4,1.5-1.8,2.9-2.1c4.3-1,9.8,0.8,13.1,1.1l4.8-1.8h2.7l12.4-10C235.8,272.4,235.8,271,238.3,269.5L238.3,269.5z M221.6,295.2
			c-0.4,0.5-0.9,1.1-1.4,1.7l-2.7-0.5l3.3-1.5L221.6,295.2z M336.7,337.5l-1.1-0.3h-0.5l0.5-0.8
			C336.4,336.7,336.4,336.8,336.7,337.5L336.7,337.5z M57,365c1,0.8-0.1,2,0.3,3.3c0.5,1.9,2.5,5.3,3.9,6.3l4.2,2
			c5,3,8.8,5.7,15.7,7.2l11.6,0.1c4.9,7,3.9,14.8-3.3,18.9c0,6.1,6.7,11.5,9.1,15.9c3.2,5.8-0.6,12.6-2.1,17.1
			c-1,2.8-0.8,5.4-2.4,7.4c-1,1.3-2,0.9-3.6,1.7c-1.1,0.5-1.5,1.9-3.3,2c-2.7,0.2-7.4-4.6-8-6.8c-0.3-1,0.8-7.4,1.1-9.2
			c0.4-3.1-1-4.1-1.1-6.6c-1.9-0.3-3.6-1.3-4.8-2.7l-5.6,2.4c-2.1,4-4.1,8-6.2,11.9l1.2,7.1c6.2,1.8,4.4,2.7,7.7,6.6l2.3,1.4
			c3,3,1,6-0.9,8.3c-0.9,1.1-1.1,2.3-2.6,2.9l-4.8,1.1l-3.2,3.2c-3.8,2.2-11.7,1.8-15.7,0.1c-3.8-1.6-6.2-5.1-8.2-8.5
			c-8.8,2.5-7-1-10.1-6.2c-2.2-3.6-4.3-3.6-5.1-9.5c-9.1-0.2-11.4-14.9-8.6-24.5c3.1-10.7,8.9-17.1,15.7-23.9l5.4-5.6l9.7-4.4l0.2-3
			l1.4,0.6h0.2C47.2,371.6,50,368.2,57,365z M227.2,606.5c4.6,0.1,9.4,5.9,9.8,10c-1.6,3.8-5.7,6.6-8.2,9.7l-6,8.6l-4.4,4.8
			l-0.1,3.6l-5.9,7.2c-7,8.8-14.5,18.2-25.4,23.1l-2.9,3.3c-4.6,5.6-10,10.7-14.6,16.3l-13,11.9l-7.6,1.8l-5.6,4.1l-6.2,4.7
			l-2.6,0.5l-1.8,2.7l-4.7,2.7l-6.9,5.4l-3.8,0.9c-2.2,1.2-8.1,6.8-11.9,5c-4.3-2-11.4-11.2-13-15.9l-0.4-5.7
			c-0.7-2.8-2.4-4.8-2.7-8.3c-0.7-6.7,2.1-12.4,2.9-17.2c0.2-1.4-0.8-3.4-0.4-5.4c1-5.8,3.4-12.9,7.2-16c0.5-0.4,8.6-4.5,8.9-4.5
			c3.5-0.6,3.9,2.7,6.8,3l2.6-1.1c2.3-0.4,9.5,2.8,10.4,4.2c3.8-1.5,4.6,0.6,6.6,2.3c1.2,1,2.7,0.4,3.6,1.7
			c2.4,3.2,1.5,12.2,1.4,17.5c3.4-1,4,0.8,6.2,1.8l7.9-7.8c3.7-4.6,7.2-10.1,11.8-13.8c1.7-1.3,4.3-1.2,5.6-2.7l11.8-14.3
			c5.3-3.9,10.5-7,14.5-12.1c5.5-6.9,12.6-12.1,18-19C218.5,614.9,221.3,608.6,227.2,606.5z M395.6,684.9
			c11.1,0,20.7,10.7,25.1,17.7c1,3.3,2,6.5,3,9.8c7.1,0.4,1.2,14.9,0,18.6c-1.5,4.7-6.1,12.3-9.5,15.1l-3.6,0.6
			c-4.8,1.3-9.8,3.5-15.5,4.4l-13,0.2l-5.7,0.6c-1.6-0.5-2.8-1.7-3.2-3.3c-9.4-0.2-17.4-3.3-25.7-4.2c-1.9-0.2-3.7,0.6-5.9,0.2
			c-5.5-1.2-10.1-3.8-15-5.3l-7-1.5c-0.6-0.7-1.2-1.3-1.8-2l-5.4-2.1l-6.6-1.2c-9.9-3-20.1-7.8-27.5-13.7c-1-0.8-0.8-2.3-1.7-3.2
			c-1.5-1.4-3.8-0.7-5-2.4c-1.9-2.7-1-18.6,0.6-22.3c0.9-2,4.7-3.8,6.5-1.4l2,4.4c3.9,2.7,7.5,4.5,11,7.4
			c5.5,4.5,11.8,7.1,18.6,10.6s11.9,6.4,19.8,9.5l13.3,5.3c1.3,0.2,2.1-1.1,3.9-0.8l15.8,4.6c-2.1-3.7,0.5-7.9,1.7-11.2
			c-3.8,0.6-6.2-2-4.7-5.6c-5.9-3.5,2.1-9.2,4.4-11.3c3.2-3.1,6.6-6.3,10.6-8.6l5.1-2.1l6-5.4C388.9,684.8,392.1,686,395.6,684.9z"
			/>
		<path class="st2" d="M294.9,2.2c5.4,1,13.9,11.6,11.3,19.5l-28.5,14c-4.8,2.9-8.2,7-12.4,10.4c-9.7,8-16.7,17-23.4,28.1
			c-2.6,4.3-12,17.4-11.5,23.1l14.4,6.7l11.8,9.8l9.4,7.2c4.1,5,7.2,11.5,10.1,17.7c2.7,5.9,2.1,14.7,4.4,20.5l-0.1,0.1
			c-2.8-0.7-2.7-3.1-4.7-4.1l-2.9-0.5l-8.6-7.4l-3.3-0.4l-9.8-6.9l-3.2-0.3l-3.3-2c-1.7-0.4-3.8,0.1-5.4-0.3l-8.6-3.3l-2.6,0.6
			l-4.5-1.5l-6-0.3l-9.1-2.4c-2.1,2.8-6.4,7.8-10,8.9c-1.2,0.4-2.8-0.5-3.5-0.3l-2.3,2.9l-5.6,5c-2.8,3.6-4.9,7.5-8.2,10.6
			c-2.3,2.2-1.9,11.6-7.9,9.2c-2.4-0.9-3.9-6.4-3.2-10.3c0.4-2,3.7-17.7,2.7-19.6l-1.5-1.4c-1.1-1.8-0.4-4.9-0.3-7.2
			c-1.1-0.3-2.1-0.9-2.9-1.8l-6.6,3.2c-5.3,2.2-10.5,4.9-15.4,8c-3,1.9-5.1,4.1-8.9,5.6c-2.1,0.9-9.5,4.4-11.2,4.1
			c1.5-6.2,4.5-9.5,7.4-14l10.9-16.6c5.1-6.4,14-9.3,21.4-13.4l9.5-6c0.9-0.4,2,0.1,2.4,0c4.6-1.3,10.8-3.5,14.2-6.3
			c5.5-4.7,9.3-13.1,13.4-19.2c5.8-8.6,11.5-17.5,18-25.5c2.6-2.6,5.1-5.2,7.7-7.8l8.3-9.4l10.9-6c9.2-5.6,21-13.2,31.5-17
			L294.9,2.2z M201.7,562.7c3.1,1.1,5.3,4.2,7.7,6.2c3.3,2.7,7.1,5,9.5,8.6c2.7,4.1,3.8,10.1,5.4,15.1c0.8,2.3,2.6,6.1,2.3,8.8
			l-7.6,8.5c-6.5,7.8-13.6,15.4-20.1,23.3l-3.6,3.2l-2.4,0.5l-12.2,14.5c-1.8,2.2-4.7,3.4-6.9,5.1c-3.7,3.9-7.3,7.8-11,11.6
			c-3.3,3.7-6.5,7.5-9.8,11.2l-3.2,1.2c-1.9,2-2.4,6-5.1,7.1c-2.3,0.9-3.8-0.7-4.7-1.7c0.9-1.3,2.8-4.2,1.4-6.5
			c-2-3.1-7.2-4-10.4-6.3l-2.4-3.2c-2.6-3.2-7.6-7.3-12.1-8.3l-2.9,0.8c-3.9,1-4.8-1-6.5-2.6c-3.8,3.9-8.3,3.9-11.3,9.1
			c-1.6,2.9-2.7,6-3.5,9.2c-0.6,2.4-0.2,5.4-1.5,7.1c-0.8,1.1-2.1,1.1-3.3,1.8c2.2,2.7,4.2,6.2,2,11c-5.8,1-21.7-12-24.8-15.7
			c-4.7-5-9.4-10.1-14-15.1c-4.8-6.4-7.1-14.5-10.4-22.5c-1.2-2.9-2.5-5.8-3.8-8.8c-1.7-8.8,0.3-19.3,1.7-27c6.7-1.8,6.4,4.3,10,6.8
			c3.8,2.6,5.3-0.1,8.3,1.4c1.7,1.4,3.4,2.8,5.1,4.2c2.9,1.8,17.9,4,23.1,2.1l3.8-2.4c4-1.7,7.8-1.3,9.5-5.1
			c2.2-4.8,3.6-18.2,7.8-19.9c5,2.2,11.2,1.5,16.9,3.3l14.8,5.6l0.4-0.5c1.3-4-1.7-8.6-0.9-14c1.6-11.5,2.8-15.1,9.7-21.3
			c1-0.9,11.7-3.4,14.4-1.7l0.8,3c4.8,0.6,3.3,1,5.9,3c2,1.5,4.6,0.8,6,2.9c0.4,1.6,0.8,3.2,1.2,4.8c0.8,1.2,2.6,1,3.2,2.9l-0.1,6.8
			l0.9,1.5c-0.4,3.4-0.7,6.7-1.1,10.1c1.9-4.8,1.8-9.6,4.7-13.1c1.4-1.7,2.3-0.9,4.7-1.8l7.6-8C197.6,574.2,198.3,567.4,201.7,562.7
			z M136.8,606l0.5,0.5l-0.3,0.3l-0.3,0.2V606H136.8z M167.8,615.4l-4.2,5.7l-8.2,14.7l-8.5,21.2c-2.1-5.7,0.8-9.4,2.7-13.3
			l17.2-28.4L167.8,615.4z M336,619.8c3,0.1,6.6,0.5,8.6,2.3c2.4,2.2,7.6,10.5,6.5,14.7c2.8,1.4,1.6,6.4,2.7,9.5
			c0.4,1.3,6,6.1,7.2,7.1c0,2.3-1.5,3.4-1.4,4.1c1.4,2.8,3.1,2.6,6.6,2.6c2.1,0,5,3.1,6.3,4.2l-1.7,2.6c1.9,1.4,4.1,2.5,6.4,3.3
			l8,0.3c6.5,1.2,13.5,2.6,20.4,3.8l9.7,0.2c20.9,3.1,43.5,2.8,65,5.9c18.1,2.6,33.9-0.5,43.3,11c6.6,8.1,7.1,13,9.1,25.8l0.3,4.8
			c-2,7.2-4.5,14.3-7.6,21.2l-4.1,4.8c-7,8.8-16.3,14.7-25.4,21.5c-3.3,2.5-7.1,6.3-11.3,7.7l-6-0.6L474,780l-8.9,3.6l-15,1.7
			l-12.5,4.1c-4.7,0.8-11.1-1.7-16-0.6l-0.8,2.1l-11,0.3l-5.1-0.6c-0.9,0.2-0.9,1.3-2.9,1.1l-8.8-0.5c3,1.2,7.2,1,9.8,1.8
			c-1.6,13.2-11.3,19.1-26.1,16.8l-6.2-0.5c-11.2-3.3-13.9-11.2-17.5-22.2l-14.4-2l-13.3-1l-20.1-4.5L286,778l-45.9-8.3
			c-16.1-5.2-31.7-10.7-46.5-16.6l-12.8-4.8c-4.4-2.8-10-4.6-14.9-6.8c-10.6-4.6-21.3-10.2-32.3-14.5l1.5,2h0.1l0.3-0.2h1.1
			c4.5,0.6,9.3,6.6,14.4,7.7c1,0.2,2.3-0.6,3.5,0l2.3,2.6c1.6,0.9,3.3,1.6,5,2.3l-0.1,0.5c-1.8,1.2-1.7,2.6-2.9,4.5
			c-1.8,3.1-5.6,5.8-9.2,7.1c-5.3,1.9-9.8,1.2-14.9,0.2c-11.3-2.4-16.7-6.5-21.4-15.3c-0.8-1.5-2-2.5-2.1-4.7c2.5-2,5.6-2.9,8.3-4.8
			c1.1-0.8,1.3-2,2.1-3c2.6-3.3,7.6-1.8,10.6-0.2v-0.2c-0.2-1.1-0.3-2.1-0.3-3.2l-2-1.2v-0.5l4.2-2.7l0.9-1.8l2.6-0.5l3.6-2.7
			l2.6-0.6l5.3-5.3c2.2-1.3,4.6-0.7,7.2-1.7c3.2-1.2,8.8-7.4,11.3-10c5.8-5.8,11.3-12.3,16.8-18.4l3-3.5c7.8-3.5,12.7-8.9,18.3-14.7
			l12.8-15.4c0.6-1.1-0.1-2.7,0.3-3.9l6.2-6.8c-1.1,3.1-3,5.8-5.6,7.9v0.3c4.4,1.9,10,3.4,14.8,5.3l-0.1,1c1.6-1.2,4.2,0.2,6.3,0.9
			l11.6,2.6l10,0.9c-0.4,0.6-0.6,0.8-0.3,2h0.3l0.9-1.2c3.4,1.1,11.2,3.4,15.3,2c1.1-1.8,1.6-4.1,2.7-6c2-3.3,4.9-6,7.2-8.9l0.5,0.2
			c2.2,3,7.4,9.1,10.6,10.9l14.8,7l-0.8-8.2c-0.9-1.2-2-1.2-2.3-3.3c-0.7-6.8,3.8-14.8,7.7-17.4l9.8-4.1
			C330.6,623,333,621.1,336,619.8z M158.8,649.4c-0.2-1.4,1.3-4,2.1-5.1C160.2,645.9,159.5,647.7,158.8,649.4z M376.4,671.6l0.1,0.2
			v0.2h-2.1l0.1-1.5L376.4,671.6z M276.4,684.9l4.8,6.2c10.1,8.8,19.3,18.6,32.5,24.3c1.3,0.6,3.2,1.4,5,0.9l1.8-0.6
			c4.7,0.9,10.2,4.7,14.5,6.3c3.2,1.2,6,0.7,9.5,1.4c4.7,0.9,8.8,4.1,14,4.2c1.9,5.2,8.8,4.4,7.5-2.1c-1.2-6.7-3.6-11.1-5.4-16.6
			c2.8-2.2,2.6-5.8,4.7-8.8c2.7-3.8,7.2-6.1,11-8.9l3.6-3.9c2.7-1.6,6.8-0.5,9.7-1.4c15.5-4.7,33,12.7,33.7,26
			c1.1,0.8,2.6,0.9,3.3,2c2.4,3.4-1.4,11-2.3,13.9c-5,16.6-11.1,19.7-28.2,23.1l-19.9,0.9c-1.6-0.4-2.8-1.7-3.2-3.3
			c-4.7-0.2-9.3-0.6-13.9-1.4l-9.1-2.3c-8.9-0.3-15.4-2.7-23.1-5.6l-7.4-1.7l-2.1-1.8l-4.8-0.8l-2.1-1.8l-7.2-1.7
			c-7.8-2.7-15.3-6.3-22.2-10.9l-3.9-3.3l-0.6-2l-3.6-1c-3.5-2.3-2.4-9-1.8-13.3c0.6-4.5-0.5-9.6,2.3-11.9l0.1-0.3l-1.2-0.5
			c-0.8-3.8,1.6-7.7,2.4-10.7C276.4,678.9,275.6,682.7,276.4,684.9L276.4,684.9z M347.4,694.9c-0.8-0.3-1.2-1.1-0.9-1.9
			c0,0,0,0,0-0.1C347,693.4,347.4,694.1,347.4,694.9L347.4,694.9z M368.6,789.7c-1.8,0.7-8.8,0.3-9.1-0.6L368.6,789.7z M377.6,790.5
			c-1.4,0.1-2.5,0.3-3.3-0.3L377.6,790.5z"/>
		<path class="st3" d="M295.6,2.6c3.4,0.9,5.6,3.5,7.2,6.2c1.1,1.7,2.2,3.4,3.3,5.1c0.6,1.9-3.2,9.3-4.1,10l-12.1,5.7l-0.9-1.2
			l-18.6,11.3c-2.2,2.4-4.4,4.8-6.6,7.2C258,53,251.8,58,246.9,65c-4.1,7-8.2,13.9-12.4,20.8c-1.6,3.8-3.2,11-6.6,12.8
			c-9.1-0.3,0.1-17,2.3-20.7c9.9-17,22.1-33.2,39.4-42.7c-7.4,0.9-14.7,11.7-21,12.7c3.7-10.3,24.3-19.4,34.7-24
			c4-1.8,14.8-5.8,16.2-9.5C301.5,9,295.9,6.7,295.6,2.6z M219.6,101.3c18.6-0.3,33.8,7,42,17.4c2.1,2.6,3.3,6.4,5.3,9.1
			c1.5,2,11.2,15.6,7.7,18c1.1,3.4,3.1,8.2,2.3,12.7l-1.5,0.4c-4.3-2.9-7.3-6.7-11.2-9.8c-7.7-6.3-16.3-11.6-27-14.9l-9.1-2.1
			l-7.6-0.3c-1-0.3-1.4-1.2-1.7-2.3c1.4-4,11.6-1.9,15.6-1.1c9.3,2,18.1,5.6,26.3,10.4l8.9,5.9l-0.3-0.8
			c-2.5-2.6-9.7-11.6-10.7-14.8V129c2.8,0.3,5.5,2.8,7.1,4.5c-1.8-7.1-15.1-14.4-21.9-17.7c-2.6-1.3-8.1-2.5-9.7-4.8
			c3.8,0,7.6,0.6,11.2,1.8l5.1,1.8c-7-3.9-14.5-6.8-22.4-8.8c-4.1-1-11.2-0.6-14.4-2.9C215.3,101.7,217.4,102,219.6,101.3
			L219.6,101.3z M170,116.4c5.9-0.2,16.3,8.1,10.4,12.1c-2.7-1.2-3.2-5.3-5.7-7c-3.1-2-6.7-0.3-10.3-0.8l-0.4-0.4l-0.1-1.1
			C165.4,117.1,167.1,117.3,170,116.4z M165.6,126.4c3.8,0,7.3,2.5,4.7,6c-2.1,2.9-7.4,3.6-11,5c-8.3,3.2-15.3,7.7-23.3,10.7
			c-2.9,1.1-8.8,2.8-11.6,0.9l-0.2-1.2l0.6-0.9l7.9-1.7c4.9-2.5,9.9-5,14.8-7.6c-1.4-0.8-2.3-1.2-2-3.3
			C150.1,129.6,159.1,129.2,165.6,126.4L165.6,126.4z M180.4,130.8c3.8,0.1,1.5,6.9-0.4,7.6C178.8,136.6,178.9,132.3,180.4,130.8
			L180.4,130.8z M303.2,247.3c1-0.1,2,0.3,2.7,0.9c1.9,5-0.5,13.8-1.8,17.8c-1,2.9,1.7,6.5,0.1,8.9c-0.6,0.9-1.7,0.9-3,0.8
			c-2-2.7-1.9-8.3-2.9-11.9c-1.6-5.8-3.4-10.4-5.1-16.5c-5.7-0.3-3.8-11.7-4.5-17.2c-2.1-15.7-4.3-27.2-10.7-38.1
			c-3.6-6.1-7.7-11.2-13.8-14.8c-5-3-10.5-4.9-15-8.3c-7-5.4-10.6-14.1-16.5-20.7c-3.1-3.5-8.4-8.2-15.7-6.8
			c-14.1,2.7-26.7,15.5-37,23l-6,5l-0.9-0.1l-0.4-0.6c0.2-4.1,11-12.3,14-14.6c-1.5-5.2,3.2-8.2,6.2-10.9l4.1-5.4
			c1.9-1.4,4.6-1.3,7.2-2.1l6.1-2.4c6.2-1.3,13.4,0.2,18.6,1.1l4.1-0.1c3,0.4,6,1.4,8.8,2.7l3.3,2c1.2,0.2,2.4-0.5,3.6,0.1l8.3,7.4
			l9.8,10.3c1.4,0.6,2.4,0.1,3.5,0.8l4.5,3.5c1.6,0.4,2.7-0.8,4.2,0.3c2.1,1.5,2.9,4,4.5,5.9c4.4,5.3,7.3,14.1,10.1,20.7
			c1.1,2.5,3.3,6.1,0.2,7.9l0.6,2.9c7.2,2.7,4.7,13.7,6,22.5c0.3,2,1.5,2.8,1.8,4.5C302.6,232.8,302.9,240,303.2,247.3z
			 M229.3,167.9c25.3-0.2,30.1,21.7,33.7,43.2c1,6.1,1.7,31.6-2.6,32.8c-5,1.6-5.8-7-6.4-10.9l-0.3-16c-1.8-12.2-2.4-21.5-7.2-29.9
			c-2.1-3.6-4.3-7.6-7.6-10c-2.5-1.8-6.5-1.5-7.9-4.5c-19.3-0.1-25.6,20.9-28.4,37.6c-0.7,4.1-0.3,9.7-0.6,13.4l-0.9-0.3
			c-0.4-3.3-1.8-7.4-1.2-11.8c2.4-16.4,6.2-33,17.7-40.2C221.1,169.2,224.8,169.4,229.3,167.9z M127.7,171.7
			c28-0.3,27.3,19.7,30.8,43.6c0.7,4.7,0.4,29.1-1.7,30.1c-6.2,2.8-6.8-12-7.6-16.9c-2-13.1-0.9-29.5-6.5-39
			c-2.3-3.9-6.3-6.6-9.7-9.4c-1.1-0.9-1.4-3-2.6-3.8c-7.6-2-13.5,3.9-18.3,5.7l-0.8-0.6C112,174.1,121.7,173.8,127.7,171.7z
			 M320.7,249.7c2.3,1.5,3.3,8.4,2.7,12.5c-1.5,10.5-4.6,18.7-6.2,28.4c-1,6.1,2.8,14.1-3,15c-0.7,4.4-4.8,13.3-0.1,16.8
			c3.4,2.3,13.8-1.7,14.6,2.9c1.9-0.2,4.5,0.2,5.4,0.1c1.5-0.2,10.3-4.7,10.6-1.1c-0.9,2.6-5.9,4.4-8.5,5.4c-7.1,3-14.7,5.7-22,8.8
			l-4.8,2.9c1.6-6,5.1-5.2,7.5-8.6c-3.2-0.6-5.8-2.9-10-2.3c-7.5,1.1-17.1,5.1-19.5-3.8s8.1-18.8,12.4-22.1s9.2-3.8,10.9-10.4
			c-2.5-2-0.5-8.1,0.5-10.6l8.6-23.6C320.1,256.7,320.4,253.2,320.7,249.7L320.7,249.7z M285.4,260.5c3.7,2.1,6.1,14,6.9,19.5
			c0.7,4.3,0.4,9.6-3.5,8.5c-0.8,1.8-1.8,3.9-4.5,3.9l-0.5-0.5c-0.7-1.9,2.5-8.3,3-11.5C288,273.1,285,267.1,285.4,260.5
			L285.4,260.5z M152.3,275.7c4.5-0.1,11.1,0.8,13.4,3.3l-0.4,1.4c-2.6,0-7.9-1.9-10.7,0l0.2,0.1c2.7,1.3,4.7,3.7,5.4,6.6l-0.1,0.1
			l-7.9-4.1c-3.4-1.4-8.7-1-10.9-3.6c0.1-0.6,0.2-1.3,0.3-2C144.4,276,148.5,277,152.3,275.7z M166.5,279.8c2.8,0,12.6,1.4,13.3,3.8
			l-0.1,0.8c-2.3,1.5-9.1-1.7-10.4,2.3l-0.3,3.9h-1.2c-1.3-2-1.5-4.5-0.6-6.6c-1-0.7-1.5-0.9-1.8-2.3
			C165.5,280.9,165.9,280.3,166.5,279.8z M134.5,280.4c13.8-0.2,18.2,14,14.2,27.2l-5.6,12.8c-0.7,3.1-1.4,6.1-2.1,9.2h-0.4
			l-0.1-0.2c-5.6-7.5,1.8-12.8,0.3-18.7l-5.1,9.5c-0.9,2.3-0.7,5.5-1.2,8.3h-0.1l-0.3-0.1c-7.3-11.6,9.8-21.2,2.9-32.8
			c-1.6-2.7-5.8-4.2-8.6-5.7v-0.1c7.8-2.8,15.1,4.5,16.9,9.4l0.1-0.5c0.6-1.9-0.4-5.2-0.9-6.8c-1.3-4.6-4.2-8.9-10.7-7.9
			c-1.9,0.3-3.9,1.3-5.7,0.9C126.9,282.3,132.3,281.2,134.5,280.4L134.5,280.4z M191.1,284.2l2,0.2l0.3,1.2L189,289
			c-0.9,1.3-0.7,3.9-1.5,5.1l-0.9-0.1C183.6,289.2,188.3,286,191.1,284.2L191.1,284.2z M231.5,293.8c2.2,0,4.3,2.4,4.1,4.2l-0.6,0.5
			c-1.9-0.6-3.3-2-4.1-3.8L231.5,293.8z M173.8,299l1.1,0.1c0.9,3.9-0.7,8.5,1.2,11.8c3.1,5.2,11.9,4.6,16.2,8.6l-0.3,1.4
			c-2.1,1.8-6.8-1.2-8.6-2l-4.1-1.7c-0.7,0.1-0.8,1-2.1,0.6c-4.8-1.4-4.1-7.8-5-13.4c-0.5,0-1-0.3-1.4-0.8l0.1-1.1
			C172.6,301.7,172.7,300.4,173.8,299z M193.1,301.7l0.9,0.5l0.1,4.8c0.8,4.6,3.3,7.4,7.9,8.2c4.1,0.7,10-2,13.1-0.1l0.4,0.3
			l-0.3,1.4c-3.1,2.9-8.2,0.3-12.5,1.8l-1.2,1.2c-4.1,1.4-9.9-2.4-9.5-5.3c0.5-0.3,1.1-0.4,1.7-0.3
			C192.1,311.4,189.8,304.5,193.1,301.7L193.1,301.7z M252.1,302.3c1.3,0,1.7,0.1,2,1.1c1.4,4.4-4.9,12.1-6.8,14.5
			c-9,11.5-20.4,20.8-36.8,24.9c-3.8,0.9-19,3.2-22.4,0.8v-0.1c4.8-1.6,9.8-2.7,14.8-3.3l-9.5-0.3c-5.2-0.7-19.6-1.8-21.6-5
			c12.6-1.1,28,2.3,40.3-0.5c6.2-1.2,12.1-3.6,17.5-7c2.8-1.8,4.4-3.6,7.7-5.1l3.6-3.9c2.4-2.9,5.1-5.4,7.1-8.6
			C249.6,307.3,250.3,304.4,252.1,302.3L252.1,302.3z M216.4,303.4l1.2,0.1c1.5,2,7.9,9.5,3.6,11.2c-1.5-0.7-5.4-7.9-5.6-10.4
			L216.4,303.4z M152,304l1.5,0.6c0.4,2.9,0.8,4.8,3.8,5.1v-2.6h0.3l3.5,3.5c3.4,1.8,10.4,2.1,10.3,6.6l-0.6,0.5
			c-0.8,0.5-14.1-4.5-16.5-5.3l1.7,1.5l-0.1,1.2l-2.3,0.5c-1.1-0.8-3.4-2.1-2.7-4.5l0.8-1.4c0-1.4-1.5-3.5-0.1-5.1L152,304z
			 M108.8,314c0.5,0.6,0.4,1.4,0.3,2.6c3.3,1.9,2.3,8.2,2.3,13.3c0,9.2,2,16.4,3.5,24.6c-1.6-0.6-2.3-2.6-5-2
			c-2,0.5-3.1,2.4-4.2,3.8c-2.4,3-5.4,5.4-7.7,8.6l-5.4,9.1c-0.9,1-2.7,1.8-3.3,3c-1,1.9,1.2,3.7-0.9,5.1
			c-3.8,2.7-25.3-6.8-26.6-9.7c-0.6-1.3,6.3-13.6,7.4-15.3c7-11.2,18.7-23.5,28.7-31.7C100.9,323,108.6,318.7,108.8,314L108.8,314z
			 M266,336.7l1.5,0.1c0.5,1.4,1.1,2.8,1.7,4.2c3.4-0.6,2.6,0.9,4.2,2.6l2.4,0.9c2.1,2.4,0.2,6.8-0.3,9.7l0.3,5.6
			c1.8,0.9,4,4,7.2,2.7c1.2-0.5,1.2-1.3,3.2-1.1c3.8,3.6-0.9,29.8-2,37c-2.7,17.9-2.9,41.4,2.7,58c2.1,5.8,4.9,11.4,8.4,16.5
			l5.4,8.2c0.4,1.4-0.5,2.4-0.6,3.3c0.7,0.5,1.8,0.7,2.6,1.2l8.5,10.4c4.8,4,10,7.6,15,11.2l12.2,8.4l10.6,9.2
			c6.8,5,11.4,7.4,16.2,14.7l3.8,7.1c0.4,2.7-4.5,10.3-6,11.5l-15.6,7.1c-2.1,0.5-4.8-0.9-6.2-1.5v0.2c0.5,1.2,0.5,2.6-0.1,3.8
			c-7.3,0-12.8,1.3-18.7,1.5c-1.9-4.2-3-8.5-4.8-13c-1.7-4-5.1-7.4-7-11.6l-2.8-7.5c-4.7-5.5-8.8-12.1-12.8-18.1h-0.8
			c1,3.2,4.6,12,6.8,13.9c0.8,0.7,1.9,0.7,2.6,1.7c3.6,5.2,6.1,14.8,8.8,21.2c5.2,12.3,11.5,24,14.8,38.1c-0.5,2.7-1,5.4-1.5,8.2
			c0.6,5.4,1.1,10.8,1.7,16.2c-0.8,2.7-4.1,6.5-6.3,7.9c-1.6,1-3,1-4.1,2.4l-7,9.8c-0.1,0.3-0.6,7.8-0.6,7.8
			c0.2,1.1,1.6,1.8,1.2,3.6c-0.3,1.1-1,2.1-2.1,2.6c-4,2-4.9-2.7-6.9-4.1c-3.8,4.1-6.8-2-7.5-5c-2-8,2.2-17.2,1.7-26.7
			c-0.1-1-1.5-3.1-1.8-5.1l-0.5-13.9c0.2-1,0.5-2,0.8-3c-1.9-14.8-8.1-24.3-13.1-35.6c-3.4-7.7-6.5-15.7-11.3-22
			c-1-1.3-2.7-2.2-3.8-3.6l-0.5,0.2c-0.3,0.6-0.6,1.1-0.9,1.7l-4.5,2.1c-2.5,1.6-4.3,3.9-6.3,5.9l-0.6-0.3l-0.2-0.2
			c-0.1-5.7,4.5-6.1,6.4-9.5c0.6-1.2-0.1-1.9,1.1-2.6l3.2-0.2c-2.1-6.8,8.1-8.6,12.2-11c2.4-1.4,4.1-3.9,7.2-4.5
			c5-1,4.6,3.7,7.9,2.1v-0.5c-0.7,0.1-1.5,0-2.1-0.5c-0.5-0.5-0.6-0.7-0.6-1.7c1.2-1.9,14.9-3.1,17.1-2.1c2.6,1.2,5,3.7,7,5.7
			c6.4,7,12.1,14.6,16.9,22.8c3.7,6,5.8,12.6,11.5,16.6c8.1,5.8,15.8,1.7,21.8-2.9l3.6-2.9c4.4-7.6-12.9-21-16.5-23.4
			c-6.1-4.2-13.2-7.5-19.5-11.6l-24.6-18.1c-10.9-6.9-22.8-12.7-30.7-22.7c-6.5-8.3-12.4-17.2-15.7-28.7c-7.7-26.5,2.2-56.1,6-80.3
			c1-6.1,1.8-14,0.9-20.7l-0.3-8.5L266,336.7z M320.1,358.6c2-0.1,3.2,0.1,3.6,1.7c0.5,1.3-0.3,2-0.8,2.9l1.7,0.9
			c0.1,17.7-18.4,23.4-30.1,14.4c-0.9-0.7-4.6-1.5-5.1-2.4c-1.5-2.6,1.5-12.3,2.6-13.1c2.8-2.1,7.2,1.3,10.9,0.6
			c4-0.8,8.5-3,12.2-4.1C316.8,358.9,318.5,359.3,320.1,358.6L320.1,358.6z M46.4,384.2c3.5,0.7,5.2,6.3,7.2,8.8s5.8,4.6,9.2,5.9
			c3.1,1.2,6.8,0.9,10.6,1.7l3.9,1.5c2.9,0.8,5-1.7,7.6,0.3c0.6,3.8-8.3,4.6-11,5.9c-6.2,2.9-12.2,7.6-15.7,13.1
			c-1.6,2.5-2.3,5.6-4.2,7.7h-0.2c-3.4-7.1,5.1-16.9,7.1-21.1c-4.6,1.2-7.2,4.2-11.2,5.7l-0.3-0.3c0-4.4,4.5-8.2,8-9.1l-0.2-0.5
			c-2.5-1.7-13.7-14.9-11.2-19.3L46.4,384.2z M43.9,399c1.4,0,1.8,0.3,2.1,1.4l-0.2,0.3l-13.4,13l-0.3-0.3
			C32.3,405.3,38.5,401.9,43.9,399z M48.5,417.6l1.4,0.2l0.6,0.6c0,2.5-2.9,7.9-4.7,8.8l-0.3-0.5C45.4,422.3,46,419.5,48.5,417.6
			L48.5,417.6z M104.4,447.3c2.6,0.5,0.8,5.3,0.2,7c-1.4,3.9-4.4,10.6-8.6,11.6l-1.7-1c0.1-3.7,4.8-6.8,6.5-9.7L104.4,447.3z
			 M21.1,448.5c3.4,1.1,9.2,6.6,9.5,10.7c-0.6,1.3-5,3.9-6.5,4.4c-0.3,4.1-0.9,10.6-2.9,13.4c-0.8,1.1-1.6,0.5-2.7,1.2
			c-0.7,1.9-1.3,3.7-2,5.6c0.9-0.6,2-0.8,3-0.6c4.3,4-5.2,19.3-3.3,26.6l0.1-0.1c1.1-1.6,4.1-6.1,7.1-5.4l2.1,1.4
			c1.9-2.4,13.8-11.3,16.8-12.2c2-0.6,3.2,1,4.1,0.8c2.4-1.1,9.6-8.1,11.8-2.9c4.7-1.6,8.6-6.7,13.9-7.1c0.9,0.4,1.6,1.1,2,2
			l1.3-0.5c-3.8-3.6-6-8.1-9.2-12.2c-1.7-2.2-4.5-4.4-6.5-6.4v-0.5l4.7-2.6c1.7,2.1,4.9,2.7,6.6,4.8c2.2,2.7,5.2,5,7.2,7.7
			c2.4,3.2,4,6.5,6.3,9.8c2.6-0.9,7.1-1.7,7.4,2s-5.4,9.5-6.5,13c-0.4,3.9-0.9,7.8-1.4,11.6c-1.2,5.5-3.4,9.4-4.5,15.1
			c-0.8,4.4-0.6,9.4-2.7,12.5c-1.1,0.3-2.2,0.4-3.3,0.2c-1.4,3.3-7.2,19.8-8.9,21.1c-1.1,0.9-2.4,0.2-3.5,0.3
			c-1.6,2.6-3.9,4.7-6.7,6l3.2,0.8c3,5.4-7.3,5.6-12.5,4.7c-3.6-0.6-6.5-2.5-9.5-3.3C27,568,25,566,19.2,561.3c1,2,1.9,3.9,2.9,5.9
			c5.1-1.5,8.2,3.5,11.5,5.7c4.3,2.9,15,4.3,22.3,3c10.1-1.8,18-5.5,23.6-11.9c1.2-1.4,4-8.4,6.7-6.8c3.1,2.1-3.4,8.8-4.5,10.1
			c-5.6,6.8-14.6,10.5-25.1,12.4l-11.2,0.2c4.9,1.7,9.9,2.9,15,3.6c3,0.5,5.9,0.3,8.3,1v0.2c-1.4,1.3-3.3,1.1-5.6,1.5
			c-11.6,2-20.8-3.5-27.6-7.4c1.8,3.4,10.5,8.5,14.2,10.4c1.6,0.8,4.2,1.3,5.1,2.9c-6.7-0.1-11.4-3.7-16.3-5.6
			c3.5,4.5,10.7,7.1,13.3,12.1c-12.2-2.2-25.2-17.1-30.8-26.6c-1.8-3.1-6.6-10-4.5-14l-3.3-5c-1.5,0.3-2.7,0.3-3.5-0.9
			c-2-3-5-20.1-5-25.4c-2.8-1.3-2.7-17.3-1.8-21.3c1.1-5.1,1.2-10.8,2.6-16.3C9.3,473.4,13.8,460.5,21.1,448.5z M156.5,469
			c6,0.1,8.2,13.1,10.6,17.8c1,1,1.9,2,2.9,3c2,2.9,4.7,7.9,5.4,11.6c-0.4,1.2-0.8,2.4-1.2,3.6c-1.3,4.4-3.7,10.2-2.3,16.2
			c2.3,9.5,8.3,14.1,10.1,24.5h0.1l0.1-4.1l0.5-0.2c2.8,5.7,9,21,14.6,23.1l-0.6-1.4l0.1-0.2l0.3,0.2c0.4,0.7,0.3,1.6,0.8,2.4
			s1.8,0.6,2.1,1.8c1.7,5.5-8.3,10.3-10.4,13.1c-1.9,2.4-3.8,8.6-8.8,7.5c-3-0.7-2.6-10.5-5-13l-5.7-3l-3.6-3.1
			c-1.4-0.8-3.2-0.2-4.1-1.7l1.1,0.2c-0.6-1.1-1.3-1.6-1.5-3c0.6-0.4,1.4-0.9,1.1-1.5c-2.1-4.6-5.4-8.6-7.2-13.9
			c-4.2-0.1-3.8-3-5.3-5.7c-1.3-2.4-3.1-3.8-4.2-6.9c-3.9-10.5-6-23.3-2.9-36.9c0.6-1.4,1.3-2.7,2-4.1c0.8-3.5,1.5-7.1,2.3-10.6
			c0.6-0.1,0.6,0.1,1.1-0.5C150.6,480,152.8,471.3,156.5,469z M116.8,479c3.2,0.4,0.8,4.4,0,5.7c-3.9,6.2-8.9,9.8-10.7,18.6
			c-1.7,8.2,1.2,25.5-4.8,29c-1.4-3.1,0.1-9.6,0.3-13.3v-12.8c0.2-1.6,0.4-3.2,0.6-4.8c-0.4-0.9-1.4-1.4-1.1-3.3l4.2-10.3
			c0.5-0.2,1.1-0.1,1.5,0.2c0.4,0.5,0.5,0.7,0.4,1.7l0.5-0.1L116.8,479z M79.7,493.6c-1.1,6-15.4,10.7-10.4,16.2
			c3.1,0.4,3.8-1.4,5.9-2.3l-5.9,10c-4.2,7.9-7.9,16.2-11,24.6c-0.7,2.9-1.4,5.8-2.1,8.8l0.2,6c-1.1,3.5-6.3,5.1-5.9,10
			c-4.7-0.8-11.6-4-15.1-6.3c-1.1-0.8-3.9-7.4-5.1-8.9l-6-6.2c-3-4-8.9-16.6-8.8-23.3c4.2-1.4,7-1.7,9.5-5c6.7,1.2,8.3-6.8,12.5-9.5
			c2.8-1.8,6.2-0.7,9.5-2l19.2-7.9l9.1-2c0.9-0.7,1.1-1.8,2.1-2.6L79.7,493.6z M61.7,550.7l-0.2,0.2c-1.5-5.5,9.7-25.6,11.8-30.7
			C75.1,526.1,64.3,547.2,61.7,550.7L61.7,550.7z M157.3,579c6.1,0.2,8.8,7.7,9.7,13.3c0.5,3-0.9,5.8-0.8,7.8
			c0.1,1.9,1.7,4.3,0.6,5.7s-4.5,1.3-6.3,2.3l1.7,0.9c1.6-0.7,2.2-1.4,3.9-0.3c1.8,5.3-3,11.4-5.3,15.1
			c-6.4,10.5-12.9,21.2-17.1,33.7c-1,2.9-2.9,17.3-4.8,18c-3.5,1.2-5.4-1.7-7.1-3.3c-4.7-4.5-10.7-7.1-17.8-9.2
			c-2.7-0.8-6.6-1-8.8-2.4c-0.3-0.8-0.2-1.7,0.2-2.4c1.2-0.7,4.1-0.8,5.9-0.5c4.5,0.8,8.3,0.3,11.8,1.8c2,0.9,2,2.7,3.5,3.9
			c2,1.5,4,2.9,6.2,4.1c1.5,0.9-0.6-7.6,2-7.2c0.6,2.5,1.3,4.9,2,7.4c2-4.9,2.2-10.4,3.9-15.1c3.1-8.8,7.8-17,12.4-24.6
			c1.5-2.5,8.1-10.6,7-14.5c-1.3-4.7-10.7-2.5-12.5-6.5l0.1-0.6c4.2-2.5,16.2,0.1,13-9.5l-3-5.9l0.3-0.3c2.1,0.2,3.8,2.2,4.8,3.6
			c2.2-6.3-4.3-10.9-5.7-14.5L157.3,579z M218.6,605.4l1.5,0.6c1.6,3.5-2.1,6.4-3.2,8.9l10-10.4h0.3c4.1,6.2,12.8,6.4,5.7,17.2
			l-1.5-0.3c-2.1,4.5-8.9,16.5-12.4,19.2v0.5c6.9,1.9,14.4,5.6,21.4,7.4l13.5,2.4c-1.6,4.4-4.9,8.4-7.6,11.9
			c-13.9,18.9-35.1,31.8-58.6,41.1c-10,3.9-21.1,5.9-31.4,9.8l17.8,8.9c14.3,6.4,29,13.2,44.4,18.4l24.8,6.5l20.8,5.9
			c5.5,1.7,11.3,3.8,17.4,4.7c-6-4.2-16.9-8.5-19.9-15.2l13.6,8.3c9.7,5.7,28.9,13,42,14.5c-6.8-4.5-20.4-7.8-23.9-15.1
			c4.4,1,8,3.6,11.6,5.4l12.2,5c15.2,5.8,31.1,8.4,49.2,11.5l24,2.7c-2.7-1.3-7.6-2-9.1-4.5l8,1.7l13.7,0.9
			c10.5,1.5,25.4,1,35.8-0.5c6-0.8,13.6,0.5,18-2.1l-9.4-0.2c-6.8-1-13.3-0.7-17.8-3.6v-0.2c6.9-1.8,16.2,1.3,24,0l16.6-2.4
			c13.1-3.8,27.6-13.4,35-23c-7.2,3.2-12.5,10.7-22.7,10.9c1.5-2.8,13.8-9.3,17.1-11.8c10.3-7.6,20.2-18.5,23.4-33.1
			c1.1-5.1,0.2-11.9,0-16.3l0.3,0.2c1.8,2,4.2,4.5,5,7.4l-0.2,6.8l0.2-0.2l1.4-1.1c1.7,0.9,4.2,13.9,3.2,17.7
			c-1.5,5.1-3.3,10.2-5.4,15.1c-0.8,2.2-1.6,4.4-2.4,6.7l-7.8,8.8c-1.2,1.4-2.4,3.3-4.2,4.1c0.1-3.9,4.3-7,6-9.8
			c2.2-3.5,10.3-28.7,8.2-34.9c-1.5,4.7-2.6,9.1-4.8,13l-3.9,6.3c0.9-0.1,1.4,0.1,1.7,1.1c1.3,3.8-1.2,8.2-2.3,10.6
			c-4,9.4-7.9,16.2-15.7,21.8c-4.9,3.5-10.1,6.4-15.6,9.5l-4.8,2.7l-2.9-0.5l-5.3,3.9l-8.5,3.5l-15.1,1.7
			c-5.5,1.2-10.3,3.7-16.2,4.8c-4.9,1-13-0.8-17.5,0.3c-4.8,1.1-11.2,0.8-16,0.8c3.3,6.9-0.4,13.8-6.3,16.3c-1,0.5-2.1,1.3-3.3,1.2
			c0.3-4.1,5.9-5.4,4.7-13.3h-0.1c0.4,19.4-24.9,17.2-34.4,8.3v-0.6l0.3-0.3c2,0.3,3,1.5,4.5,2.1c4,1.6,12.2,1.6,15.5-0.6
			c-3.1-0.4-6.5,0.2-8.9-1.3v-0.2c3.9-1.5,9.8-0.9,11.6-4.4c-3.1,0.8-9.5,0.3-11.2-1.5l6.6-0.3c3.9-0.7,6.3-2.8,8.6-5.1l-0.3-0.6
			c-12.7,0.2-25.6-2-36.2-4.1c-8.2-1.6-16.9-1.9-23.9-3.9l-5.7,0.5l-16.6-3.8c-10.4-2-21-1.3-30.4-3.5l-30.2-6.5l-0.1,1
			c-12-1.5-23.3-8.6-33.4-13l-13.3-4.6c-11.5-4.6-23.9-9.4-36.7-13.1c-0.2,4.8-7.1,12-11.3,13.1c-2.8-2.1,2.7-8.3,3.5-10.4
			c-7.6,9.3-15.5,15.7-29.3,7.5c-2.8-1.6-6.6-3.4-7.9-6.5c3.6,1.8,12.4,8.7,18.3,6.7c-3.8-1-7.6-1.7-9.4-4.7l0.5-0.2
			c2.9,0.8,8.1,2.9,11.5,1.8c-2.3-0.7-4.5-2-6.2-3.8v-0.2l0.3-0.2c3.1,0.8,9.1,2.9,12.5,1.2c-3.8-0.5-7.4-2.2-10.1-5v-0.5
			c7.5,1.8,13.9,5,16.8-3.6c-4.4-1.9-20-8.5-21.4-12.1l0.3-1.1c2.7-0.1,6.1,2.3,8.5,3.3l19.6,8.5l33.7,11.2
			c6.9,2.7,14.8,5.4,21.9,8.5l14.9,6.6c10.3,3.1,22.9,2.7,34.6,4.5c6.9,1.1,13.6,0.5,19,2.7l-0.5,0.2c-4.6,1.6-16.5,0.9-21.8,0.2
			c-1.7-0.2-5.4-0.9-6.6-0.3l29.8,6c8.3,1.7,17.2,1.4,26.3,2.7c5.6,0.8,18.3,2.3,23-0.3c-8.6-1.4-17.9-1.1-25.5-3.5l0.1-0.5
			c7.9-1.2,17.6-0.4,26,0.3c1.5,0.1,4.5,0.5,5.6,0c-5.4-0.8-12.9-1.4-18.7-2.6l-16.9-4.1c-8.8-1.6-16.6-1.8-24.5-3.9l-35.9-10.4
			c-4.7-1.3-9-1.6-13.3-2.9l-20.7-7.1l-9.1-3.6c-1.8,1.9-3.2,0.3-5.3,0.5l29.6,12.7c7.5,2.7,16.9,4.1,22.5,8.8
			c-3.6,1.3-12.9-2.3-16.2-3.2c-15.8-4.1-31.4-7.5-43.8-15c-2.9-1.7-11.6-5.7-11.9-9.2l0.3-0.6l0.6-0.2c2.2-0.5,5.6,3.1,7.7,3.9
			l1.4-1v-0.2c-10-3.8-19.8-7.9-29-12.4c-2.7-1.3-6.2-2.4-8-4.7c-2.3,0.3-2.3,2.2-4.8,1.8c-0.9-1.3-1.9-1.6-3.2-2.6v-1.5
			c3.3-3.1,7.4-4,12.2-5.7c0.4-6.7,9.8-8.9,14.5-11.5l0.3-1.5V696c-8.3,4.2-17.8,13.7-29.6,13.7c1.6-3,18.3-11.3,22.2-13.7
			c14.4-9,31.3-22.7,40.2-37l13-18.9l-9.4,7.7c-8.1,6.4-15.9,13.4-23.3,20.7c-2.9,2.9-8.5,11.9-12.2,13l0.1-0.3
			c0.9-4.3,6.9-10.8,9.5-14.2c10.3-13.3,25.1-21.8,35.7-34.6c2.7-3.2,13.7-15.6,13.3-20.1c-6.8,8.7-15.6,15.6-24.2,22.5
			c-2.4,1.9-4.3,5-7.2,6.2c1-4.1,6.3-9.1,9.4-11.5l-0.2-0.2l-9.8,8.6c-5.8,4.8-10.4,11.5-16.9,15.4c1,2,1.1,3.7-0.8,5.1
			c-4.2,3.3-9.2,5.1-12.5,9.2c-1.7,2.1-4,7.2-6.6,8.2c-5.1,1.7-3.8-7.1-3.2-10.3c1.7-8.5,4.2-16.7,7.7-24.6c1.4-3.2,2.2-7.8,6.6-6.8
			l10-16.8c2.6-3.7,5.7-5.6,7-10.9c0.8-3.5,1.8-7.9,1.2-12.2c-0.3-2.1-0.6-4.2-0.9-6.3l1.4-0.9l0.8,0.2c10.6,14.1-7.8,42.2-13,51
			c-1.9,3.1-5.8,8.4-4.7,13.4c9.1-4.5,17.9-13,23-21.6l6.8-13.3h0.1l0.1,0.6c1.2,2.6-0.7,7.6-1.5,9.7c4.9-2.8,8-11.2,9.1-17.8
			l0.6-7.5c2.6,3.9,1.7,13.7,0.2,17.8c8.6-3.9,7.8-21.3,4.5-30.3c-0.9-2.5-3.9-5.4-3.6-8l0.4-0.3
			C215.8,581.2,218.7,596.7,218.6,605.4L218.6,605.4z M86.3,594.1c1,0.2,1.2,0.4,1.2,1.5l-0.9,0.6l-0.9-0.6v-0.8L86.3,594.1z
			 M86.5,600.6l1.2,0.6c0,1.3-0.5,2.6-1.5,3.5l-1.4-0.2l-0.3-0.8C84.9,602.6,85.6,601.5,86.5,600.6z M55.3,605.9
			c5.5,1.4,11.3,4.5,18.7,3.3c2.8-0.5,8.7-3,10-2.9l0.5,0.9c-2.2,6.5-16.3,5.8-22.8,3.5c-2.4-1-4.7-2.3-6.6-4.1L55.3,605.9z
			 M40.1,607.1l1.4,0.2l0.5,0.6c0.4,27,33.3,50,49.2,63.4c3.2,2.7-2,7.4,1.1,10l-1.5,4.2c-5.2-0.3-12-6.9-15.4-9.7
			c-12.5-10-23.9-26.3-32.2-40.3c-2.6-4.4-7.5-11.6-6.5-17.8c0.4-2.5-0.2-7.1,1.5-7.5l0.6,1.1l0.3-0.3
			C38.9,609.5,39.3,608.2,40.1,607.1z M128.9,623.2c2.2-0.1,4.9,0.3,5.9,1.5l0.4,1.2c2.4,1.5,9.4,0.5,7.6,5l-6.5-1.4
			c-5-1-8.4,2.1-12.5,0.9c-0.5-0.6-0.9-1.3-1.1-2.1C123.5,624.6,125.5,624.4,128.9,623.2z M341.2,627l5,0.8c3.1,2,9.6,14.3,7.1,19.9
			s-10,9-13.3,13.7c-2.1,3.1-5.8,13.5-11.8,10.1l-0.3-1.4c1.4-2.1,4-2.8,5.4-4.8l3.9-7.4c1.7-2.2,5.6-3.6,6.6-6.3
			c1.3-3.7-2.3-6-3-8.6l0.3-0.3c2.2,0.5,4.2,1.9,5.3,3.9c1.8-5.9-6.4-9.9-8.1-13c3.9,0.1,7.3,2.8,9.1,5.1c0.8-4-4.3-9.2-7.1-10.6
			l0.1-0.8L341.2,627z M120.1,642.1c4.5,0.1,15.5,2.1,15.9,6l-0.4,0.5l-8-1.7c-5-0.7-9.1,2.3-13.3,1.2c-0.5-0.6-0.9-1.3-1.1-2.1
			C114.7,642.8,116.6,643.3,120.1,642.1z M215.3,644.1v0.3l-7.9,7.5l6-8.5L215.3,644.1z M40.8,650.7c1.3,0.5,9.4,11.6,11,13.6
			c6.7,8.2,16.2,15.3,24.9,21.5c2.7,1.9,12,6.3,12.8,9.1v1.5l-1.1,0.9c-3.8-0.1-11.5-6.5-14.3-8.6C60.6,679,47.8,667,40.8,650.7z
			 M305.8,655.3c1.8,0.9,1.2,4.6,1.7,6.8c1.1,5.5,3.1,10.8,6,15.6c1.6,2.6,6.8,11.3,9.2,12.4l2.9,0.5c8.2,3.5,22.2,13.8,27.2,20.5
			c1.4,1.9,7.7,14.4,4.4,16.8c-2.3,1.7-6.7-3.5-10.9-2.4c5,2.4,10,6,16,7.2c1.2-1.6,4.1-1.1,6.4-1.7c-0.1-0.9,0.6-1.6,0.5-2.3
			c-0.6-3.4-10.9-16.7-6.2-19.5v-1.1c-3,0.6-6.2-4.4-6.2-7c-10.7-2.8-16-11.3-23.7-17.1c-2.4-1.8-7.4-2.8-8.3-5.9
			c0.2-0.8,0.3-1.1,0.9-1.5c2.1-1.5,8.4,3.2,9.8,4.2c4.7,3.5,19,19.3,27.2,16.6c-5.8-2.8-13.2-3.5-14.6-10.4
			c4.8,1.6,13.9,9.9,21.5,6.7c6.8-2.9,9.5-12.9,16.9-15l1.2,0.8v0.8c-3.1,5.1-11,13.2-15.7,16.9l-6.4,4.4c1.9,2.8,0.8,8.6,2,12.5
			c2.8,8.9,11.6,14.6,20.8,13.4c-3.2-2.2-8.1-3.5-9.1-7.8l0.1-0.2c5.1,1.2,14.4,8.3,22.2,5.3c-4-2.1-6.6-3.2-9.5-6.2l0.1-0.6
			c6.3,0.5,11.3,5.5,19.9,4.1l11.9-3.4c1-0.5,1.4-1.3,2.9-1.5l0.6,0.6c-0.1,2.3-2.2,3.8-3.8,4.7c0.9,0.5,1.5,0.6,1.8,1.8
			c1.5,5-5.1,9.8-6.5,12.5c-0.6,1.3-0.4,2.3-1.2,3.3c-4.7,6.3-18,8.8-27.5,10.1c-2.1,0.3-2.5-1-4.1-0.9c-4,0.3-9,1.2-13.6,0.6
			l-16.5-1.5l-4.7,0.5l-14.8-3.9l-7.7,0.3c-18.6-2.8-37.7-6.3-53.2-12.2c-9-3.4-20.8-6.4-26.3-13.4c-11.5-14.7,7.5-35.6,13.6-43.2
			c2-2.5,8.7-10.2,13.3-7.5c0.1,3.1-0.5,5.6-2.4,6.8c3.2,7.3-0.9,14.3-3.6,19.3c-0.6,0.9-1.1,1.8-1.7,2.7c0,1.6,0.1,3.1,0.2,4.7
			c-0.2,1.2-1.2,3.6-0.6,5.4l3.6,4.2l4.4,6.8l7.5,3.3l10.1,5.3l10.7,3.8c2.2,1.1,2.5,3.9,3.9,4.7c2.3,1,19,5.3,20.5,5
			c-3.5-1.6-22.7-11.9-22.7-14c13.8,4.1,24.7,12.9,38.5,16.5c6.3,1.6,13.1,1,19.9,2c4.3,0.6,11.1,1.5,15.9,0.5l-5.9-0.6
			c-6.6-1.1-13.8-1.9-18.6-4.8c3.4-1.2,18.8,1,23.4,1.7c13,1.8,26.5-3.1,33.5-7.7l-13.1,2.6l-19.5,2.3c-17.5,2.5-29-6.8-39.9-11.9
			c-3.7-1.7-9.6-2.2-12.1-5.1c0.4-1,1-1.3,2.4-1.4c-1.5-2.8-6-1.6-9.5-2.4c-5.4-1.3-15.9-5.8-16.9-11c3.1,0.2,26.1,13.8,29,4.1
			c1.4-4.7-4.5-9.2-6.6-11.3c-8-8-15.2-15.6-19.8-27.2C305.9,669.2,302.7,659.4,305.8,655.3z M286.4,658l1.1,0.3
			c-0.6,9.8-4,20.2-0.5,30.2c1.5,4.3,11.5,14.6,11.2,17.1l-0.5,0.3c-3-0.2-5-2.8-6.5-4.7c-6.4-8-11.1-16.3-8.5-31.1
			C283.7,665.1,284,661.2,286.4,658z M358,658.8c1.6,0,2,0.5,2,2.1l0.5-0.2l1.1-0.9l1.7,0.6c0.1,2.5-1.5,4.6-3.8,3.8
			c-1.8,2.8-2.5,5.9-6,7l-0.8-0.5l-0.1-1C354.7,666.5,355.6,662,358,658.8L358,658.8z M370.6,668.3l1.4,0.2c1.9,3.9-3.6,9.8-7.4,9.8
			l-0.3-0.3C364.5,675.4,369,669.8,370.6,668.3L370.6,668.3z M136.3,676.1l1.5,0.2c2.6,3,0.6,6.7,0.3,10.1c-0.2,2.4,0.9,4.3-0.6,6.5
			c-2.4,3.4-6.3,5-9.7,7.6c-6.9,5.1-13.5,10-21.8,14c-3,1.5-8.8,4.3-13.1,3.3l-0.8-3.6l0.3-0.3c12-0.8,30.1-12.8,35.6-20.4
			c-3.3,1.2-13.5,7.4-18.4,4.7c2.6-2,6.3-2.9,9.4-4.4c4.6-2.4,9-5.3,13-8.6c-1.9-0.3-4.3,0.5-6.5,0l0.2-0.6l8.5-4.8
			C135.2,678.9,135.4,677,136.3,676.1z M420.8,725.3c-3.4,6.1-29.7,9.3-40.2,9.4c0.5-1.5,1.6-1.5,1.2-3.6c3.2,0.2,6.8,1.2,10.6,0.6
			c5.5-0.8,10.5-2.2,15.5-3.2c4.3-0.9,8.9-1.2,12.2-3.2H420.8z M513,744.1c-5.9,12.4-12.1,16.8-23.6,23.4l-20.8,11.8l-6.4,0.8
			c-11,2.8-22.1,5-33.4,6.6h-16.8c-10.9,0-20.2-0.3-29.6-1.8l-18-1.5c-8.2-1.3-16.9-3-25.8-3l8.6-2c21.4-5.5,45.1,4.5,70.5,1
			c4.1-0.5,23.5,1.3,25.4-0.3c0.9-0.8,0.2-1.8-0.1-2.6c11.9,0,20.2-3.7,28.9-6.3c5.5-1.7,10.4-1.1,14.5-3.6c0.4-0.8,0.4-1.7,0-2.4
			c3.8-1.7,9-3,10.4-7c-0.6-0.6-1.4-1-2.3-0.9c8.3-7.4,16.5-14,22.6-23.6C518,736.4,514.3,741.3,513,744.1z M156.9,738.2v0.3
			c-1-0.4-2.1-0.2-3,0.5c-0.3-0.7-0.3-1.4,0-2.1L156.9,738.2z"/>
		<path class="st4" d="M202.1,88c-1,8.8-25.4,13.3-33.4,16.6c4.1,0.8,11.2-3,15.3,0.8l-0.2,0.6c-7.9,2.6-17.4,1.8-23.1,6.5
			c4-1,10.9-3.3,15.2-1v0.3c-2.5,1.3-5.7,1.6-8.8,2.6c-9,2.8-18.8,5.6-24.2,12.1c-1.6,1.9-3.7,3.1-3.8,6.5c7.8-0.6,16.1-8.8,24.6-11
			c6.7-1.8,12.8,0.1,14.6,4.8c4.2,10.7-6.8,23.3-4.7,33.4l0.3-0.1c1.8-2.4,5.4-7.7,9.1-8l0.3,0.3c1,5.4-10.6,19-14,10.6
			c-1.5-3.7,0.5-8.6,0.8-11.8c0.1-1.2-0.9-2.6-0.6-4.4c0.9-6.7,1.9-14.8,0.8-21c-12.3-0.2-19.1,9.1-29.9,11.8
			c-0.1,4.1-3.5,3-6.3,4.2c0.8,0.4,1,0.5,1.1,1.7c-1.6,2.8-7.7,6.5-6.8,10.6l0.1-0.2c1.4-1.4,5.4-3.8,8.1-2.3l0.1,0.1l-0.1,1.2
			l-16.9,15.7l-2.6-0.2c-0.7-0.8-1-2-0.6-3l4.5-5.6c1.1-2.9,2.1-5.8,3.2-8.8l2.9-5c-3.1-2.9,2-6.7,3.5-9.1l5.1-10.3
			c2.8-4.6,7.5-8.8,11.8-11.9c8.1-6,15.7-12.9,25.2-17.5c0.9-0.4,2,0.1,2.4,0c3.9-1.2,12.4-4.1,14.6-6.8
			c18.4-21.9,29.7-51.3,55-66.3c10.7-6.3,22-13.2,33.8-18.1c3.5-1.4,12-3.8,14-1.4l5-0.9c2.3,0.4,8.6,8.8,8.2,10.9
			c-7.2-12.3-19.9-2.1-29.1,1.2v0.2c1.7,0.3,3.7,0.4,4.8,1.2v0.1c-1.7,1.2-4.1,1.1-6.5,1.7c-4.9,1.2-10.2,2.3-14.2,4.5
			c-7.4,4.2-14.3,9.1-20.8,14.5l-8.3,7.8l4.8-1.2l-0.2,0.6c-14.1,10.7-24.1,23.9-34.6,38.4l-5.6,6.9C198.6,90.1,199.6,88.3,202.1,88
			z M181.3,109.6c0.7-0.1,1.5,0.1,2.1,0.5l0.1,1c-0.3,1.1-1.1,1.2-2.3,0.9C180.7,111.3,180.6,110.3,181.3,109.6
			C181.3,109.6,181.3,109.6,181.3,109.6L181.3,109.6z M185.4,112.3c6.7,0.1,10.1,10.2,6.5,16.2l-1.1,0.1c-1.3-2.7-0.8-7.3-2.1-10.1
			c-1-2.2-3.7-2.8-4.5-5L185.4,112.3z M131.6,164.4c5.9-0.1,10.4,0.4,13.3,3.2l-0.4,1.7l-11.5-0.6c-6.2,1.1-11.3,4.3-15.4,7.6
			c0.2,0.4,0.9,2.3,1.1,2.6c2.1-1.1,5.6-3.6,7.2-0.2c1.4-0.6,11.1-1.7,7.7,2.3l-6.8,1.7c-4.3,1.9-7.7,5.3-9.7,9.5
			c3.2-1.5,8.3-4.7,12.8-2.6v0.3c-7.3,5.5-14.5,4.3-16.8,15.9c1.7-2.1,4.2-7.5,7.7-6.9c-0.2,3.3-2.8,5.5-3.9,8.2
			c-1.4,3.5-2.4,7.2-2.9,11c-0.6,4.4-0.2,8.8,1.2,13l1.8,4.4c0.1,1.2-0.4,2.8-0.4,4.7c1.4-0.6,2.5,0,3.8-0.3c2.3-0.5,2.7-3.6,6.3-3
			l0.8,1.4c1.1-0.5,2.3-0.8,3.5-0.8l0.8,1.5c3.6-1,11.9-3.1,14.9,0l-0.1,1.1c-2.3,1.4-6.8,0.9-9.7,1.7c-7.6,2.1-13.5,5.4-17.1,11.5
			c-2.5,4.3-2,11.4-0.8,16.9l3.3,11c0.5,3.5,1,7,1.5,10.4c1.3,4.3,2.5,8.6,3.8,12.8c1.5,8-1.8,15.2-3,21.8c-1,5.1-0.1,11.3,1.1,15.6
			c3.9,14.1,12.4,24.8,19.5,36.1c9.1,14.3,16.7,29.5,22.8,45.3c2.8,7.3,4.2,15.4,6.5,23.3c6.8,23,13.8,42.8,30.4,55.7L200,494
			c-3.4-5.9-5.7-12.3-6.8-19l-0.1-6.4c6.6,14.2,17.6,40.8,31.3,46.7c-1.8-4.2-4.7-7.8-4.7-13.9l0.6,0.1c7.3,9.6,10.6,17,22,22.8
			c2.1,1,5.4,2.8,8.8,2c4-1.1,6.8-5.8,10-8c6.7-4.7,14.4-7.8,22.5-9.1c3.6-0.6,10.2-2.2,13.4-0.5l0.3,1.5
			c-2.5,3.7-10.3,3.1-15.4,4.2c-6.6,1.5-12.7,4.3-18.1,8.3v0.1c4.5,2.1,7.7,9.5,10.4,13.6c6.7,10.1,12.5,20.9,17.4,32
			c2,4.6,5,9.3,6.3,14.5h0.1c-1-7.4-4.3-13.4-4.7-21c3.4,2.2,5.8,12,7.2,16.6c2,6.4,2.8,13.8,4.1,21.2l0.1,7
			c1.1,6.9,2.7,16.1,1.4,24.3c-1.1,6.1-2.6,12.1-4.5,18l2.6,0.8c0.1,2.5,2.9,2.6,2.9,3.9c-1.3,1.3-4.7,0.7-6.2,1.8
			c-2.5,1.8-4.4,8.5-6.5,9.2h-0.1c-0.3-1.1-0.2-3.4-0.6-4.7c-2.5,5.6-1.9,12.8-2.1,20.2H291c-5.9-9.5-4.5-28.5,3.2-35.2
			c-1.3-4-0.5-9.7,0.3-13.8l0.6-25.2c-1.3-9.2-2.6-16.9-5.4-24.9c-0.9-2.7-1.8-5.4-2.7-8.2c-0.6-1.3-1.6-1.5-1.8-3.3
			c0.5-0.9,1-0.8,1.8-1c-4-9-8.5-17.8-13.6-26.3l-3-5.3l-2.1-0.8c-1.5-1.7-7.2-8.3-4.8-10c-0.3-0.8-0.6-1.6-0.9-2.4l-0.5,0.2
			c-4.8,6.1-17,18-3.2,24c5.4,2.3,22.9,3.6,21.4,10.6c-6.6,5-15.6-3.4-22.2-4.7c0,0.9-0.7,1.6-1.5,1.8c-5.6-0.5-8.4-5.8-12.8-7.7
			c-3.3,3.5-13.6-3.4-16.2-5.4l-19.5-16.3c-8.6-4.6-17.7-11.5-22.4-20.1c-4.4,0.7-11.6-12.2-13.3-16c-7.5-17.2-22.8-26-27.5-46.1
			c-3.8-0.1-7.4-10.8-8.3-14.4l-0.6-8.9c-3-1.8-1.1-1.3-2.7-3.9l-1.7-1.5c-2-3.2-3-8.4-3.8-12.5c-0.5-2.6,0.5-5.2,0-7.7
			c-0.5-2.9-1.3-10.1-3.2-12.1c-1.1-1.2-2.5-0.4-3.2-2.3c-0.4-2.8-0.8-5.6-1.2-8.5c-0.4-1.7-2-1.7-2.6-3l-0.2-3.3
			c-0.7-4.4-1-8.9-1-13.4c-4.4-2.2-4.6-18.9-4.5-26.3l0.4-5.9l-1.4-1c-1-1.3-1.4-3.6-1.7-5.4l0.2-10.3c-2.1-8.5-3.8-17-5-25.7
			c-0.8-6.1,1-13.4,0.3-17.5l0.4-25.2c0.4-1.1,1.4-1.2,2.4-1.7c-2.8-10.4-5.4-27.7-1.7-39.6c1.3-2.3,2.6-4.6,3.9-6.9
			c1.6-4.8,1.6-10.5,3.8-13.9C117.2,168.2,125.4,166.8,131.6,164.4L131.6,164.4z M226.3,174.5c5.9-0.1,15.7,2.6,18,5.7
			c1.6,2.3,1.9,4.9,4.1,6.6v0.3l-0.4,0.5c-4.1,0.7-7.2-4.4-10.3-5.9c-7.8-3.7-20.2,5.1-22.5,9.7c3.7-2,10.2-5.6,15.4-2.7v0.3
			c-11.1,5.5-19.9,8.4-23.3,21.7c-0.5,1.9-1.7,5.4-0.9,7.7c1.9-2.7,3.6-7.3,7.4-8c-0.2,5.5-4.3,10-5.4,15.4c-1,4.7,1,10.1,0.4,14
			c-0.6,0.6-1.4,0.9-2.3,0.9c-3.2-2.1-5.7-19.5-4.7-26.1c0.7-4.6,1.2-8.7,2.6-12.5c0.8-1.9,1.6-3.8,2.4-5.7l0.1-4.7
			c1.7-7,6.5-12.9,12.5-15.6C221.6,175.3,223.9,175.3,226.3,174.5L226.3,174.5z M314.2,210.5c4.6,1.4,9.8,14.9,11.3,20.2l-0.3-0.1
			c-1.1-1.9-8.5-19.6-13-11.5c-1.7,2.7-0.2,16.9,0.3,20.8c1.5,11.4-1.7,22.5-4.4,30.7c-0.7,2.1-3.9,11.3-6.5,10.4l-0.6-0.8
			c0,0,4.3-14.2,4.8-16.3c2.4-9.9-4.5-46.7,2.9-52.4L314.2,210.5z M176.5,213.2l1.2,0.3c5.8,7.1,2.4,25.2-0.6,32.2
			c-1.1,2.6-4.2,6-3.5,9.8c1.6,8.3,11,5.4,13.1,9.2c-0.8,1.9-5.4,1.9-8,1.4c-3.6-0.7-11.7-6.5-12.8-9.5s0.6-7.4,4.2-6.8
			c2.6-5.9,5-10.9,6.2-18.6C177.1,225.8,174.3,216.5,176.5,213.2L176.5,213.2z M273.9,231.2l1.2,0.1l0.8,1.5
			c6.6-3.3,18.9,11,15.6,16c-5.4,0-6.2-13-14.6-11.5c-5,6.6-2.6,16.9-1.1,25.4c0.6,4.8,1.2,9.7,1.8,14.5c1,6.1,0.6,14.6-2.4,17.8
			l-1.5-0.3c-1.9-3.3,0.9-9.9-0.3-14.5c-1-4-1.5-9.6-2.6-13.9C268.3,256.2,263.2,236.7,273.9,231.2L273.9,231.2z M151,264.4
			c2.2,0,5.3,0,6.2,1.4c0.5,0.8-0.1,1.1,0.8,1.7c6.4,2.9,11.4,6.8,18.9,8.5l11.9,1.2c2.7,0,5.9-0.5,8.1,0.1v0.8
			c-2.4,1.8-5.1,2.5-8.9,3v0.1l11.2,2.3c2.7,0.4,11.4-0.1,12.7,0.8l0.6,0.9l-0.1,0.8c-6.4,4.9-21.4,0.5-27.8-1.4
			c-5-1.5-9.7-2.5-14-4.5l-10.6-5.7c-12.9-4-24.2,3.9-29.9,10.3c-0.8,0-1.6-0.2-2.3-0.8c-0.1-9.5,9.2-15.4,16.2-18L151,264.4z
			 M303.5,281.3c1-0.1,2,0.1,2.9,0.6l0.1,1.1c-5.1,3.8-9.1,8.6-14.5,12.1c-10.7,6.9-21.6,7.7-24.8,22.4c-0.9,4.3-0.6,8.7,0.9,12.8
			c1.6,4.1,4.2,7.7,7.5,10.6c2,1.6,4.3,2.5,5.4,5c2.3-1.3,3-0.8,6-0.6c1-1.4,10.9-10.6,12.7-5.3c-1.5,3.6-8.3,4.3-10,8.9
			c-4.5,12.3,24.7,8.6,32.2,7.2c2.7-0.5,6.4-1.1,8.5,0.1v0.3c-2.1,0.9-4,1.6-5,3.6c-10,2-24.1,2.9-33.7,0.1
			c-1.4,1.6-2.6,0.2-4.5,0.8c-7.2,2.2-12.6-5.6-8.3-13.1c-7.8-3-11.6-9.1-15.1-16.5c-1.1-2.2-3.9-2.3-4.8-4.8
			c-3.5-9.5,2.4-18.4,6.3-23.2c1.9-2.3,17.3-14.2,20.4-10C293.1,291.6,296.9,284.3,303.5,281.3L303.5,281.3z M148.1,284.8
			c4.9,1.2,3.9,10.1,14.8,7.4c1.4-0.4,3.1-0.5,3.9-1.5c-1-0.7-1.4-2-1.1-3.2l0.4-0.3h0.3l1.1,0.3c2.1,1.1,3.9,2.2,6.9,2.7
			c3.2,0.5,8.1-0.9,10.3,0.6l0.1,0.1l0.8-1.2c2.2,0.1,3.2,1.5,4.8,2.3l7.9,2l10.7,0.3c1.7-0.3,2.9-1.3,5-0.9l0.6,1v1.2
			c-4.3,4.6-18.5,2.8-24.2,0.5c-2.3-1-3.5-2.7-5.3-3.9c-1.3,4.3-12.9,1.2-15.9,0.3c-0.4,3.8-7.9,5-12.4,4.1
			c-5.2-1.1-9.5-4.9-10-10.7L148.1,284.8z M183.5,296.9c4-0.2,9.9,1.2,8.6,5.3c-3.1,2-7.8-1.8-12.1,0c-5.4,2.2-4.2,8.2-6.8,9.8H173
			c-1.5-0.7-1.9-2.4-1.8-4.7c-2-1-4-2.1-6-3.2c-5.5-1.6-9.5,1.1-13.6,1.7l-0.3-0.9c1.4-5,10.7-6,16.3-4.1l5,2.7
			C174.9,298.9,178.1,298.6,183.5,296.9L183.5,296.9z M211.7,299.6c1.9,0,3,0.5,3,2.4c-1.9,3-7.8,1-12.1,1.7
			c-4.7,0.7-7.8,2.4-10,5.7l-1-0.3c-0.8-1-0.4-2.7,0.1-3.6c2-3.6,7.1-5.6,12.5-5.7L211.7,299.6z M106.1,320.7c5.6,0.5,4,6.1,1.2,8.3
			l-14,8.9c-4.2,3-7.5,7-11.5,10.1c2.6,0.4,5.8-2.5,9.2-1.5v0.5c-6.3,4.9-13.8,7.7-18.9,13.9c-1.6,1.9-8.2,12.6-9.4,13.1
			c-4.3-0.9,2.5-11.1,3.3-12.4c7-10.5,14.8-20.8,25.4-27.6l-5.9,3.6c2.7-3.4,13-13.9,16.6-15.7L106.1,320.7z M56.4,365h1.2l0.2,0.3
			c-0.2,12.5,12.9,15,23,17.4c3.6,0.9,7.4,0.7,10,2.4l0.2,1.1c-1.6,2.6-7.5,1.3-10.4,0.6c-9.4-2.1-18.5-5.1-23.9-11.3l-0.2,0.5
			c1.3,6.8,5.5,7.4,7.4,12.1v0.1c-5.5,0.1-8-3.6-10.3-6.8l-0.2,0.5c0.5,2.8,1.4,5.5,2.7,8c1.4,2.3,6,4.8,5.7,7.7l-1.1,0.6
			c-5.1-1.4-7.9-5.8-10-10.3c-0.8-1.6-2.5-2-3.2-3.9C44.2,373.6,51.1,368.6,56.4,365z M45.4,383.1l0.9,0.5c0.6,0.5,0.9,1.2,0.8,2
			c-2.3,4.3-6.8,7-10.4,10c-4.5,3.7-8.4,8.2-11.3,13.3c2.4-1,3.9-3.5,7.1-3.2l0.2,0.3c-1.2,2.8-3.8,3.7-5.6,5.9
			c-3.3,3.9-5.6,8.5-6.8,13.4c-0.8,2.6-1,5.3-0.8,8c0.5,2.8,4,8.5,0.5,10l-4.4-5.3c-0.2-1.8-0.4-3.5-0.6-5.3
			c-1.6-11.8,3.4-18.8,6.5-26.3c-1,0.9-1.2,1.9-2.9,2.1v-0.1c1.5-5,13.4-17.6,17.5-20.1l0.2,0.2l0.5,1.4l0.5-0.2
			c2.1-2.6,5.1-3.9,8.2-5.6L45.4,383.1z M30,415.9c1,0.1,1.4,0,1.7,0.8c0.7,2.2-1.8,5.5-2.3,7.2l-0.1,12.2
			c1.1,7.1,6.6,11.8,7.2,17.1c-0.4,0.6-0.8,0.7-0.8,1.4c1.6,1.2,5,3.5,5.3,5.9l-0.6,0.9c-4,0.9-7.9-4.1-9.8-6.5
			c-2.2-2.8-4.5-5.4-5.9-9.1C20.9,436,23.4,420.6,30,415.9z M41.6,432.6l0.9,0.5c1.6,1.8-0.1,5.9,0.3,8.6c0.8,5.6,2,11.6,5.4,14.5
			c3.1,2.8,7,4.6,11.2,5.3c5.1,0.8,13-6.1,15-2c-1,3.7-10.9,7.4-16.9,6.3l-5.3-1.7c-2.9,3.6-7.7-2.2-9.2-4.1
			c-1.7-2.1-3.5-4.2-4.4-7.2c-0.8-2.7,0.5-3.9,1.1-5.4l-0.6-4.2c-0.6-3.9,0.4-8.2,1.8-10.3L41.6,432.6z M97.3,443.2
			c8.6,0.1,9.8,9,13.3,14.4l4.8,5.7c1.6,2.6,1.6,5.3,3.9,7.1c2.3-1.8,8.5,3.1,7.4,6.9l-7.6-4.8c-2.1,3-11.8,20.7-17.1,17.4
			c-2-1.2-0.3-3.8,0.8-4.7c3.1-2.5,9.7-9.5,8.3-15.6c-1.3,1.8-1.9,3.8-4.1,4.7c0-4.3,1.8-6.9,2.4-10.9c0.7-4.6-4.9-11.9-7.2-13.8
			c-1.9-1.5-4.4-2.2-6-4.1l0.2-1.7L97.3,443.2z M120.4,616.9c-2.3-0.3-3.3-2.6-4.8-3.8c-3.5-2.8-8.3-7.1-13.3-8l-0.2,0.2
			c-0.3,3.7-1.7,10.6-5.4,10.9l-1.2-1.1c0-4.9,2.2-9,3-14c1.3-8.6-1.3-17.8-3-24.2c-0.8-2.9-3.6-12.4-2.1-15.1l0.9-0.2
			c2,4,2.6,8.6,3.9,13.1c2.2,7.2,4.5,13.5,4.5,23.3c10.6-4,26.4,6.8,33.7,9.2l1.8-0.9c-2.6-13-0.6-23.1,10.1-28.2
			c-3.6-1-8.5,3.4-10.1,5.3c-1.9-9.7,11.1-16.2,21.4-14.5l7.7,1.8l-0.1-0.2c-5.6-4.6-7.6-11.9-11.8-18c-1.5-2.2-3.4-4.1-4.8-6.5
			c-4.6-7.9-5.4-17.5-7.1-28.7c-0.7-4.9-1.2-11-0.3-16c0.4-2.5,1.6-4,2.3-5.9c0.8-3.5,1.5-7.1,2.3-10.6c2-5.2,4.7-9,6.5-15
			c2.3,0,2.5,0.9,3.2,2.4l2,0.1c1.7,3-1.3,7.7-2.3,10.3c-1.5,3.9-6.8,27.7-3.8,33.4c0-5,3.2-16.7,6.3-18.3
			c0.2,5.7-1.4,11.2-2.3,16.8c-2.2,14.7,1.3,29,6.6,37.8l-0.4-6.3c-0.5-3.9,0-9.9,1.2-12.5h0.3c2.9,9.5,2.5,21,5.9,29.8
			c2.3,6,6.3,9.7,9.4,14.7c1.4,2.2,3.7,11.6-1.5,10.1l-2.7-6.7c-4-5.4-13.3-9.4-22.9-8l0.3,0.3c6.3-0.1,16.2,6.3,14.4,13.1l-0.9,0.3
			c-2.5-3.8-5.4-8.4-11-8.9c-0.7,1.7-2.8,1.4-4.4,2.1c-3.9,1.6-7.6,5.1-8.9,9.4l0.5-0.2c1.3-1.7,4.8-4.9,7.7-4.2
			c-1.8,4.7-14.2,12.2-7.2,20.4c1.8,0,4.5,0.4,5.6,1.2l0.4,0.3l-0.1,1.2c-4.2,1.7-13-0.3-14.8,3.6c5.1,1.2,14.6,2.4,15.2,7.4
			l-0.3,0.3c-5.1,0.9-8.9-4.5-15.2-3.6c-2.7,0.4-7.9,4.2-8.8,3.9c-2.2-0.8-0.3-3.9,0.6-4.7l-0.2-0.5c-3.7-2.4-6.9-5.2-11-7.2
			C116.4,610.8,120.2,612.8,120.4,616.9z M117.3,478.9l1.4,0.1c3.7,5.1-0.2,13.9-1.2,18.4c-0.7,4.8-1.5,9.6-2.3,14.4
			c-2.8,11.1-6.3,22.1-10.4,32.8c-1.3,3.3-5.3,14.8-8.4,15.3l-0.5-0.5c-0.5-2.2,3.6-8.8,4.5-11.2c3.6-9.1,6.3-18.1,9.2-28.1
			c0.8-2.9,3.2-8.4,2.4-11.6c-0.7,0.9-1.2,1.8-2.6,2.1c0-5.2,3.4-9.6,4.7-14c0.4-2.7,0.7-5.3,1.1-8
			C115.8,485,115.1,480.7,117.3,478.9L117.3,478.9z M9.7,553.2c1.8,0.7,8.8,18.8,10.6,21.8c8.2,13.8,19.3,27.5,32.2,36.7
			c4.9,3.6,10.3,6.5,16,8.6c3.1,1.1,8.7,0.8,9.8,3.9l-0.8,1.1c-4,3.5-22-6.1-24.3-7.7c-15.9-10.6-29.1-26.5-38.1-44
			c-1.7-3.3-7.7-16-6-20.1L9.7,553.2z M335.8,619.3c2.5,0.6,4.7,0.9,6.6,1.8v0.3l-0.6,0.5c3.2,1.1,4,1.5,5.4,4.2
			c-2.5,0.5-5.5-1-8,0.2c-4.7,2.1-8.5,6.3-11.9,9.8c-1.4,1.3-2.4,3.1-4.2,3.9H323c0.2-5.9,9.1-12.8,12.8-15.9
			c-3.1-0.6-7.9,3.3-10,4.7c-12.4,8.3-11.8,20.7-6,35.5c1.5,3.8,5.2,7,5.6,11.5l-0.3,0.3l-0.6,0.2c-8.3-3.5-16.2-27.9-11.2-39.3
			C317.5,627.5,326.2,623.6,335.8,619.3z M81.8,623.2c0.5,0.5,0.4,0.2,0,0.8V623.2z M121.5,630c5.5-0.2,20.2,3.1,19.3,8.5l-0.3,0.3
			c-5-0.7-8.1-5.2-15.7-3.9c-4.1,0.7-7.7,6.6-10.4,4.4c0-1.4,3.8-7.7,4.2-8L121.5,630z M289.8,639.4c1.4-0.2,2.7,0.4,3.3,1.7
			c0.1,4.8-3.4,7.6-5,11.2c-3.1,6.8-5.4,13.9-6.8,21.1c-0.7,4.7-0.5,9.6,0.8,14.2c0.6,2.2,3,4.5,2.4,7l-1.2,0.3c-2-1-3-2.7-3.9-4.7
			l-0.8,0.3c4,9.9,27.6,21.6,38.4,26.1c3.5,1.5,17,5.5,18.1,8.2c-0.5,3.5-12.9-1.5-14.8-2.3c-9.7-3.8-19.1-8.5-28-14
			c-3.6-2.7-7.1-5.3-10.7-8c2.1,6.1,11.3,12.8,16.2,16.6l-0.1,0.2v0.2c-6.7-1.8-10.5-4.6-15.1-8.3c3.5,10.3,18.1,16.8,27.2,22
			c3,1.8,11.5,4.3,12.8,7.1c-1.2,2.7-6.9-0.6-8.8-1.4c-5.9-2.4-11.6-5.2-17.1-8.5l-7.4-5c-1.8,2.9-3.7-0.2-5.3-0.9
			c-2.4-1-4-0.8-5.7-2.1c-3-2.2-7.3-5.8-8.6-9.7c-1.2-3.5,0.8-6.4,1.4-8.6l-0.1-3.8c0.6-4.5,1.5-8.5,4.7-10.4
			c-1.2-5.2-1.3-10.5-0.3-15.7c0.4-2.4,0.9-4.8,1.4-7.2c-2,3.3-7.7-0.7-10.1-1.5c1.7,2.3,4.9,4.3,5.3,7.7
			c-7.2-2.3-11.9-10.9-19.8-13.5c0.9,1.8,1.7,3.5,2.6,5.3l-0.9-0.3c-6.4-6.5-14.8-10.7-24.8-13.8c-4.8-1.5-10.3-2-14-4.5l-0.1-1
			l0.4-0.8c2.4-0.6,5,0.9,7.4,1.2l0.3-1.1c6.1,1.2,11.9,4.2,17.7,5.7c6.5,1.7,14.1,2,21.5,3.2v0.2l-0.9,0.3
			c12.4,3.4,12.1,0.8,15.9,12.7C278,656.6,283.9,642.9,289.8,639.4L289.8,639.4z M112,647.5c4.3,0,18.7,1.1,19,5.1l-0.3,0.2
			c-2.5,1.9-11.5-1.8-15.9-0.9c-3,0.6-4.6,2.9-7.2,3.6c-0.7-0.3-0.9-0.3-1.2-0.9C104.9,652.3,110.5,648.4,112,647.5z M297.5,648.6
			v0.2l-1.2,0.2l0.6-1C297.6,648.2,297.2,647.8,297.5,648.6L297.5,648.6z M355.8,649.2c3.2,0.1,3.5,2.9,5.3,4.2c0.2,2,0,2.8-1.5,2.4
			c-5.4-5.3-11.5,1.7-15.4,2.1l-0.3-0.5v-0.8C346.3,653.1,351.8,651.2,355.8,649.2L355.8,649.2z M308.2,655.1c0.7,0,1.3,0.3,1.8,0.8
			l1.2,8.9c2,7.4,6.5,12.9,10.7,18.1c2.7,3.2,13.3,9.9,13.9,13.6l-1.1,0.3l-8-5.3c-8.1-6.4-21.9-20-19.8-35.5L308.2,655.1z
			 M109.1,660.2c3.3-0.2,5.3,0.1,6,2.6c6,0.3,17.2,4.3,17.8,9.2l-0.9,1.1c-5.2-0.6-9.6-4.2-16.8-2.7c-4.9,1-7,5.2-11.6,5.9
			c0-4.5,3.6-6.9,6.5-8.6c-3.9-0.9-8,3.9-9.7,6.2c-4.5,6.2-7,14.4-8.8,23.4c-0.3,3.5-0.6,7-0.9,10.4h-0.2l-0.3-0.2
			c-0.5-3-1-6.9-3.5-8.2c0-9.1,3.9-18.9,7.6-25.1l3.3-4.5c1.3-2.6-0.4-4.3,2.7-6.7C102.9,661.4,106,661.4,109.1,660.2L109.1,660.2z
			 M364.8,660.5c3,0,6.2,0.8,6.5,3.5l-0.3,0.3c-2.2-0.1-4.3-1.2-7.1-0.8c-2.1,0.4-4.3,2.7-6,1.4h-0.1v-0.8
			C359.3,661.4,361.5,661.6,364.8,660.5L364.8,660.5z M376.6,672c2.7,0,5.3,0.4,7.9,1.2l2.4-0.5l9.4,0.8l29.5,3.6
			c7.9,1.3,17.5,1.7,24.6,0.6l26.1,2.1l8.2,0.5l23.1,4.4c3.2,0.8,8.4,0.7,10.7,2.6c0.5,0.5,0.5,0.8,0.3,1.7c7.7,5.4,10.2,7.5,8.3,19
			c-0.3,1.7,0.8,3.7,0,5.4l-1.2,0.3l-0.5-0.5l-3.4-11.9c-4.8-11.5-17.7-11.2-31.7-13.6c-2.8-0.5-16.8-2.7-18.4-1.8
			c8.1,1.7,19.1,10,24.5,15.1c-1.3,0.3-17-8.2-20.1-9.4c-10.6-4.2-22.7-6.5-35.3-8.8l-19.2-2.1l5.4,2.4c4.5,2,12.2,5.2,14.6,9.2
			l-26.8-9.5c-11.1-3.3-22.4-5.9-33.9-7.9l-8.3,0.2C371.7,673,374.7,672.6,376.6,672z"/>
		<path class="st5" d="M404.8,793.8c-0.4,14.3-16.5,21.3-32.6,17.1c-11.6-3.1-17.4-9.5-20.2-21.6l-34-4.1l-18.3-2
			c-13.9-2.4-27.9-4.2-40.8-7.4c-11.3-2.8-22.5-4.5-33.1-8c-15.7-5.2-30.7-10.7-45.5-16.9L162,743c-9.5,21.4-49.6,14.5-51.8-8.8H110
			c-2.1,0.5-5.5,1-7.6,0c-4.9-2.5-12-16.7-14-22.5c-0.7-3.5-1.3-6.9-2-10.4c-20.2-13.9-39.1-28.5-48.9-52.7
			c-2.9-7.1-6.9-17.8-5.3-28.1c0.6-3.2,1.2-6.3,1.8-9.5c0.6-1.4,1.1-2.7,1.7-4.1C18.2,593,9.2,570,3.1,544.7
			c-1.8-7.5-1.3-14.7-2.6-23.4c-0.9-7.4-0.6-15,0.8-22.4c3.8-21.5,9.9-36,18.1-52.4c-15.6-16.4-6.8-43.2,7.2-54.7
			c5.2-4.5,11.3-7.9,17.8-9.9c-2.6-8.5,3.8-16.6,9.4-18.7c2.6-1,5.9-0.3,8.8-0.9c8.2-16.9,27.7-37.6,44-46.5
			c-0.8-6.8-1.5-13.6-2.3-20.4c-0.6-9.3-1.2-18.5-1.8-27.8c-1.6-11.3-1.3-27.9,0.3-38.8c-0.4-2.7-0.9-5.3-1.4-8
			c-0.7-5.3-0.6-10.7,0.3-16c1-5.5,2-10.8,3.9-15.4l3.2-6.3c2.1-7.2,2.9-13.9,5.6-20.1c2.6-5.3,5.1-10.6,7.7-15.9
			c0.4-1.7-0.6-3.7,0-5.6c1.8-5.5,5.3-10.2,8.5-14.5c8.5-11.9,19.4-22.1,33.2-28.7l10.6-4.2c3.9-1.1,8.3-1.4,11.2-3.5
			c9.1-6.6,17.2-25.2,24.3-34.9c16.4-22.4,35.8-39.6,64.5-49.8c9.4-3.4,26.9-11.1,33.1-0.9c1.6,2.6,1.9,5,2.4,8.8
			c0.4,2.9,0.2,6.8-1,8.6c-2.3,3.2-16.9,8.8-21.3,11.3c-19,11.1-32.9,25.5-44.2,44.2c-2.1,3.4-9.8,15.1-9.1,19.5
			c18.5,1.5,38.6,24.6,44.1,39.9c0.9,3.6,1.8,7.3,2.7,10.9l0.1,6c1.2,1.8,2.4,3.6,3.6,5.4c2.5,4.6,4.9,9.3,7.4,13.9
			c3.6,8.3,6.8,16.8,9.5,25.5c1.1,3.8,2.2,7.7,3.3,11.5c11.6-6,16,1.3,20.4,10.4c5.5,11.4,11.3,28.7,8.3,46.4
			c-1,5.9-3.3,10.8-4.1,16.3c6.5-0.4,10.8,2.9,12.2,8c8,0.1,17.5,8.2,15.1,18c-1,4-3.5,6.2-5.1,9.2c-4.1,7.6-3.8,13.9-11.2,18.7
			l0.2,0.5c9,7.1-1.2,17.8-7,20.7l-7,2.7v5.1c-0.4,3.4-1.4,6.6-3,9.7c-7.9,13.6-22.3,10.3-33.2,2.4c-1.1,7.8-2.3,15.7-3.5,23.6
			c-1.1,7.2-1.8,16.8-0.8,24.3s0.8,14.2,2.4,20.7c6.5,26.3,21.5,44,39.9,58.5c11.6,9.2,37.6,22,42.4,36.1c2.7,7.9-1.8,14.3-6,17.7
			c-10.6,8.5-24.3,10.9-41.7,13.1v0.2c2.1,8.9,4,18.4,5.7,28.2l1,17.2c2.5-0.6,5.3-2,8.9-1.3c11.4,2.2,16.5,17.8,17.1,30.7
			c3,0.7,9.4,6.9,5.1,10.1v0.3l1.7,1c4.1-1.4,12.5,3,10.1,7.4c7.2,2.2,15.7,1.6,23.6,2.9l28.8,3.8l28.9,2.3l25.1,1.5
			c23.6,3.5,40.9,0.7,51.7,17.8c11.5,18.4,1.4,42.8-8.2,54.8C499.3,779.2,457.9,793.8,404.8,793.8z M303.9,18.5
			c-0.9,2.1-5.6,3-7.7,4.1c-6.8,3.3-13.4,7.1-19.8,11.2c-16.3,10.9-28.4,25.1-38.7,42c-3.3,5.4-8.5,12.7-9.4,19.9
			c-1.4,1.2-5.8,0.6-7.7,1.1v0.2l16.5,7.1c17.4,9.4,38.3,24.9,37.9,51.5l-0.1,0.1c-4.5-1.8-7.4-6.1-11-8.9
			c-9.9-7.6-25.2-17.6-42.4-17.4l7-2.4l4.2-2.9l0.1-0.2c-5.8-3-16,0.6-21,2.3c-20.2,6.8-28.2,23.1-39.3,38.8l-0.3,0.1
			c-3.4-6.4-1.3-20.9,0.3-27.9c0.7-3,2.5-8.6,0.6-11.6c-2.9-4.8-9.8-1.3-13.4,0.5c-7.3,3.5-14.4,7.4-21.3,11.6
			c-3.4,2.1-6.8,5.5-11,6.5h-0.2c0.5-5.5,5.5-10.6,8.3-14.4c9.1-12.3,19.9-22.6,34.7-29.2c5.8-2.5,14.3-3.6,19.2-7.1
			c7.7-5.6,12.5-16.2,17.6-24.5c5.8-9.4,12.8-17.5,19.6-25.8c12-14.6,29.8-24.3,48.9-31.7c6.8-2.6,15-3.3,21.9-6.2
			C302.2,5.4,306,12.8,303.9,18.5z M168.2,128.6c0.7,3-0.9,6.9-1.5,9.7c-1.9,9.1-3.8,28.1,3.3,32.2c5.6,3.2,9.8-6,11.8-8.9
			c6-8.9,16.8-25.6,29-27.5c20.2-3.1,38.1,8.6,48.5,16.5c4.2,3.2,11.1,12.8,18.6,10.9c3.9,4.6,6.4,10.9,8.9,16.8
			c5.6,12.8,10.8,27.1,13.7,42.3c0.4,5.7,0.9,11.4,1.4,17.1c1.3,7.5,3.2,26.6-0.5,32.6c-4.2-15-6.4-28.5-16-37.8
			c-4-3.8-12.7-5.7-17.4-1.1c-14.7,14.6,6.1,40.1,3.6,57.7l-0.9,5.7l-3.9,2.4c-3.9,2.7-7.1,6.3-9.2,10.6
			c-6.9,14.6,7.1,36.5,18.3,38.8c-2.9,10-1.9,17.9,10.6,17.8l0.2,0.1c-3,26.5-11,58.2-3.3,86.5c4.6,17,12.7,29.9,22.4,41.7
			c11.3,13.9,27.2,23.5,42,34c6.4,4.6,16.3,10,18,19c1,5.5-3.8,8.5-6.5,10.6c-8.4,6.2-23.2,10.3-37.3,10.1l-3.2-9.4
			c-4.9-13-11.9-25.1-20.5-36l-5.9-7c3.8-1,11.1,0.6,14.5-1.2l0.1-1.4c-4.6-4.8-16.5-3.6-22.8-1.4c-13.4,4.8-32.1,14.9-32,32.5
			l0.4,0.5h0.6c2.4-4.3,5-8.5,8-12.4l0.3-0.2c5.2,9,12.5,18.1,16,28.7c-22.3-4.2-46.4-16.3-61.8-27.9c-6.9-5.2-12.7-11.6-19.3-17.1
			c-19.4-16-33.2-38.9-44.9-62.7c-8.9-18.3-16.6-37.2-23-56.5c-4.7-14.1-6.8-29.4-10.3-45c-7.4-33.1-10.8-71.6-10.6-111.2l0.3-0.3
			l1.2,1.8c-0.6,1.9-1.6,4.3,1.2,4.8s8.4-3.2,11.2-3.9c3.6-1,7.3-1.1,11.5-1.7c6.1-0.9,12.4,1,16.3,2.7c2,0.9,4.1,3.2,6.5,3l0.3-0.3
			c0.4-3.2-2.4-5.6-4.2-7l0.4-11.3c-0.3-4.9-0.6-9.8-0.9-14.6c-2.1-13.9-4.6-26.2-13.4-33.4c-6.4-5.2-14-7.5-22.5-2.4l-0.2-0.1
			c2.1-6.5,9.4-12.2,19.3-10c3.6,0.8,7.5,4.2,11.6,3.2c-0.8-5.9-12.1-9.3-19.9-7.7c-2.6,0.5-4.7,1.7-7,2.6c2.4-4.8,4.7-9.7,7.1-14.5
			c1.9-1.2,4.7-1.1,6.5-2.1l19.6-12.1l14.9-7.1L168.2,128.6z M226.9,170.4c15.7,0.1,24.7,16.3,27.9,29.3c0.8,5.9,1.5,11.8,2.3,17.7
			c1,6.8-1.2,14.3-0.3,20.4c2.1,1,5.1,3,5.6,5.6c-6.2,0-10.2-2.2-15.2-3.5c-6-1.5-16.3-1.7-23.1-0.6c-7.3,1.1-13.7,2.2-19.6,4.5
			c-2.4,0.9-5.1,3.6-8,3.2l-0.4-0.9c0.5-3.2,5.1-4.8,7.7-6.1c-0.8-5.6-2.8-11.6-3.8-18c-3-18.9,7.1-40.8,16.8-47.9
			C219.7,172,222.6,171.9,226.9,170.4z M249.7,201.1c-2.8-1.1-5.1-2.4-8.9-3c-18.3-2.7-27.5,20.4-22.6,37.3l-10.9,3.2h-0.1
			c-0.9-6-1.9-12.1-2.9-18.1c-2.2-14.5,6.8-35.6,13.6-41.1c2.7-2.2,5-2.7,8.8-4.1C238.8,175.2,248.1,190.2,249.7,201.1z
			 M143.6,204.1c-2.5-0.4-4.9-1.8-8.3-1.2c-14.8,2.4-22,16-17.7,33.1l-5.3,2.3c-2.3-5.9-4-12-5-18.3c-2.1-13.1,3.4-32.4,9.8-37.5
			c2.1-1.6,4.3-1.9,7.1-3C135.7,179.4,142.4,193.6,143.6,204.1L143.6,204.1z M249.7,211.1l-0.9,0.6l-5-3c-7.9-3-14,2.6-17.7,6.3
			h-0.6c-1.7-7,7.3-9.6,12.1-11.3C243.3,203.5,250.8,205.4,249.7,211.1L249.7,211.1z M141.3,213.8l-8.3-0.6
			c-3.2,0.6-5.4,2.2-8.2,3.3l-0.2-0.1c-1.2-4.9,4.6-5.7,7.8-7C136.3,209.2,143.4,210,141.3,213.8L141.3,213.8z M175.7,212
			c3.4,0.2,3,10.1,2.4,13.9c-1.3,8.4-2.8,15.4-6,21.6c-1,1.9-5.7,7.4-5.7,8.5c5.3,1.1,8.7,5.2,14.5,6.7c2.7,0.7,7.4,0.1,9.2,1.8
			L190,265c-8.1,6.3-18.6-2.4-23.7-5.4c-1.6-1-3.6-0.8-5.6-1.7c0.1-3.8,4.2-7.1,5.9-9.8c3.1-5.3,5.2-11,6.4-16.9
			C174,226.7,173.6,215.2,175.7,212z M325.2,236c5.9,20.1,2.9,37.1-3.8,54.1l-3.9,5.6c-2.8,4.3-4.9,9-6.4,13.9
			c-3.5,12.8,2.9,18,14.4,14.5c4.2,5.5,12.2,4.2,18.1,1.7c-1,4-4.7,6.6-7,9.5c-3.3,0.3-13.6-1-12.8,3.6c4.9,2.5,10.5-0.9,13.9,3.8
			c4,5.4-4.8,10.4-8,11.8c-10.9,4.7-36,7.2-49.8,3.3c-8.1-11.8,15.1-13.5,20.8-16.9l0.3-0.9l-0.1-0.5c-6-4.1-17.4,2-21.7,3.9
			c-2,0.8-6-3-7.4-4.1c-5.8-4.6-13.3-15.4-10.9-26.4c3.2-14.5,19.4-15.7,31-22c3.3-1.8,9.4-7.6,13.9-6.8
			c9.3,11.5-16.3,25.4-20.5,31.1c-2.6,3.6-4.1,12.5,1.2,14.5l0.2-0.2c1.4-3.6,0.8-7.5,2.7-10.3c2.2-3.2,5.8-5.1,8.9-7.4
			c5.8-4,10.4-9.5,13.3-16c3.2-7.5,1.2-17.1-8-16.9c5-13.2,5.3-30.4,2.7-46.7c-1.3-8.3-1.4-16.2,4.7-19.2
			C319,213,323.2,229,325.2,236z M250,224.8c-1.8,2.9-9,0.5-9.5-1.8s6.2-7.8,7.7-8.6C250.7,215.1,252.2,222.4,250,224.8z
			 M142.2,228.1c-1.7-0.2-3.2-1.1-4.2-2.4c-4.2-4.6,1.8-7.2,5-9.4C146.2,218.1,144,226.7,142.2,228.1L142.2,228.1z M297.2,281.6
			c-6.5,4.8-13.9,8.4-21.8,10.6h-0.1c3.7-11.4-4.2-29.2-6.3-39.3c-1.8-8.5-0.8-16.7,5.6-19.5C289.2,233.2,296.3,265.9,297.2,281.6
			L297.2,281.6z M239,254.3c11.2,0.1,19.2,6.4,21.9,15c1,3.2,2.4,11.5-0.5,13.3l-0.1-0.1c-1.3-2.3-1.4-5.1-2.3-8.1
			c-2.2-7.8-8.4-13.7-16.3-15.4c-4-0.9-9.1,1.1-11.9,0.3l-0.1-0.1C230.1,255,235.5,255.4,239,254.3z M236.6,262
			c6-0.2,14.2,2.6,12.4,8.9l-1.1,0.5c-2.1-0.6-2.8-2.1-4.5-3c3.6,9.4,0.6,20-2.6,27.3c-7.1,16.6-27.5,30.6-53.6,26.6
			c-9.3-1.4-17.6-3.3-26.3-4.8c-3.1-0.5-7.2-0.8-10.1,0c-2.5,0.7-5.3,3.5-7.7,2.9l-0.5-1.2c1-4.8,4.2-7.4,5.6-11.9
			c2.9-9.4-0.7-19.6-6.3-23.9l-5.6-2.7l-0.3-1.8c5.2-6.8,18.2-7.7,27.8-4.4c8.8,3,16.3,7.7,26,9.8c20.1,4.5,43-4.3,47.9-18.1
			c-2.2-0.2-6.4,1.4-7.1,0.1C231.4,263.2,233.9,263.1,236.6,262L236.6,262z M144.9,263c6.1-0.2,12,0.9,14,4.8
			c-4.1,1.7-9.2-1.3-14.3-0.3c-7.4,1.5-11.8,6.2-14.4,12.4c-0.7,1.8-0.8,3.8-1.7,5.3h-1.4c-3.4-9.3,5.3-18.2,11.5-20.7L144.9,263z
			 M234.3,285.5h-0.4c0-1.9-0.3-3.9-0.9-5.7c1.5-2.8,4.5-4.4,5.7-7.7C242.7,276.7,236.2,283.8,234.3,285.5L234.3,285.5z M164.2,280
			l-0.1,5c1.5,8.9,0.6,10.4-10,9.8c-0.8-2.3-1.5-4.5-2.3-6.8c-1.7-4-4.8-6.4-7.8-9v-0.1c2-1.1,4.4-0.9,6.9-1.7
			C155.5,277.2,160.1,278.2,164.2,280z M183.9,287.7c0.1,1.4,0.2,2.8,0.3,4.2L184,292c-10.5,1.8-16.2,1.6-16-10.6L183.9,287.7z
			 M228.6,288.9c-2.2,3-8.2,5.5-13.6,5.3V294c0.4-1.8,0.1-4.5,0.3-6.2c4.5-0.8,10.4-2.4,13.3-5.1
			C230.2,283.6,229.4,287.7,228.6,288.9L228.6,288.9z M337,303.7c-1.1,5.5-11.9,19.2-19.2,16.6c-3.4-0.9-2.4-6.8-1.5-9.8
			c2.5-8.6,7.4-14.4,11.3-21.6l2.9-0.6C337.2,288.7,338.5,296.4,337,303.7z M202.7,289.8l8-0.9c0.3,1.5,0.5,3.3-0.3,4.4
			c-1.2,1.5-4.1,1.5-6.4,2c-6.7,1.4-17.3,2.2-16.2-6.5C192.2,289.4,197.6,290.5,202.7,289.8L202.7,289.8z M234.6,297.3l-0.3,0.2
			l-1.4-2c1.1-3.5,2-4.6,4.7-6.5C238.5,289.8,235.3,295.9,234.6,297.3L234.6,297.3z M329,322.2v-0.1c7.4-6.1,13.8-11.1,13.6-24.9
			C362.9,300.5,344.5,330.6,329,322.2z M231.7,301.4c-1.4,3.6-8,9-12.1,9.8c-1.3-8.9-1.8-11.1,6-13.6
			C229.3,297.6,230.8,298.9,231.7,301.4L231.7,301.4z M191,317.1c-4.9,0.9-11-1.6-15.7-2c-0.8-1.1-0.4-3.9-0.5-5.7
			c-0.1-7.2-1.5-8,5.4-10.4C192,298.8,189.2,307.9,191,317.1z M215.8,313.2c-6.3,2.8-13.2,4.3-20.1,4.2c-1.6-4-3-13.6,1.2-15.4
			c2.2-1,5.1-0.6,7.7-1.4C214.7,300.4,213.6,305.6,215.8,313.2L215.8,313.2z M252.3,301.2c1.1,0,1.4,0.2,1.7,1.1
			c1.4,4-7,12-8.9,14.4c-8.8,10.7-28.4,22.8-47.7,18.1l0.1-0.5l19.2-4.5C232.7,323.7,242.5,313.4,252.3,301.2L252.3,301.2z
			 M170,313.8l-0.1,0.1c-5.3-1.3-11.6-2.6-18.1-1.8c1.7-5.3,1.6-8.2,6.6-10.4C167.8,301.5,170.2,304.2,170,313.8z M108.4,329
			c1.1,6.8,2.2,13.6,3.3,20.4c-8.5,4.1-18.2,15.1-23,23.1l-3.7,9.1c-8.2-2.6-15.1-6.7-22.2-9.7c1.5-4.4,4.7-8.2,7.1-11.9
			c6.9-10.8,14.7-21,24.5-28.8l12.6-9.8C108.3,322.6,108,326.9,108.4,329z M114.4,363.7c1.8,7.9,3.6,15.8,5.4,23.7
			c5.5,18.6,12.2,36.8,20,54.6l13.4,27c-4.8,8.1-9.4,16.7-12.2,27c-1.6,6.2-2,12.6-1.2,19c2.1,13.5,4.5,23.3,9.8,33.1l10.3,17.5
			c-16.2-0.8-26.5,7.4-24.2,25.2c0.5,3.8-0.2,8.2,0.6,11.5l-0.1,0.2c-9.4-3.2-19.7-9.6-30.1-10.7c-1.6-1.7-1.5-6.9-2.3-9.2L97.3,566
			c2.9-2.5,4.7-6.3,6.8-9.7c11.2-17.9,19.2-42.5,18.7-71.3c4.5-1.8,9.1-10.7,3.8-15c-1.7-1.4-3.8-1.4-6.5-2
			c-1.2-2.9-2.3-5.7-3.5-8.6c-3.7-8.5-10.1-15.5-18.3-19.9c0.8-2.5,2.5-4.6,3.2-7.6c2.7-11.5-3.7-23.1-10-27.9l-0.2-0.5
			c8.2-6.2,8-18.9-0.2-25.2c2-7.7,15.2-18.7,21-23.6C113.9,355.9,113.9,361.6,114.4,363.7L114.4,363.7z M321.7,367.2
			c-1.6,6.6-5.8,14.8-15,13.4c-6.9-1-10.3-4.8-15.1-7.7c0.4-2.5,0.8-5,1.2-7.5l0.1-0.6c3,1,3.4,11.1,12.2,10.7l0.3-0.1
			c-0.5-4.5-5.4-6.3-6.8-10.4v-0.1c7.1,0,18.2-0.3,23.7-2.6C323,363.3,322.1,365.9,321.7,367.2L321.7,367.2z M57,366.9
			c-2.5,9,15.7,14.9,22.5,17.4c2.9,1,9.9,4.8,11.3,0.6h0.3c0.5,1.5,1,2.9,1.5,4.4c1.8,9.6-5.8,12.7-14.8,11.2
			c-2.1-0.4-4.4-1.7-6.6-1.2c1.8,3.8,7.9,7.9,14.5,6.2c2.4,3.4,5.8,5.6,8,9.4c6.2,10.6,3.2,27.1-7.6,30.8c-1.7-1.8-3.3-3.5-5-5.3
			c0.4-5.7,4.5-11.5-0.3-16.2l-0.2-0.5l3.2-0.9c-1.5-3.6-8.4-3.5-12.1-2c-6.1,2.6-10.6,7.9-12.1,14.4c-1.2,6.1,0.4,15.9,5.6,16.5
			l0.3-0.3c0.3-1.6-0.7-3.1-1.1-4.7l0.2-0.5l1.5-0.1l6.7,6.6c-2.4,13.4-23.5,15.4-30.5,4.8c-2.5-3.8-1.5-13.8-0.6-18.9
			c0.3-1.7,1.3-4.2,0.6-6.2l-0.2-0.6h-0.5c-4.6,4.8-7.5,15.9-5.3,24.9v0.2h-0.2c-12.3-3.4-11-17.1-10.9-31.5l-0.3-0.5
			c-5.1,2.9-3.6,8.7-5.4,14.8c-11.6-18.6,3.4-40,15.4-48.5c2.5-1.8,6.2-4.8,10-5c1.3-0.1,3.6,4.7,4.4,5.6c3.9,4.3,9.3,6.8,15.1,7.1
			l0.2-0.1c-1-2.4-3.9-3.4-5.9-4.8c-6-4.4-14.5-13.1-8-23c1.5-2.2,3.3-2.9,5.7-4.2L57,366.9z M78,427.8c-4.7,0-7.3,1.7-10.6,2.7
			c1.5-2.9,4.8-4,7.7-5.6C76.7,425.2,77.4,426.5,78,427.8z M89.8,458.6c-1.3,1.7-3,2.9-5,3.6c-5.4-9.9-12.4-15-20.7-21.9
			c-1-1.9,0.7-5.9,1.5-7.2C71.9,435.3,87.6,452.2,89.8,458.6z M100.3,445.5l-0.6,2.7l0.8,0.9c1.5-0.2,1.5-0.8,2.3-1.7
			c5.5,6.9,9.9,12.9,12.8,22.8c0.3,1.6,0.7,3.2,1.1,4.8c-0.8,3.5-10.7,11.2-13.4,13.9l-0.6,0.1c-1-9.8-3.4-19.5-7.1-28.7
			c1-1,2.4-2.1,2.6-3.9l-0.2-0.6l-0.9-0.6c-1-0.1-2,0.6-2.4,1.5l-0.5,0.1l-1.7-3c3.4-2.5,5.1-6.6,4.7-10.7L100.3,445.5z M99.6,450.6
			c0.8,0.3,1,0.4,1.4,1.2c0,0.8-0.4,1.6-1.1,2c-0.8,0.6-1.3,0.3-2-0.3v-1.1l0.9-1.5L99.6,450.6z M26.6,457.1l-4.6,8.2
			c-3.1,6.4-5.5,13.1-7.1,20.1c-8.2,34,2.8,66.9,23.9,80.2c4.8,3,9.5,3.8,15.7,6c-1.6,0.7-5.3,0.4-7.2,0.2
			c-11.3-1.6-17.7-4.3-24.6-9.8c-7.5-6-13.5-15.4-16.6-25.8c-1.5-5.2-1.2-12-1.2-18.3c-0.1-18.6,3.6-37,11-54.1l6.5-12.7
			C24.2,452.6,24.6,455.6,26.6,457.1z M95.2,477.5c2.6,10.7,4,21.6,4.2,32.6c0,9.7-2.5,21.2,0,29.8h0.3c7.2-9.5,4.7-31.8,3.6-45.9
			c6.1-1.4,10.3-8.6,13.9-12.7h0.2c1.8,8.2-0.1,18.4-1.5,25.4c-2.6,13-4.9,24.8-9.8,35.2c-2.8,5.9-6.5,11.1-9.5,16.6l-0.4,0.2
			c-0.1-3.4-0.3-7.1-1.5-9.4h-0.5c-9.9,13.8,9.5,32.8,6.7,49.8c-0.4,2.6-0.6,5.2-1.8,7.1c-0.4-2.8-0.8-5.6-1.2-8.5
			c-2-6.2-4-12.5-6-18.7c-0.6-4.3-1.1-8.6-1.7-12.8c-0.7-4.6,0.3-9.8,0.9-13.6c1.7-10.6,3.4-20.6,3.3-32v-8.6
			c-1.5-10.1-1.3-19.7-3.3-29c-1.2-5.8-4.2-11.7-5-16.9c1.9-0.8,3.6-1.9,5.1-3.3C93.2,464.6,94.4,473.9,95.2,477.5z M67.9,470.4
			l-0.2,0.1c-1.5,0.5-2.3-1.1-3.3-2l-0.2-0.3l1.7-0.8C67.2,467.9,68,469.1,67.9,470.4z M122.7,479.3l-0.3,0.1
			c-0.5-2.6-0.9-5.2-1.4-7.9C125.5,472.3,124.5,476.8,122.7,479.3z M75.9,478.2l-0.5,0.5c-1.9-0.5-4.9-3.8-5.6-5.6l0.4-0.8
			C72.6,472.6,75.8,475.8,75.9,478.2z M159.9,480.4c4.1,6.6,8.7,14.2,14.2,19.6c0.2,1.5-1.2,3-1.8,4.4c-1.4,3.4-3.2,8.2-2.4,13.4
			c2.6,17.2,12,30.1,20.5,41.7c2.3,3.1,4.1,6.6,6.9,9.1c-2.1,7.4-9.3,15.4-16.5,17.8c-2.2-7.6-3.6-11.9-9.2-15.9l-5.1-2.9
			c-1.9-3.5-3.8-7-5.7-10.6c-8.9-14.3-21.1-34.7-15.4-59.2c2.2-9.3,6.2-17.1,10-24.8L159.9,480.4z M82.1,485l-0.4,0.5
			c-1.6-0.4-4.4-3.2-3.9-5.1C79.6,480.5,81.9,483.2,82.1,485L82.1,485z M86.5,486.2l0.2,0.1l0.2,1.5l-2,0.3
			c-0.5-0.5-0.6-0.4-0.8-1.4l0.9-0.6H86.5z M82,487.6c0.6,0.5,0.7,0.5,0.6,1.4c-0.9,0.6-1.9,0.9-3,0.9l-0.8-1.1
			c0.4-1,0.8-0.8,1.8-1.2H82z M76.2,489.4l0.3,0.3v0.8c-0.9,0.6-4.4,1.6-5.1,0.5c0.7-1.3,2.2-1.1,3.6-1.7L76.2,489.4z M67.9,491.5
			l0.6,0.1c-0.6,1.6-4,2.2-6,2.3l-0.5-0.3l0.2-0.9l4.4-1.4L67.9,491.5z M83.9,491.7l0.3,0.3c0.5,1.7,0.1,4.6-0.8,5.6l-0.2,0.3h-0.6
			c-0.8-1.4-0.4-4.9,0.3-6.2L83.9,491.7z M59.9,493.8l0.3,0.1l-0.2,0.5c-0.7,0.5-6,3.9-5.6,1.1l4.2-1.7H59.9z M51.3,497.1l0.2,0.1
			c-0.6,1.4-2.2,1.9-3.8,2.3l-0.6-0.3l-0.2-0.5c0.6-1.2,1.8-1.3,3-2L51.3,497.1z M83,499.4c0.8,1.9,0,4.9-0.9,6.2h-0.6
			c-0.9-1.3-0.1-4.9,0.6-6.2H83z M42.5,500.5l0.6,0.1c-0.4,1.5-2.6,2.5-4.5,2.4l-0.2-0.1l-0.2-0.9l3.6-1.7L42.5,500.5z M34.7,504.7
			c-0.5,1.8-4.5,4.5-6.5,4.7l-0.5-0.3l-0.1-0.9c1.7-1.8,3.9-2.5,6.2-3.8L34.7,504.7z M191.9,519c9.2,8.6,18.9,17.5,29.8,24.3
			c12.1,7.4,25,13.3,38.5,17.5l20.7,5.7l5.4,13.4c3.4,9.1,4.4,18.4,6,29.9c0.2,2.9,0.3,5.7,0.5,8.6c-0.6,5.3-1.1,10.6-1.7,15.9
			c-7.7,3.1-10.4,10.5-14.2,17.8l-55-11.9v-0.5l17.8-22.3c1.2-4.2-8.1-12.6-10.7-13.9c-0.2-15.9-10.2-30.9-19.5-38
			c-3.1-2.4-7.7-6.7-13-6.2c-8.4-11.8-28.4-35.6-19-55L191.9,519z M81.5,508.3c0.5,1.5-0.6,4-1.4,4.8l-0.2,0.3h-0.5
			c-0.5-2,0-4.1,1.4-5.7C81.4,508,81.2,507.8,81.5,508.3z M24.5,510.7l0.1,0.1c-0.6,3.7-4.8,5.1-6.8,7.5h-0.5l-0.3-3.2
			c1.9-2,4-3.1,6.6-4.5H24.5z M301.7,535.5c13.7,21.8,23.6,50.1,23.7,85.2c-7,3.5-15.9,9.5-18,17.8c-1.1,4.2,0,9.2,0.6,13
			c-4.9-1.8-11.1-6.6-13.1-11.2c-0.2-0.4,1.8-7.7,2.1-9.7c1.3-8.7,1.3-17.5,0.1-26.1c-3.4-22.5-10.6-39.3-19.9-55.6
			c-4.1-7.2-7.5-15.1-13.6-20.2c0.7-1.8,3.2-2.8,4.7-3.9c3.1-2.3,6.1-4.7,9.8-6.5l7.7-2.9C288.4,516,299.7,532.3,301.7,535.5
			L301.7,535.5z M79.4,515.9c0.5,1.4-0.4,3.1-0.9,4.4l-1.1,0.2l-0.3-0.3c-0.1-1.6,0.4-3.2,1.4-4.5L79.4,515.9z M76.8,523.6
			c0.3,1.7-0.1,3.5-1.2,4.8l-1.1,0.3c-0.7-1.7,0.4-4.2,1.2-5.4L76.8,523.6z M73.8,531.6c0.2,1.4-0.1,2.8-1,3.9l-0.2,0.2h-0.8
			c-0.4-1.5,0-3.2,1.1-4.4L73.8,531.6z M70.8,538.8c0.8,2-0.9,3.9-2,5.1l-0.6,0.2L68,544c-0.5-2.1,0.9-3.9,1.8-5.1L70.8,538.8z
			 M67.9,547.4c-0.3,2.3-1.7,4-2.9,5.4h-0.8l-0.3-0.3c0.1-2.1,1-4.2,2.7-5.6L67.9,547.4z M13.7,559.2l6.6,7
			c11.3,9,31.2,14.3,47.9,6.5c4.6-2.1,8.8-5.1,12.4-8.6l4.4-5.1c-0.1,8.2,0.2,15.9,2,22.7c1.9,5.6,3.7,11.3,5.6,16.9
			c1.3,5,2.2,13.6-0.8,17.4c-6.8,8.6-26.6,3.5-34.1-0.3C33.5,603.3,18.8,582,10,554.4L13.7,559.2z M63,556l0.2,0.5
			c-0.1,0.9-0.6,1.7-1.4,2.3l-0.9,0.3h-0.2c-0.2-1.2,0.2-2.5,1.2-3.3L63,556z M59.4,561.6l0.3,0.6c-0.4,1.7-1.6,3.2-3.2,3.9
			l-0.6-0.3c-0.2-1.8,1.5-3.6,2.7-4.5L59.4,561.6z M224.2,603.6l-2.4,2.6l-0.1,0.2c-1.5-3.7-1.1-9.6-2.6-13.4
			c-2.5-6.6-6.7-12.4-12.2-16.8l-6.2-3.9c0.6-2.3,1.3-4.6,2-7C213.4,569.5,222.6,589.2,224.2,603.6L224.2,603.6z M175.6,584
			c1.9,7.8-0.5,22.7-8.2,22.7c1.6-4.8,4-10.9,2.7-17.7c-2.5-13.9-18.3-15.9-29.6-9.2c1.4-7.1,7-7.9,13.4-10.1
			C165.1,569.5,173.4,575.1,175.6,584z M216.4,598.8c0.6,1.5,3,8.9,2.3,10.9l-16.2,16.8l-17.4,18.1l-15.4,15.7L154,675.5l-0.4,0.2
			c-0.1-25.9,13.2-40.3,24-55.6c5.2-7.3,13.6-18.5,9.4-31.6c4.7-2.9,8.7-7,11.5-11.8C207.4,578.9,213.1,590.2,216.4,598.8
			L216.4,598.8z M166.4,596.2c0,3.4-0.4,7.1-1.7,9.4v0.4c-6.6-0.3-19.2,0.6-23.4-2.7c-1.6-1.3-2.2-4.6-2-7.2l-0.1-8.5
			c1.3-4.2,6.9-5.5,11-7.1C161.4,580.3,166.4,585.2,166.4,596.2L166.4,596.2z M183.4,595c1.1,7.7-2.7,13.3-5.6,17.8
			c-7.7,12.2-17.5,22.1-23.4,36.2c-2.6,6.2-4,13-5.1,20.7l0.1,10.1l-6.9,7.1l-0.4,0.2c-1.3-25.2,13.3-52,23.4-67.2
			c5.6-8.5,15.9-14.5,15.7-28.4l1.4-0.6C183.6,591.7,183.2,593.3,183.4,595L183.4,595z M134.2,607.7l0.1,0.3l-1.3,2
			c-1.1,0.9-3,0.7-4.1,1.5c-2.4,1.9-6.3,7.5-6.7,11.2c0.3,0.7,0.7,0.8,1.4,1.2l-2.4,4.1c-3.8,0-11.9,11.8-7.2,14.3
			c-0.8,3.2-2.7,1.5-4.5,3.2c-1.5,1.3-5.4,9-4.4,11.3c-1.7,1.7-3.3,2.3-5.3,3.8c-5.9,4.4-9.8,14.2-11.6,22.5
			c-4.3-2-7.7-6.2-11.3-9.1c-14-11.3-23.1-23-32.5-39c-3-5.1-9.8-17-4.5-24.3l7.1,5c5.2,3.5,10.9,6.3,16.9,8.2
			c24.8,7.5,37.9-5.3,41.5-25.5C115.3,600.4,125,603.5,134.2,607.7L134.2,607.7z M166.1,611v0.3c-4,3.5-6.5,9.3-9.4,13.9
			c-7.4,11.9-17.6,32.1-19,49.1h-0.4c-3.9-4.9-13.2-11.1-19.5-13.6c-3.1-1.2-6.5-1.3-10.1-2.1v-0.2l0.2-0.2
			c7.3-1.1,20.2,8.9,23.7,6.2c1.5-1.2,2.1-3.5,3-5.3c0.6-1.2,2.5-2.8,2-5c-0.8-3.2-15.7-8-20.2-8.3c3.4-8.6,17,6.3,22,2.7
			c1.9-1.4,2.6-3.9,3.8-6c5.4-10-9.2-11.1-16.3-13.9l-0.5-0.2c0.6-1.2,1.1-2.3,1.7-3.5l0.2-0.2c5.7,1.2,16.1,10.2,21.8,5.4
			c1.9-1.6,5.2-7.2,3.6-10.6c-1.3-2.8-11.8-8.4-15.6-9.1v-0.5c1-1.1,1.7-2.4,2.1-3.8C146.2,610,157.6,608.6,166.1,611z M233.9,614.5
			c1.1,3.3-2.8,6-4.7,8.6c-5.7,7.7-11.8,14.9-17.7,22.3c-21.6,27.4-47.2,52.7-77.6,71.3c-4,2.5-23.5,15.1-28.7,13.9
			c-2-0.5-8.8-9.7-9.5-11.9c19.7-1.4,38.8-18.7,49.8-29.6c15.1-14.9,32.6-28.2,46.1-44.6l15.6-16c6.1-7.4,14.3-13.1,19.9-21
			C230.1,608.8,231.8,612.2,233.9,614.5L233.9,614.5z M149,621.6c-0.3,2.8-1.9,4.6-3.3,6.3c-3.2,0.5-15.1-6.2-19.6-7.5
			c1.2-3,3.4-5.5,6.2-7.1C137.6,613.3,146.2,618.6,149,621.6z M343.8,624.8l0.1,0.2l-9.1,3.3c-8.3,4.2-19.9,11.7-16.2,25.4
			c1.2,4.5,3,8.9,5.3,13l3.2,5.9l-2.3,1.4l-4.2-4.5c-3.2-5-11.4-22.5-8-31.1c3.3-8.3,15.4-13.5,24.3-16.6
			C340.5,622,341.8,623.1,343.8,624.8L343.8,624.8z M346.5,628.8c3.6,4.5,5.6,11.8,5.9,19.5c-3,1.5-13.4,8.9-14.5,11.6
			c-0.5,1.2,0.5,2.5,0.8,3.6l-8.8,6.7l-0.5,0.2c-2.5-7-6.8-12.5-8.2-21c-1.9-11.4,14.7-17.8,22.5-20.7L346.5,628.8z M40.8,637
			L51,653.9c8.5,12,24,25.5,36.1,34l-0.6,7l-0.2,0.2c-6.6-2.5-13.5-10.2-18.7-14.5c-14.2-11.6-26.5-27-29.8-49.4L40.8,637z
			 M139.9,638.7c0.5,1.8-2.8,5.8-3.6,7l-5-2.4c-4.8-2.2-10-3.5-15.3-3.9l-0.2-0.2c1.1-2.7,2.5-5.1,4.2-7.4
			C124.6,632.6,139.1,635.4,139.9,638.7L139.9,638.7z M291.9,644.7c-1.9,3-3.7,6-5.6,9.1c-2.5,5.7-7.2,17.9-6,26.1
			c0.6,3.9,1.3,7.2,2,10.6c-4.6-2.4-6.6-10.3-5.3-18c2.3-13.6,6.6-22,12.1-31.7L291.9,644.7z M274.8,657.4c-0.9,4-1.7,8-2.6,11.9
			c-0.7,3.4-0.8,6.8-0.5,10.3c0.2,1.9,0.4,3.7,0.6,5.6c-1.2,3.4-2.3,6.7-3.5,10.1c-0.9,3-3.6,12.4-2.3,15.7
			c2.8,7,19.9,15.8,27.2,19.5c21.1,10.7,46.3,17.2,73.7,21.6c14.5,2.3,32.8,1.6,43.8-3.2c9.2-4,12-11.6,15.7-21.2
			c1-2.6,2.5-6.2,1.8-10.4c-1-6.4-3.3-12.6-6.8-18.1c-4.9-7.6-15-13.9-23.6-17.7l-4.7,0.2l-4.5-2.6c0.4-3.1-1.1-3.5-2.3-5.3
			l39.3,4.7l50.1,3.5c16.7,2.5,34.4,0.9,45,9.2c8,6.3,3,23.2-0.5,30.4c-11,22.6-26,38.5-51.4,47c-12.4,4.1-26,5.7-40.2,8l-15.6,1.2
			l-19.9,0.7c-19.5-2.9-39.4-5.6-58.1-9.2l-53.9-9.4c-29.5-6.4-59-13.2-85.6-23.1c-11.8-4.4-23.6-8.4-34.9-13.3l-17.4-7.9l6.8-4.8
			l17.5-13.6c11.2-9.2,21.5-19.6,30.7-30.8c6-7.3,13.6-13.5,18.9-21.4L274.8,657.4z M304.4,654.5c0.8,20.7,12.1,31.7,24.9,40.5
			c12.1,8.3,23.4,13.3,26.6,30.7l-0.1,0.2c-18.9-3.6-37.1-10.6-53.5-20.8c-3.7-2.2-13.4-7.6-15.5-10.7c-1.3-1.9-1.4-4.7-2-7.2
			c-3.2-15.3,3.3-30.4,10-39C298.2,649.8,300.2,653.1,304.4,654.5z M132.7,655.3l-3,6.3l-0.4,0.2c-6.2-2.7-12.4-6.5-21.1-6.8
			c0.9-2,1.8-4,2.7-6C118.7,650.7,126.2,652.2,132.7,655.3z M359.2,654c0.2,1.2-11.7,12.2-14.5,12.5l-3.6-4.5
			c1.2-3.3,10.6-9.7,14-11.3C357.3,651.1,358,652.8,359.2,654L359.2,654z M309.4,656.8c2.3,5.2,3.4,10.7,6.6,15
			c1.8,2.2,4,4.1,6.3,5.7c4.7,3.4,9.2,7.9,13.9,11.5c12.3,9.4,26.6,19.2,28.1,39.3l-3.3-0.8c-0.7-3.4-1.5-6.7-2.3-10.1
			c-2.5-6.1-6.5-11.5-11.6-15.7c-13.3-11-26.9-14.2-35.3-30.8c-2.4-4.6-3.9-9.6-4.4-14.8L309.4,656.8z M360.3,661v0.3
			c-4.5,3.5-7.9,7.9-12.7,11.2l-0.1,0.6c0.9,2,2.5,3,3.8,4.5c5.4,6.7,8.3,0.2,12.4-3l6-5.1l2.7,1.7l-6,3.8
			c-3.4,2.6-5.8,6.8-8.2,10.4c1,3.2,4.9,6.9,7.9,8.2c3.7-0.3,5.1-5,7.5-7c3.2-2.6,7.7-5.4,12.8-5.9c0.6,1,1.5,1.7,2.6,2.1v0.3
			c-9.2,2.5-24.8,14-26.9,23.1L351.8,695c-7.6-6.2-15.6-12.3-23.7-18l-0.1-0.5l12.8-9.4c1.4,0.6,1.6,2.3,3.5,2.6
			c3.5,0.5,12.1-7.9,14.4-10L360.3,661z M370.1,664.5l0.1,0.5l-13.7,12.5c-1.7,0.4-3.4-2-4.7-3l-0.1-0.5c4.9-3.5,8.2-8.8,13-12.5
			C367,661.7,368.6,663.3,370.1,664.5L370.1,664.5z M133.3,675.7l3.8,2.9c0.7,1.7,0.2,9.9,0.6,12.1c-2.6,5.4-24.1,18.2-30.7,21
			c-2.8,1.2-7.9,3.7-11.8,2.3c-3.3-1.3-4.6-14.2-4.2-19.9c0.7-10,5-25.9,11.3-29.9l3.8-0.9C118.8,663.2,125.8,670.2,133.3,675.7z
			 M385.6,677l-5.1,1.3c-5.7,2.5-10.5,6.7-13.8,11.9c-2.1-0.7-3.4-2.8-5-4.1c2.7-7,8.6-10.4,16-13
			C380.7,673.8,383.4,675.1,385.6,677z M404.6,690c10.4,6.6,16.6,14,19,28.8c-6.2,7.7-25.5,10-38.1,11.8c-3.5,0.5-12.7,0.7-15.4-0.5
			c-0.9-0.5-2.3-10.8-2.9-12.5c-1-2.7-2-5.4-3-8.2c1.6-8.8,16-18.5,24-21.6c2.6-1,5.5-1,8.5-2C399.8,686.2,402.5,688.6,404.6,690
			L404.6,690z M283.5,697.9c6.5,5.2,13.4,10,20.6,14.1c14.1,8.2,28.9,13,46.8,17.8c4,1.1,14.3,5,17.8,3.9c4.5,2.3,15.3,2.2,21.3,1.2
			c9.2-1.5,17.8-2.7,25.5-5.7l7.5-3.6c-1.6,6-4.8,12.9-9.2,16.3c-11,8.4-36.7,7.5-53,4.2c-26.9-5.3-52.1-12-72.6-23.9
			c-4-2.3-16.4-8.6-17.5-12.7c-1.2-4.5,3.4-16.2,4.1-20.2L283.5,697.9z M530.3,721.4c-2.3,13.1-7.9,20.1-14.5,28.5l4.7-10.4
			c2.7-5.4,3.5-11.5,5.7-17.8c1.6-4.5,3.6-8.6,3.5-15.1C531.7,709.4,531,717.8,530.3,721.4L530.3,721.4z M168.6,734.5
			c12.3,7.1,25.1,13.2,38.4,18.3c3.6,1.4,22.2,8.8,25.7,7.9c-9.9-5.5-21.1-9.1-31.6-14l-23-11.2l13.9,4.8l34.4,10.9
			c26.4,8.2,55.9,12.6,84.1,18.9l39.4,7c-3.9,1.1-15.8,1.3-17.8,3.6c6.1,0.6,12.4,1.7,19,0.8l15.4-1.1c41.5,7.6,98.4,1.1,125.5-15.9
			c10.9-6.8,20.4-17.5,26.7-28.8c0.8,3-5.2,13.1-6.5,15.7c-8.8,17.3-35.5,25.5-56.6,31.3c-29.6,8.1-69.5,6.6-101.6,1.5l-59-6.8
			c-19.4-3.8-38.3-6.2-56.3-11.3c-13.7-3.9-26.5-8.3-39-13.1c-17.8-7-35.3-14.1-51.7-22.3l-15.6-7.7l6.6-4.4
			C150,721.7,159.4,729.1,168.6,734.5z M151.2,737.9c1.6,10.8-8.5,16.7-19.6,14c-7.5-1.8-13.3-5.9-16.5-12.1
			c-0.8-1.6-2.2-4.4-1.7-6.8l13.3-7.2L151.2,737.9z M158.9,741.5c-1.1,4.1-4.2,7.4-8.1,8.9c1.8-3.3,4-5.2,3.9-10.9L158.9,741.5z
			 M393,793.2c2.3,13.5-11.8,17.7-23.1,13.6c-5.2-1.8-9.5-5.4-12.4-10.1c-1-1.6-2.7-4.5-2.1-7.1L393,793.2z M401.5,793.6l0.1,0.2
			c-1.1,6.2-3.7,10.5-8.9,12.5c1.9-3.6,4.9-6.7,3.6-12.8L401.5,793.6z"/>
	</g>
</g>
</svg>
