<svg xmlns="http://www.w3.org/2000/svg" viewBox="0 0 52 51.71"><defs><style>.cls-1{fill:#011826;}.cls-2{fill:none;stroke:#011826;stroke-width:2px;}</style></defs><g id="Layer_2" data-name="Layer 2"><g id="ICONS"><path class="cls-1" d="M34.23,24.8H24.72V19.52c0-3.21.75-5.48,2.21-6.76a4.59,4.59,0,0,1,3.4-1.12h3.9a.78.78,0,0,0,0-1.55H30.49a6.26,6.26,0,0,0-4.56,1.47c-1.83,1.58-2.75,4.26-2.75,8V24.8H17.77a.78.78,0,0,0,0,1.55h5.41v14.5a.77.77,0,1,0,1.54,0V26.35h9.51a.78.78,0,0,0,0-1.55Z"/><ellipse class="cls-2" cx="26" cy="25.85" rx="25" ry="24.85"/></g></g></svg>