<svg xmlns="http://www.w3.org/2000/svg" xmlns:xlink="http://www.w3.org/1999/xlink" viewBox="0 0 273.7 549.7"><defs><style>.cls-1{isolation:isolate;}.cls-2{fill:#e04403;}.cls-15,.cls-3,.cls-4,.cls-5,.cls-7,.cls-8,.cls-9{mix-blend-mode:multiply;}.cls-3{fill:url(#linear-gradient);}.cls-4{fill:url(#linear-gradient-2);}.cls-5{fill:url(#linear-gradient-3);}.cls-6{fill:#4a8b2c;}.cls-7{fill:#7ac943;}.cls-11,.cls-7,.cls-8{opacity:0.5;}.cls-8{fill:url(#linear-gradient-4);}.cls-9{fill:#f2522e;}.cls-10,.cls-11{mix-blend-mode:overlay;}.cls-10{fill:url(#linear-gradient-5);}.cls-11{fill:url(#linear-gradient-6);}.cls-12{fill:#fff;}.cls-13{fill:#cecece;}.cls-14{fill:#050505;}.cls-15,.cls-16{fill:#bf2a2a;}.cls-16{stroke:#f2522e;stroke-miterlimit:10;}</style><linearGradient id="linear-gradient" x1="149.01" y1="489.37" x2="149.01" y2="158.3" gradientUnits="userSpaceOnUse"><stop offset="0.58" stop-color="#fff"/><stop offset="0.63" stop-color="#fef5f2"/><stop offset="0.71" stop-color="#fcd9d1"/><stop offset="0.82" stop-color="#f9ac9a"/><stop offset="0.94" stop-color="#f46e50"/><stop offset="1" stop-color="#f2522e"/></linearGradient><linearGradient id="linear-gradient-2" x1="52.88" y1="405.73" x2="52.88" y2="290.11" gradientUnits="userSpaceOnUse"><stop offset="0.47" stop-color="#fff"/><stop offset="0.51" stop-color="#fbf2f2"/><stop offset="0.58" stop-color="#f1d1d1"/><stop offset="0.68" stop-color="#e19a9a"/><stop offset="0.79" stop-color="#ca5050"/><stop offset="0.85" stop-color="#bf2a2a"/></linearGradient><linearGradient id="linear-gradient-3" x1="192.36" y1="489.37" x2="192.36" y2="161.41" xlink:href="#linear-gradient-2"/><linearGradient id="linear-gradient-4" x1="-127.69" y1="439.57" x2="-127.69" y2="419.55" gradientTransform="matrix(0.99, -0.16, 0.16, 0.99, 143.59, -274.42)" gradientUnits="userSpaceOnUse"><stop offset="0" stop-color="#fff"/><stop offset="1"/></linearGradient><linearGradient id="linear-gradient-5" x1="48.77" y1="364.47" x2="110.32" y2="289.81" gradientTransform="translate(-17.25 -109.83) rotate(-2.62)" gradientUnits="userSpaceOnUse"><stop offset="0.47" stop-color="#fff"/><stop offset="0.51" stop-color="#fef5f2"/><stop offset="0.58" stop-color="#fcd9d1"/><stop offset="0.68" stop-color="#f9ac9a"/><stop offset="0.8" stop-color="#f46e50"/><stop offset="0.85" stop-color="#f2522e"/></linearGradient><linearGradient id="linear-gradient-6" x1="128.35" y1="396.48" x2="196.65" y2="396.48" gradientTransform="matrix(1, 0, 0, 1, 0, 0)" xlink:href="#linear-gradient-5"/></defs><g class="cls-1"><g id="Layer_2" data-name="Layer 2"><g id="Layer_1-2" data-name="Layer 1"><path class="cls-2" d="M126,158.32S64.18,156,43.31,208.57s-5.42,66.49-7,79.64S24,328.41,41,362.43s33.24,43.3,33.24,43.3,13.14,22.42,17,30.15,16.24,20.87,27.06,24.74c0,0-2.32,34.79,22.42,27.83s10.83-21.64,27.84-36.33,61.07-43.3,73.44-102.06,13.15-61.85,19.33-77.32,9.28-69.58-5.41-87.36-41.75-24-41.75-24l-41.75.77Z"/><path class="cls-3" d="M126,158.32S64.18,156,43.31,208.57s-5.42,66.49-7,79.64S24,328.41,41,362.43s33.24,43.3,33.24,43.3,13.14,22.42,17,30.15,16.24,20.87,27.06,24.74c0,0-2.32,34.79,22.42,27.83s10.83-21.64,27.84-36.33,61.07-43.3,73.44-102.06,13.15-61.85,19.33-77.32,9.28-69.58-5.41-87.36-41.75-24-41.75-24l-41.75.77Z"/><path class="cls-4" d="M47.68,316.94c1.79-10.79-4.28-18.91-11.6-26.83C33.86,303.85,24.76,330,41,362.43c17,34,33.24,43.3,33.24,43.3S43.84,340.14,47.68,316.94Z"/><path class="cls-5" d="M255.92,185.38c-14.69-17.79-41.75-24-41.75-24l-19,.35c12.14,12,50.21,53.42,45,96.41-6.18,51-15.46,57.22-13.92,83.52S200,395.81,176.79,414.37s-22.64,44.55-58.49,46.25c0,0-2.32,34.79,22.42,27.83s10.83-21.64,27.84-36.33,61.07-43.3,73.44-102.06,13.15-61.85,19.33-77.32S270.61,203.16,255.92,185.38Z"/><path class="cls-6" d="M19.21,10.32S4.29,18,3.45,13c-.94-5.6-6.1-9.44-1.7-10.17L17.52.15S26.78-1.21,31.6,4.2s72.79,88.94,78.13,102.16,9.52,25.06,9.52,25.06,14.88,3.8,16.65,9.77a41.48,41.48,0,0,1,1.78,10.68l20.47,5.22s22.75-9.28,22.11-3.69-14.18,13.89-20.25,15-19.55,5-23.62,3.94-3.67,6.21-14.48,7.22-19.72-5.23-19.72-5.23-21.46,12.06-26.67,4.32-6.35-14.61-4.19-15.75,11.57,3.56,15.25,2.16,10.17-9.53,10.17-9.53L99.84,137S90.67,90.72,46.7,38.47C46.7,38.47,32.38,14.6,19.21,10.32Z"/><path class="cls-7" d="M19.21,10.32S4.29,18,3.45,13c-.94-5.6-6.1-9.44-1.7-10.17L17.52.15S26.78-1.21,31.6,4.2s72.79,88.94,78.13,102.16,9.52,25.06,9.52,25.06,14.88,3.8,16.65,9.77a41.48,41.48,0,0,1,1.78,10.68l20.47,5.22s22.75-9.28,22.11-3.69-14.18,13.89-20.25,15-19.55,5-23.62,3.94-3.67,6.21-14.48,7.22-19.72-5.23-19.72-5.23-21.46,12.06-26.67,4.32-6.35-14.61-4.19-15.75,11.57,3.56,15.25,2.16,10.17-9.53,10.17-9.53L99.84,137S90.67,90.72,46.7,38.47C46.7,38.47,32.38,14.6,19.21,10.32Z"/><path class="cls-8" d="M71.33,162.91c-2.16,1.14-1,8,4.19,15.75s26.67-4.32,26.67-4.32l1.5-14.2S84.73,187.07,71.33,162.91Z"/><path class="cls-7" d="M158.15,157.09l-20.47-5.22a41.48,41.48,0,0,0-1.78-10.68c-1.77-6-16.65-9.77-16.65-9.77s-4.18-11.84-9.52-25.06S36.41,9.61,31.6,4.2s-14.08-4-14.08-4L1.75,2.78c-4.4.73.76,4.57,1.7,10.17.84,5.08,15.76-2.63,15.76-2.63l.58.21.06,0c3,1.1,16.14,6.66,29.21,23.09,14.86,18.68,44,57,48.66,71.06s8.51,27.58,11.43,31,10.93,9.15,10.42,15.51c-.49,6.07-3.32,17.89,10.09,25.72,3.3-2.36,4-5.29,6.73-4.6,4.07,1,17.56-2.81,23.62-3.94s19.61-9.41,20.25-15S158.15,157.09,158.15,157.09Z"/><path class="cls-9" d="M147.25,168.08s27.67,23.18,29.74,53.07,9.27,13.91,7.21-5.41-6.76-24.94-6.18-38S154.62,149,147.25,168.08Z"/><path class="cls-10" d="M91.15,187.13s-34.89,21.62-40.6,45.92-3.77,16.48.92,20.13,7.58-10.92,18-25.85S96.57,192,113.83,186.09C113.83,186.09,116.22,166.59,91.15,187.13Z"/><path class="cls-11" d="M129.56,439.71c1.81-9.16,4.13-36.08,13.41-43.3s38.87-28.87,41.6-44.33,13-18.64,12-4.16-10.31,38.18-21.65,47.46S143,423.21,143,433.52,123.37,471.09,129.56,439.71Z"/><path class="cls-12" d="M128.35,276.82s-21.39,65.56,18.9,66,47.09-28.21,45.11-88.33C192.36,254.47,159.1,277.85,128.35,276.82Z"/><path class="cls-13" d="M192.36,254.47s-3.23,2.27-8.61,5.37c1.31,53.51-5.43,80.48-39.41,82.8.94.09,1.9.15,2.91.16C187.54,343.22,194.34,314.59,192.36,254.47Z"/><path class="cls-14" d="M128.35,276.82s47.42-16.06,72.75-45.36c0,0,6.81,7.22,4.75,15.47S151.88,282,128.35,276.82Z"/><path class="cls-12" d="M126.56,274.41S138,329,105.62,325.78,70.25,299,77.08,250.87C77.08,250.87,101.76,272.56,126.56,274.41Z"/><path class="cls-13" d="M126.56,274.41c-24.8-1.85-49.48-23.54-49.48-23.54q-.54,3.82-1,7.45c9.47,6.46,24.54,15,39.66,16.09,0,0,9.55,45.45-13.45,50.95q1.62.24,3.33.42C138,329,126.56,274.41,126.56,274.41Z"/><path class="cls-14" d="M126.56,274.41s-36.7-17-54.49-42.79c0,0-6.11,5.2-5.17,12S107.2,276.5,126.56,274.41Z"/><path class="cls-14" d="M173.89,290.22a6.7,6.7,0,1,1-6.7-6.7A6.7,6.7,0,0,1,173.89,290.22Z"/><path class="cls-14" d="M108.94,288.16a6.7,6.7,0,1,1-6.7-6.7A6.7,6.7,0,0,1,108.94,288.16Z"/><path class="cls-15" d="M80.46,355.17s32.92-17,66.79,8.25l10.42,9.28S124.41,352,95.54,361.32l5.76,15.5Z"/><path class="cls-14" d="M103,454.44l0,5.26,0,5.26c0,1.75,0,3.5.07,5.25s0,3.49.09,5.24.06,3.49.13,5.23l.16,5.23.2,5.21.25,5.19c.06,1.74.17,3.46.27,5.19s.17,3.45.31,5.16l.38,5.14c.17,1.7.4,3.4.63,5.1s.54,3.37.82,5,.56,3.34.87,5c.14.82.27,1.65.38,2.47l.16,1.23c0,.42.1.82.16,1.22.23,1.61.41,3.22.51,4.86l.4,6.52L104,544.77c-1.16.37-2.34.72-3.53,1.05s-2.38.65-3.57.95c-2.4.59-4.83,1.12-7.29,1.55-.61.12-1.23.23-1.85.32s-1.24.2-1.87.28l-1.88.25-1.89.2c-1.28.12-2.55.22-3.85.27-.65,0-1.3.05-2,.06s-1.32,0-2,0l-.54-1.34c.45-.5.94-.94,1.41-1.42l1.44-1.32c1-.86,2-1.67,3-2.47l1.51-1.17,1.52-1.13,1.54-1.09c.51-.37,1-.71,1.55-1.06,2.07-1.4,4.19-2.7,6.33-3.94,1.07-.61,2.14-1.21,3.23-1.79s2.17-1.16,3.27-1.7l-4.44,8.08c-.43-1.82-.77-3.66-1.07-5.5-.16-.93-.22-1.84-.29-2.76s-.12-1.83-.15-2.75-.07-1.85,0-2.75l.1-2.73c.07-1.82.15-3.64.28-5.43s.23-3.59.3-5.38l.32-5.35c.08-1.78.25-3.55.4-5.32s.29-3.54.5-5.3l.6-5.29.71-5.26c.23-1.75.51-3.5.78-5.24s.56-3.49.86-5.23.58-3.48.9-5.22.66-3.46,1-5.19.69-3.46,1.07-5.18.76-3.45,1.18-5.16Z"/><path class="cls-14" d="M171.18,454.27c.43,1.71.81,3.44,1.19,5.16s.73,3.45,1.07,5.18.68,3.46,1,5.19.62,3.48.91,5.22.59,3.48.85,5.23.55,3.49.79,5.24l.7,5.26.61,5.29c.2,1.76.34,3.53.5,5.3s.31,3.54.4,5.32l.32,5.35c.06,1.79.17,3.58.3,5.38s.2,3.61.27,5.43l.1,2.73c0,.9,0,1.83,0,2.75s-.09,1.83-.15,2.75a26.11,26.11,0,0,1-.29,2.76c-.29,1.84-.64,3.68-1.06,5.5l-4.45-8.08c1.1.54,2.19,1.11,3.28,1.7s2.16,1.18,3.23,1.79c2.14,1.24,4.25,2.54,6.32,3.94.52.35,1,.69,1.55,1.06l1.54,1.09,1.53,1.13,1.5,1.17c1,.8,2,1.61,3,2.47.49.43,1,.88,1.45,1.32s.95.92,1.41,1.42l-.54,1.34c-.68,0-1.33,0-2,0s-1.31,0-2-.06c-1.3,0-2.58-.15-3.85-.27l-1.9-.2-1.88-.25c-.62-.08-1.24-.19-1.86-.28s-1.24-.2-1.85-.32c-2.47-.43-4.89-1-7.29-1.55-1.2-.3-2.39-.61-3.58-.95s-2.36-.68-3.53-1.05l-4.84-1.56.39-6.52c.1-1.64.28-3.25.51-4.86.07-.4.13-.8.17-1.22l.16-1.23c.11-.82.23-1.65.38-2.47.3-1.63.58-3.3.86-5s.63-3.34.83-5,.46-3.4.62-5.1l.38-5.14c.15-1.71.2-3.44.32-5.16s.2-3.45.27-5.19l.24-5.19.2-5.21.16-5.23c.07-1.74.1-3.49.14-5.23s.06-3.49.08-5.24.06-3.5.08-5.25l0-5.26,0-5.26Z"/><path class="cls-14" d="M43.54,366.94l-.69.91c-.44.6-1.09,1.49-1.87,2.64s-1.71,2.57-2.71,4.21-2.07,3.54-3.13,5.63a60.94,60.94,0,0,0-3,6.83A44.38,44.38,0,0,0,30,394.88a28.51,28.51,0,0,0-.35,8A19.77,19.77,0,0,0,31.81,410l.44.81a7.43,7.43,0,0,0,.52.77,10.53,10.53,0,0,0,1.15,1.46l.62.68.31.35.36.31.71.63.35.3.17.16,0,0,0,0c.12.12-.13-.14-.09-.11l.12.1c1.22,1,2.45,2,3.62,3l.43.38.41.33c.28.21.54.43.8.64.53.43,1,.88,1.52,1.32l.72.68c.27.21.52.44.77.66.51.44,1,.9,1.46,1.36.25.22.48.45.71.69s.47.43.71.65c.47.43.93.87,1.38,1.3,1.81,1.73,3.56,3.28,5.2,4.74l2.41,2c.78.6,1.53,1.24,2.25,1.77s1.42,1.08,2.08,1.51c.33.22.65.47,1,.66l.9.58c.57.37,1.1.67,1.58.95s.89.5,1.22.67l.46.23.33.16.25.12.2,1.43-.33.18a9.24,9.24,0,0,1-.93.42,15.18,15.18,0,0,1-1.55.53c-.3.08-.63.15-1,.23s-.74.15-1.14.2a19.78,19.78,0,0,1-2.69.22c-.48,0-1,0-1.53,0s-1.06-.07-1.63-.11c-.28,0-.58,0-.86-.08l-.86-.14c-.59-.1-1.2-.19-1.82-.31-1.21-.29-2.5-.6-3.8-1-.64-.22-1.29-.46-2-.71a20.36,20.36,0,0,1-2-.83c-.65-.31-1.33-.62-2-1l-1-.51-1-.58c-.66-.38-1.32-.79-2-1.2-.33-.21-.67-.42-1-.64s-.64-.46-1-.7c-.63-.47-1.27-1-1.9-1.47-.31-.25-.63-.5-.94-.77l-.92-.86c-.6-.59-1.22-1.18-1.8-1.8-.3-.31-.6-.61-.89-.93l-.43-.47-.37-.45c-1-1.22-1.92-2.48-2.89-3.75l-.09-.12-.14-.16,0,0-.06-.07-.2-.3-.42-.61L25,422.42l-.41-.6-.37-.65-.72-1.29c-.5-.84-.88-1.78-1.3-2.68-.19-.46-.43-.89-.59-1.36l-.5-1.41a29.77,29.77,0,0,1-1.58-11.5,35,35,0,0,1,2.27-10.37,48.37,48.37,0,0,1,4.2-8.43,68.06,68.06,0,0,1,4.75-6.66c1.56-2,3.13-3.62,4.53-5.07s2.67-2.65,3.75-3.6,1.94-1.69,2.55-2.17l.93-.73Z"/><path class="cls-14" d="M237.81,365.76l.29.08.84.26c.72.23,1.77.61,3.1,1.13s2.91,1.19,4.7,2.07a62.67,62.67,0,0,1,5.9,3.24,61.42,61.42,0,0,1,6.57,4.74,46.73,46.73,0,0,1,6.54,6.63,36.92,36.92,0,0,1,5.32,8.93,34.21,34.21,0,0,1,2.53,10.84l.09,1.42c0,.47,0,.94,0,1.41v1.42c0,.48,0,.95-.06,1.42l-.1,1.4-.05.71v.22s-.09.41-.05.24V412l0,.3-.27,2.35c-.09.78-.19,1.55-.28,2.32a5.29,5.29,0,0,1-.1.62l-.13.65c-.1.43-.19.86-.28,1.29-.2.85-.4,1.7-.63,2.54l-.16.63-.21.59-.41,1.17a32.44,32.44,0,0,1-2,4.46c-.37.71-.78,1.39-1.16,2.08a10.23,10.23,0,0,1-.62,1l-.66,1c-.44.63-.88,1.25-1.32,1.85s-.95,1.15-1.42,1.71-.94,1.09-1.42,1.59-1,1-1.5,1.44a32.9,32.9,0,0,1-5.91,4.41c-1,.56-1.89,1-2.74,1.4l-1.28.52c-.41.16-.8.3-1.18.41a19.19,19.19,0,0,1-2,.54l-.84.16c-.26,0-.51.06-.72.08a9.38,9.38,0,0,1-1,.08h-.36l-.58-1.33.17-.24c.11-.18.29-.4.5-.73s.48-.71.78-1.18.62-1,1-1.57.72-1.25,1.13-1.93l1.23-2.25c.39-.85.89-1.62,1.28-2.55s.89-1.81,1.3-2.82c.22-.49.44-1,.67-1.47l.63-1.57c.22-.53.46-1.05.67-1.59s.41-1.12.63-1.68.47-1.1.65-1.7.4-1.18.63-1.76c.12-.29.23-.59.35-.88s.24-.59.34-.9c.2-.62.45-1.22.68-1.84l.39-.91.2-.46.17-.45c.22-.61.47-1.2.73-1.81l.4-.91.21-.45a3.42,3.42,0,0,0,.21-.5l.81-2.2c.27-.73.55-1.47.83-2.21l.1-.28,0-.07c0-.19-.05.22,0,.17v0l0-.11.14-.46.28-.92a12.53,12.53,0,0,0,.45-1.88,7.89,7.89,0,0,0,.17-.95l.09-1a25.12,25.12,0,0,0-.57-7.71,30.51,30.51,0,0,0-2.82-7.4,41.38,41.38,0,0,0-4.31-6.57,55.68,55.68,0,0,0-4.92-5.41c-1.65-1.59-3.23-3-4.7-4.2s-2.81-2.18-3.91-3-2-1.39-2.63-1.8l-.71-.45-.24-.15Z"/><path class="cls-16" d="M47,449.5s9.34-24.74,14.49-24.22S66.8,433,66.8,433s16.09-4.61,22.68-.5,0,14,0,14,6.48,7.16,2.92,11.79l-3.56,4.64s0,6.7-3.09,9.28-5.29,2.06-5.29,2.06-5.6,6.71-10.21,2.58-11.82-20.1-11.82-20.1S45.22,464.08,47,449.5Z"/><path class="cls-16" d="M70.17,444.35s14.55,1.85,12.49,7.37S70.17,444.35,70.17,444.35Z"/><path class="cls-16" d="M64.5,453.11S79.05,455,77,460.48,64.5,453.11,64.5,453.11Z"/><path class="cls-16" d="M266.49,446.41s-9.33-24.74-14.49-24.23-5.28,7.73-5.28,7.73-16.09-4.61-22.67-.5,0,14,0,14-6.48,7.15-2.92,11.79l3.56,4.64s0,6.7,3.09,9.28,5.28,2.06,5.28,2.06,5.61,6.7,10.22,2.58,11.82-20.1,11.82-20.1S268.31,461,266.49,446.41Z"/><path class="cls-16" d="M243.36,441.26s-14.55,1.84-12.49,7.36S243.36,441.26,243.36,441.26Z"/><path class="cls-16" d="M249,450s-14.55,1.85-12.49,7.36S249,450,249,450Z"/></g></g></g></svg>