<svg xmlns="http://www.w3.org/2000/svg" xmlns:xlink="http://www.w3.org/1999/xlink" viewBox="0 0 443.48 348.2"><defs><style>.cls-1{isolation:isolate;}.cls-2{fill:#e04403;}.cls-3,.cls-4,.cls-5,.cls-7,.cls-8{mix-blend-mode:multiply;}.cls-3{fill:url(#linear-gradient);}.cls-4{fill:url(#linear-gradient-2);}.cls-5{fill:url(#linear-gradient-3);}.cls-6{fill:#4a8b2c;}.cls-7{fill:#7ac943;}.cls-10,.cls-7{opacity:0.5;}.cls-8{fill:#f2522e;}.cls-10,.cls-9{mix-blend-mode:overlay;}.cls-9{fill:url(#linear-gradient-4);}.cls-10{fill:url(#linear-gradient-5);}.cls-11{fill:#fff;}.cls-12{fill:#cecece;}.cls-13{fill:#050505;}.cls-14,.cls-15{fill:#bf2a2a;}.cls-14{stroke:#f2522e;}.cls-14,.cls-16{stroke-miterlimit:10;}.cls-16{fill:none;stroke:#bf2a2a;stroke-width:7px;}</style><linearGradient id="linear-gradient" x1="-597.72" y1="-1868.96" x2="-597.72" y2="-2200.04" gradientTransform="translate(-1314.09 1693.26) rotate(62.74)" gradientUnits="userSpaceOnUse"><stop offset="0.58" stop-color="#fff"/><stop offset="0.63" stop-color="#fbf2f2"/><stop offset="0.71" stop-color="#f1d1d1"/><stop offset="0.81" stop-color="#e19a9a"/><stop offset="0.94" stop-color="#ca5050"/><stop offset="1" stop-color="#bf2a2a"/></linearGradient><linearGradient id="linear-gradient-2" x1="-693.85" y1="-1952.61" x2="-693.85" y2="-2068.23" gradientTransform="translate(-1314.09 1693.26) rotate(62.74)" gradientUnits="userSpaceOnUse"><stop offset="0.47" stop-color="#fff"/><stop offset="0.51" stop-color="#fbf2f2"/><stop offset="0.58" stop-color="#f1d1d1"/><stop offset="0.68" stop-color="#e19a9a"/><stop offset="0.79" stop-color="#ca5050"/><stop offset="0.85" stop-color="#bf2a2a"/></linearGradient><linearGradient id="linear-gradient-3" x1="-554.36" y1="-1868.96" x2="-554.36" y2="-2196.94" xlink:href="#linear-gradient-2"/><linearGradient id="linear-gradient-4" x1="-611.83" y1="-2068.79" x2="-550.27" y2="-2143.45" gradientTransform="matrix(0.5, 0.87, -0.87, 0.5, -1250.57, 1668.74)" gradientUnits="userSpaceOnUse"><stop offset="0.47" stop-color="#fff"/><stop offset="0.51" stop-color="#fef5f2"/><stop offset="0.58" stop-color="#fcd9d1"/><stop offset="0.68" stop-color="#f9ac9a"/><stop offset="0.8" stop-color="#f46e50"/><stop offset="0.85" stop-color="#f2522e"/></linearGradient><linearGradient id="linear-gradient-5" x1="-618.37" y1="-1961.85" x2="-550.08" y2="-1961.85" gradientTransform="translate(-1314.09 1693.26) rotate(62.74)" gradientUnits="userSpaceOnUse"><stop offset="0.47" stop-color="#fff"/><stop offset="0.51" stop-color="#fdf6f2"/><stop offset="0.57" stop-color="#f9ddd1"/><stop offset="0.65" stop-color="#f3b49a"/><stop offset="0.75" stop-color="#e97d50"/><stop offset="0.85" stop-color="#e04403"/></linearGradient></defs><g class="cls-1"><g id="Layer_2" data-name="Layer 2"><g id="Layer_1-2" data-name="Layer 1"><path class="cls-2" d="M357.23,133.91s-26.27-56-82.56-50.52-61.59,25.64-74,30.29-41.41,7.42-63.86,38.12-23.25,49.38-23.25,49.38-13.92,22-19,28.94-11.12,24-9.6,35.38c0,0-32,13.88-14.47,32.68s24.2-.29,45.05,8.1S182,340.74,239.91,324.83s61-16.65,77.58-18.24,66.1-23.62,75.18-44.82,2.18-48.1,2.18-48.1L375,176.92Z"/><path class="cls-3" d="M357.23,133.91s-26.27-56-82.56-50.52-61.59,25.64-74,30.29-41.41,7.42-63.86,38.12-23.25,49.38-23.25,49.38-13.92,22-19,28.94-11.12,24-9.6,35.38c0,0-32,13.88-14.47,32.68s24.2-.29,45.05,8.1S182,340.74,239.91,324.83s61-16.65,77.58-18.24,66.1-23.62,75.18-44.82,2.18-48.1,2.18-48.1L375,176.92Z"/><path class="cls-4" d="M180.34,136.92c10.41-3.36,14.84-12.47,18.54-22.61-13.24,4.33-40.63,8.2-62,37.49-22.44,30.7-23.25,49.38-23.25,49.38S158,144.13,180.34,136.92Z"/><path class="cls-5" d="M392.67,261.77c9.08-21.21,2.18-48.1,2.18-48.1l-9-16.7c-5.1,16.28-24.48,69.11-65.09,84.16C272.56,299,262.81,293.6,240.15,307s-60.16,1.43-87.28-10.69-50,.27-67.91-30.82c0,0-32,13.88-14.47,32.68s24.2-.29,45.05,8.1S182,340.74,239.91,324.83s61-16.65,77.58-18.24S383.59,283,392.67,261.77Z"/><path class="cls-6" d="M419.43,116.67l-21,16.73s.92,15.33-4.22,18.85a41.61,41.61,0,0,1-9.63,5l1.29,21.07s15.79,18.83,10.27,19.93-17.56-9.25-20.49-14.68-10.71-17.1-11-21.29-7-1.59-11.31-11.57-1-20.37-1-20.37-18-16.76-12.27-24.08,12-10.52,13.71-8.81.15,12.1,2.61,15.19,12.18,6.76,12.18,6.76l18.6-2.73s24.21-6.19,32.2-24.74-9.53-49.38-9.53-49.38L380.2,22H352.11s-5.15-9.45,1-12.55,20-9.45,20-9.45h10.44s51,44.4,50,67.08S440.41,99.94,419.43,116.67Z"/><path class="cls-7" d="M419.43,116.67l-21,16.73s.92,15.33-4.22,18.85a41.61,41.61,0,0,1-9.63,5l1.29,21.07s15.79,18.83,10.27,19.93-17.56-9.25-20.49-14.68-10.71-17.1-11-21.29-7-1.59-11.31-11.57-1-20.37-1-20.37-18-16.76-12.27-24.08,12-10.52,13.71-8.81.15,12.1,2.61,15.19,12.18,6.76,12.18,6.76l18.6-2.73s24.21-6.19,32.2-24.74-9.53-49.38-9.53-49.38L380.2,22H352.11s-5.15-9.45,1-12.55,20-9.45,20-9.45h10.44s51,44.4,50,67.08S440.41,99.94,419.43,116.67Z"/><path class="cls-8" d="M358.27,157.24s-7.92,35.22-33.56,50.74-8.11,14.62,8.12,3.94,19.08-17.43,31-22.91S378.58,155.07,358.27,157.24Z"/><path class="cls-9" d="M315.65,116.1S280.44,95,256.22,101s-16.37,4.2-17.47,10,13.18,1.74,31.23,4.18,43.78,7.91,57,20.52C327,135.78,345.38,129,315.65,116.1Z"/><path class="cls-10" d="M108.71,265.94c9-2.59,34-12.86,44.63-7.92s43.47,21.34,58.46,16.67,22.54,3.06,9.2,8.77-38.66,8.33-52.1,2.5S129.51,270.29,120.35,275,78,274.81,108.71,265.94Z"/><path class="cls-7" d="M352.35,130.3s-3.6-18.19-3.28-32.22a31.68,31.68,0,0,0-9,8.14C334.31,113.54,352.35,130.3,352.35,130.3Z"/><path class="cls-7" d="M433.56,67.08c1-22.68-50-67.08-50-67.08H373.12s-13.79,6.36-20,9.45-1,12.55-1,12.55H380.2l14.15,9.73c9.36,1.52,19.61,6.54,25.8,20,13.67,29.7.72,42.2,0,53.59S386.56,128,386.56,128s-3.56,12.37-10.24,16.49c-3.85,2.38-8.8,9.13-11.91,16.64a2.68,2.68,0,0,1,.3,1.13c.26,4.19,8,15.86,11,21.29s15,15.79,20.49,14.68-10.27-19.93-10.27-19.93l-1.29-21.07a41.61,41.61,0,0,0,9.63-5c5.14-3.52,4.22-18.85,4.22-18.85s9.83-7.87,21-16.76C440.41,99.91,432.53,89.76,433.56,67.08Z"/><path class="cls-11" d="M257,192.89s-36.34,58.61,2.7,68.58,52.43-16.23,64.78-75.1C324.44,186.37,286.58,201.19,257,192.89Z"/><path class="cls-12" d="M324.44,186.37s-3.67,1.43-9.63,3.17c-11.43,52.29-24.38,76.89-57.94,71.08.89.31,1.81.6,2.79.85C298.69,271.44,312.09,245.24,324.44,186.37Z"/><path class="cls-13" d="M257,192.89s49.87-4.35,81.43-26.8c0,0,4.91,8.63.95,16.15S278.6,203.48,257,192.89Z"/><path class="cls-13" d="M298,216.72a6.7,6.7,0,1,1-4.92-8.1A6.71,6.71,0,0,1,298,216.72Z"/><path class="cls-11" d="M244.27,208.58s1.64,55.71-29.7,46.84-30.07-32.61-14.83-78.77C199.74,176.65,220.19,202.36,244.27,208.58Z"/><path class="cls-12" d="M244.27,208.58c-24.08-6.22-44.53-31.93-44.53-31.93-.81,2.44-1.57,4.83-2.3,7.15,8.17,8,21.5,19.07,36.18,22.86,0,0,1.35,46.42-22.25,47.76,1,.35,2.09.69,3.2,1C245.91,264.29,244.27,208.58,244.27,208.58Z"/><path class="cls-13" d="M244.27,208.58s-33.1-23.27-46.06-51.77c0,0-6.93,4.05-7.21,10.91S224.85,207.21,244.27,208.58Z"/><path class="cls-13" d="M224.5,219a6.7,6.7,0,1,1-5.41-7.78A6.71,6.71,0,0,1,224.5,219Z"/><path class="cls-13" d="M130.87,307c-2.1,1.22-4.24,2.29-6.42,3.32s-4.38,2-6.61,2.91-4.48,1.78-6.76,2.58-4.57,1.55-6.89,2.26-4.65,1.36-7,2c-1.18.29-2.36.59-3.54.87l-3.56.79c-2.38.49-4.77,1-7.18,1.34l-1.81.31-1.81.25c-1.21.16-2.42.35-3.64.47l-3.65.39c-1.22.12-2.44.19-3.66.29-.61,0-1.22.09-1.84.12l-1.83.08c-1.23.05-2.46.13-3.69.14-2.46,0-4.92.09-7.39.09s-5-.05-7.43-.09c-1.24,0-2.48-.13-3.72-.19s-2.49-.14-3.72-.3-2.47-.31-3.7-.48-2.45-.44-3.67-.69c-.61-.12-1.22-.25-1.83-.4s-1.21-.27-1.81-.45c-1.19-.35-2.39-.69-3.58-1.07s-2.36-.79-3.52-1.23-2.33-.88-3.48-1.35l7.27-2.27L23.1,318c-.43.46-.89.9-1.34,1.35l-1.34,1.34c-.44.45-.91.88-1.36,1.32-.91.88-1.83,1.76-2.77,2.61s-1.88,1.71-2.84,2.56c-.47.43-1,.84-1.45,1.25s-1,.84-1.47,1.24c-1,.82-2,1.64-3,2.43-.5.4-1,.79-1.54,1.18s-1.05.78-1.57,1.16-1.06.77-1.61,1.13-1.09.74-1.66,1.09L0,335.77c.2-.64.44-1.25.66-1.87s.47-1.23.71-1.84.48-1.21.74-1.8.51-1.2.78-1.79c.53-1.18,1.08-2.34,1.63-3.5.28-.58.57-1.15.86-1.72s.56-1.15.86-1.71c.59-1.13,1.18-2.26,1.8-3.37s1.24-2.22,1.87-3.32c.32-.54.63-1.1,1-1.64l1-1.62c.33-.54.64-1.09,1-1.62l1-1.6,2-3.17,5.27.9c1.13.19,2.25.4,3.36.62s2.22.47,3.33.66,2.23.42,3.33.65,2.22.41,3.32.66l1.65.36c.55.13,1.1.26,1.66.36,1.1.23,2.21.47,3.31.74s2.21.48,3.32.74,2.21.51,3.33.73c2.24.43,4.48.9,6.74,1.21,1.14.16,2.27.35,3.41.46l3.42.32c1.14.11,2.28.15,3.43.23l1.72.1c.57,0,1.15,0,1.72.06l3.45.11,3.46,0c1.15,0,2.3,0,3.46-.05l1.74,0L82,314c2.31-.07,4.62-.23,7-.37l3.47-.29,3.47-.36c2.32-.26,4.64-.55,7-.9s4.61-.74,6.92-1.18l3.45-.68c1.15-.24,2.3-.49,3.44-.75,2.3-.52,4.57-1.12,6.85-1.73s4.54-1.31,6.75-2.07Z"/><path class="cls-13" d="M108.47,245.1A88,88,0,0,0,99.79,242a86.62,86.62,0,0,0-8.87-2.25A60.68,60.68,0,0,0,82,238.64a34.12,34.12,0,0,0-8.57.62c-.68.12-1.34.33-2,.51-.33.08-.64.21-1,.32s-.64.21-.94.35l-.9.4c-.3.13-.57.3-.86.45l-.43.22-.11.06h0l.18-.1-.06,0-.24.16-.24.17c-.08.05-.19.11-.16.12a.3.3,0,0,1,0,.1l-.13.17c-.05.08-.12.13-.17.22a4.52,4.52,0,0,0-.31.54c0,.1-.1.19-.15.3l-.13.34c-.1.21-.15.5-.24.74A16.19,16.19,0,0,0,65,248a43.42,43.42,0,0,0,.6,8.38c.43,2.88,1.05,5.78,1.76,8.68s1.52,5.81,2.4,8.71,1.82,5.78,2.87,8.64,2.17,5.7,3.35,8.52l3.56,8.44c1.18,2.82,2.32,5.65,3.41,8.51s2.11,5.72,3.12,8.6l3,8.66c.5,1.44,1,2.89,1.48,4.31s1,2.85,1.49,4.21l2.18,5.84-4.52,1.61-2.93,1c-1,.35-2,.67-3,1s-2,.65-3,1-2,.63-3,.93-2,.6-3,.89-2,.55-3,.83-2,.52-3.09.76l-1.56.34-1.57.32-.66-1.29c.38-.37.77-.74,1.17-1.09s.78-.73,1.18-1.08c.79-.7,1.6-1.39,2.4-2.07s1.62-1.36,2.44-2,1.64-1.32,2.47-2,1.65-1.29,2.49-1.91,1.67-1.25,2.51-1.86,1.68-1.23,2.53-1.82l2.55-1.79-2.33,7.45c-.94-1.39-1.83-2.75-2.68-4.13s-1.65-2.77-2.44-4.17c-1.55-2.79-3-5.6-4.42-8.47s-2.67-5.76-3.83-8.7-2.21-5.94-3.15-9-1.77-6.1-2.57-9.18S61.7,289,61,285.89c-1.48-6.2-2.91-12.42-3.88-18.82-.47-3.21-.85-6.45-1-9.76a52.4,52.4,0,0,1,.38-10.25,23.14,23.14,0,0,1,1.49-5.48c.22-.47.39-.93.67-1.41l.39-.7c.14-.23.3-.46.46-.69a11,11,0,0,1,1.07-1.34c.18-.22.42-.42.63-.63a8.12,8.12,0,0,1,.72-.61c.29-.22.59-.43.89-.62a1.88,1.88,0,0,1,.33-.19l.26-.13.26-.14.06,0,.25-.13,0,0,.16-.06.64-.25c.43-.16.85-.35,1.28-.48l1.29-.38c.43-.14.87-.22,1.3-.32s.87-.2,1.3-.26c.87-.13,1.73-.28,2.59-.33a40.26,40.26,0,0,1,10,.49,58.71,58.71,0,0,1,9.41,2.4,82.09,82.09,0,0,1,8.84,3.58,80.73,80.73,0,0,1,8.34,4.5Z"/><path class="cls-13" d="M141.09,170l-1.17.22c-.76.12-1.88.28-3.31.44s-3.17.31-5.18.39a67.27,67.27,0,0,1-6.81,0,66.55,66.55,0,0,1-8.12-.91,49.09,49.09,0,0,1-9.09-2.5,35.33,35.33,0,0,1-9.23-5.23,29.41,29.41,0,0,1-7.5-8.86L90,152.23c-.24-.44-.41-.9-.62-1.35a29.45,29.45,0,0,1-1.13-2.75l-.48-1.41-.23-.7-.18-.71L87,143.9l-.17-.71-.09-.36,0-.09v0c0,.13,0-.24,0-.21l0-.15c-.29-1.56-.61-3.12-.86-4.65l-.08-.58-.07-.63c0-.43-.07-.86-.1-1.29-.07-.85-.1-1.7-.14-2.54l0-1.25c0-.41,0-.82.06-1.22,0-.81.11-1.61.18-2.4,0-.39.07-.79.11-1.17s.13-.79.19-1.17c.14-.78.28-1.54.43-2.29.07-.37.15-.74.23-1.11s.2-.73.29-1.1c.2-.72.41-1.43.62-2.13s.45-1.37.71-2,.52-1.3.77-1.93c.56-1.25,1.19-2.42,1.77-3.51.33-.55.67-1.06,1-1.56l.48-.74c.16-.24.35-.47.51-.69.35-.45.68-.89,1-1.29s.7-.78,1-1.14a20.58,20.58,0,0,1,2-1.85,9.54,9.54,0,0,1,.91-.72c.3-.21.57-.41.84-.58a12.43,12.43,0,0,1,1.42-.8,9.6,9.6,0,0,1,.93-.42l.36-.13.93,1.11s0,.07-.07.27-.07.21-.11.35-.08.31-.13.5c-.1.36-.2.84-.32,1.35s-.24,1.13-.35,1.81c0,.35-.1.7-.17,1.06s-.09.76-.14,1.16c-.13.77-.18,1.65-.27,2.55s-.11,1.88-.19,2.86-.06,2-.09,3.15c0,2.19,0,4.53,0,7,0,.63,0,1.27,0,1.9,0,.32,0,.64,0,1s0,.66,0,1c0,.66,0,1.33,0,2,0,.33,0,.67,0,1s0,.66,0,1c0,.67,0,1.33,0,2,0,.34,0,.68-.06,1,0,.18,0,.34,0,.53v.58c0,1.55-.09,3.13-.15,4.72l-.42.15c0,.05-.43-.3-.43-.14v.32l.41.47.2.94.11.48.1.46.12.92a10,10,0,0,0,.33,1.83,7.13,7.13,0,0,0,.23.91l.31.86a20,20,0,0,0,3.93,6.4,28.61,28.61,0,0,0,6.16,5,44.82,44.82,0,0,0,7.17,3.58,61.58,61.58,0,0,0,7.09,2.33c2.26.6,4.37,1.07,6.27,1.42s3.56.61,4.95.8,2.47.29,3.22.37l1.13.09Z"/><path class="cls-14" d="M81.85,110.84s24.65,9.57,27.71,5.39-2.23-9.09-2.23-9.09,14.18-8.9,15.51-16.55-10.4-9.32-10.4-9.32-1-9.61-6.82-10l-5.84-.45s-5-4.47-9-3.89-5.06,2.56-5.06,2.56S77,69.14,77,75.32s7.08,22.22,7.08,22.22S69.79,102.47,81.85,110.84Z"/><path class="cls-14" d="M101.13,97.06S109.47,85,104,82.84,101.13,97.06,101.13,97.06Z"/><path class="cls-14" d="M90.82,95.43s8.34-12.06,2.86-14.21S90.82,95.43,90.82,95.43Z"/><path class="cls-13" d="M332.89,291l1.9.64c1.24.4,3.07,1,5.41,1.72s5.17,1.56,8.44,2.49,7,1.9,11,2.92,8.44,2,13.1,2.92,9.58,1.77,14.66,2.38a133.27,133.27,0,0,0,15.56,1.1,64.53,64.53,0,0,0,15.26-1.52,27.3,27.3,0,0,0,6.55-2.48l.71-.41.05,0-.15.08.11-.07.22-.14.44-.28.44-.28c.09-.07.13-.12.2-.18s.25-.2.39-.34a5.85,5.85,0,0,0,1.33-1.66,3.92,3.92,0,0,0,.45-1.5,7.13,7.13,0,0,0-.05-1.82,20.33,20.33,0,0,0-1.58-5.12c-.38-.94-.88-1.9-1.35-2.87s-1-1.94-1.59-2.9c-1.12-1.93-2.31-3.85-3.55-5.72s-2.49-3.7-3.77-5.43-2.52-3.45-3.73-5.1c-4.92-6.52-9.25-12-12.22-16-1.49-2-2.67-3.55-3.45-4.65s-1.21-1.68-1.21-1.68l.89-1.13s.69.27,1.93.84,3,1.46,5.24,2.69,4.84,2.8,7.75,4.78a108.3,108.3,0,0,1,9.46,7.14c1.68,1.4,3.36,2.94,5.09,4.58s3.44,3.43,5.14,5.38a64.17,64.17,0,0,1,5,6.39,43.65,43.65,0,0,1,4.28,7.86,28.21,28.21,0,0,1,2.26,10.31,19.28,19.28,0,0,1-.94,6.24,17.84,17.84,0,0,1-3.18,5.82,19.46,19.46,0,0,1-4.62,4.07c-.41.28-.9.54-1.35.81l-.67.37-.48.22-1.17.55-1.18.48a46.79,46.79,0,0,1-9.43,2.48,72.24,72.24,0,0,1-18,.29,127.27,127.27,0,0,1-16.54-2.81c-5.24-1.24-10.22-2.65-14.87-4.15s-9-3.05-13-4.56-7.55-3-10.71-4.36-5.88-2.59-8.11-3.64-4-1.9-5.15-2.5l-1.81-.92Z"/><path class="cls-14" d="M397.36,206.44s-8.65-5.79-8.13-2.18,4.28,18.55,2.91,24.22-2.75,6.19-7.73,2.58-7.28-14.24-11.29-11.25-.9,15.37,3.74,20.53a104.7,104.7,0,0,0,7.55,7.73s5,9.9,7.73,8.62a6.08,6.08,0,0,1,5.22.11s-6.59,5.19-2.46,9.31,28.35-15.36,26.28-21.59-9.79-3.15-9.79-3.15S415.81,210.17,397.36,206.44Z"/><path class="cls-15" d="M219.36,268.26s68.15,37.11,114.88-23c0,0-7.85,35.48-15.82,45.3S260,314.43,219.36,268.26Z"/><path class="cls-11" d="M234.83,274.75s52.55,24.25,88.58-15.06c0,0-6,23.19-12.19,29.6S266.16,304.93,234.83,274.75Z"/><polyline class="cls-16" points="246.51 277.21 250.26 286.37 256.96 280.99 261.72 291.64 272.72 282.13 279.12 295.51 291.51 279.49 300.85 294.04 307.04 270.9"/></g></g></g></svg>