<svg xmlns="http://www.w3.org/2000/svg" xmlns:xlink="http://www.w3.org/1999/xlink" viewBox="0 0 328.43 562.79"><defs><style>.cls-1{fill:none;}.cls-2{isolation:isolate;}.cls-3{fill:#e04403;}.cls-4,.cls-5,.cls-6,.cls-8,.cls-9{mix-blend-mode:multiply;}.cls-4{fill:url(#linear-gradient);}.cls-5{fill:url(#linear-gradient-2);}.cls-6{fill:url(#linear-gradient-3);}.cls-7{fill:#4a8b2c;}.cls-8{fill:#7ac943;}.cls-11,.cls-8{opacity:0.5;}.cls-9{fill:#f2522e;}.cls-10,.cls-11{mix-blend-mode:overlay;}.cls-10{fill:url(#linear-gradient-4);}.cls-11{fill:url(#linear-gradient-5);}.cls-12{fill:#fff;}.cls-13{fill:#cecece;}.cls-14{fill:#050505;}.cls-15,.cls-17{fill:#bf2a2a;}.cls-16{clip-path:url(#clip-path);}.cls-17{stroke:#f2522e;stroke-miterlimit:10;}</style><linearGradient id="linear-gradient" x1="172.88" y1="521.72" x2="172.88" y2="190.65" gradientUnits="userSpaceOnUse"><stop offset="0.58" stop-color="#fff"/><stop offset="0.63" stop-color="#fef5f2"/><stop offset="0.71" stop-color="#fcd9d1"/><stop offset="0.82" stop-color="#f9ac9a"/><stop offset="0.94" stop-color="#f46e50"/><stop offset="1" stop-color="#f2522e"/></linearGradient><linearGradient id="linear-gradient-2" x1="76.75" y1="438.07" x2="76.75" y2="322.45" gradientUnits="userSpaceOnUse"><stop offset="0.47" stop-color="#fff"/><stop offset="0.51" stop-color="#fbf2f2"/><stop offset="0.58" stop-color="#f1d1d1"/><stop offset="0.68" stop-color="#e19a9a"/><stop offset="0.79" stop-color="#ca5050"/><stop offset="0.85" stop-color="#bf2a2a"/></linearGradient><linearGradient id="linear-gradient-3" x1="216.24" y1="521.72" x2="216.24" y2="193.76" xlink:href="#linear-gradient-2"/><linearGradient id="linear-gradient-4" x1="72.28" y1="377.66" x2="133.82" y2="303" gradientTransform="translate(-17.46 -89.59) rotate(-2.62)" gradientUnits="userSpaceOnUse"><stop offset="0.47" stop-color="#fff"/><stop offset="0.51" stop-color="#fef5f2"/><stop offset="0.58" stop-color="#fcd9d1"/><stop offset="0.68" stop-color="#f9ac9a"/><stop offset="0.8" stop-color="#f46e50"/><stop offset="0.85" stop-color="#f2522e"/></linearGradient><linearGradient id="linear-gradient-5" x1="152.23" y1="428.83" x2="220.52" y2="428.83" gradientTransform="matrix(1, 0, 0, 1, 0, 0)" xlink:href="#linear-gradient-4"/><clipPath id="clip-path"><path class="cls-1" d="M107.37,388.47s45.51,46.62,101.54,2.69c0,0,34.91,61.7-60.95,53.65C73.71,438.57,107.37,388.47,107.37,388.47Z"/></clipPath></defs><g class="cls-2"><g id="Layer_2" data-name="Layer 2"><g id="Layer_1-2" data-name="Layer 1"><path class="cls-3" d="M149.9,190.66s-61.85-2.32-82.72,50.26-5.41,66.49-7,79.63-12.37,40.21,4.64,74.23S98.1,438.07,98.1,438.07s13.15,22.42,17,30.16S131.35,489.1,142.17,493c0,0-2.32,34.79,22.43,27.83s10.82-21.65,27.83-36.34,61.08-43.29,73.45-102,13.14-61.86,19.33-77.32,9.28-69.58-5.41-87.37-41.76-24-41.76-24l-41.75.77Z"/><path class="cls-4" d="M149.9,190.66s-61.85-2.32-82.72,50.26-5.41,66.49-7,79.63-12.37,40.21,4.64,74.23S98.1,438.07,98.1,438.07s13.15,22.42,17,30.16S131.35,489.1,142.17,493c0,0-2.32,34.79,22.43,27.83s10.82-21.65,27.83-36.34,61.08-43.29,73.45-102,13.14-61.86,19.33-77.32,9.28-69.58-5.41-87.37-41.76-24-41.76-24l-41.75.77Z"/><path class="cls-5" d="M71.56,349.29c1.78-10.79-4.29-18.91-11.61-26.84-2.21,13.75-11.32,39.87,4.91,72.33,17,34,33.24,43.29,33.24,43.29S67.72,372.48,71.56,349.29Z"/><path class="cls-6" d="M279.8,217.72c-14.69-17.78-41.76-24-41.76-24l-19,.35c12.13,12,50.21,53.42,45,96.41-6.18,51-15.46,57.22-13.91,83.51s-26.3,54.13-49.49,72.69S178,491.27,142.17,493c0,0-2.32,34.79,22.43,27.83s10.82-21.65,27.83-36.34,61.08-43.29,73.45-102,13.14-61.86,19.33-77.32S294.49,235.51,279.8,217.72Z"/><path class="cls-7" d="M130,13.05s-16.64,2.25-15.73-2.83c1-5.58-2.57-10.93,1.82-10.14L131.82,2.9s9.18,1.82,11.9,8.54S182.43,119.66,183,133.9s.55,26.81.55,26.81,12.74,8.57,12.41,14.79a41.66,41.66,0,0,1-1.92,10.65l17.53,11.79s24.54-1.1,22.07,4-18,8.31-24.12,7.34S189.45,207.35,186,205s-5.54,4.62-16.06,2-16.82-11.55-16.82-11.55-24.27,4.14-26.58-4.9-1.07-15.88,1.35-16.24,9.69,7.24,13.64,7.16,12.78-5.56,12.78-5.56l9.13-16.42s6.9-46.68-17-110.66C146.44,48.79,141,21.5,130,13.05Z"/><path class="cls-8" d="M130,13.05s-16.64,2.25-15.73-2.83c1-5.58-2.57-10.93,1.82-10.14L131.82,2.9s9.18,1.82,11.9,8.54S182.43,119.66,183,133.9s.55,26.81.55,26.81,12.74,8.57,12.41,14.79a41.66,41.66,0,0,1-1.92,10.65l17.53,11.79s24.54-1.1,22.07,4-18,8.31-24.12,7.34S189.45,207.35,186,205s-5.54,4.62-16.06,2-16.82-11.55-16.82-11.55-24.27,4.14-26.58-4.9-1.07-15.88,1.35-16.24,9.69,7.24,13.64,7.16,12.78-5.56,12.78-5.56l9.13-16.42s6.9-46.68-17-110.66C146.44,48.79,141,21.5,130,13.05Z"/><path class="cls-8" d="M127.86,174.27c-2.42.36-3.65,7.21-1.35,16.24s26.58,4.9,26.58,4.9l6.18-12.88S132.37,201.53,127.86,174.27Z"/><path class="cls-8" d="M211.59,197.94l-17.53-11.79A41.66,41.66,0,0,0,196,175.5c.33-6.22-12.41-14.79-12.41-14.79s0-12.57-.55-26.81S146.44,18.15,143.72,11.44s-11.9-8.54-11.9-8.54L116.09.08c-4.39-.79-.82,4.56-1.82,10.14C113.36,15.3,130,13.05,130,13.05l.48.38,0,0c2.45,2,13,11.7,19.76,31.56,7.73,22.59,22.29,68.41,22,83.28s-1.25,28.84.35,33.05,7.22,12.29,4.61,18.11c-2.5,5.55-9.13,15.73.86,27.62C182,206,183.67,203.46,186,205c3.48,2.34,17.48,3.25,23.57,4.23s21.64-2.29,24.12-7.34S211.59,197.94,211.59,197.94Z"/><path class="cls-9" d="M171.12,200.43s27.68,23.17,29.74,53.07,9.28,13.91,7.22-5.42-6.76-24.94-6.19-38S178.49,181.38,171.12,200.43Z"/><path class="cls-10" d="M115,219.47S80.14,241.1,74.42,265.4s-3.77,16.48.92,20.13,7.59-10.92,18-25.85,27.09-35.3,44.34-41.25C137.7,218.43,140.1,198.94,115,219.47Z"/><path class="cls-11" d="M153.44,472.06c1.8-9.16,4.12-36.09,13.4-43.3s38.88-28.87,41.6-44.33,13-18.64,12-4.17-10.31,38.19-21.65,47.47-32,27.83-32,38.14S147.24,503.44,153.44,472.06Z"/><path class="cls-12" d="M152.23,331.85s-21.4,65.56,18.89,66,47.09-28.21,45.12-88.33C216.24,309.5,183,332.88,152.23,331.85Z"/><path class="cls-13" d="M216.24,309.5s-3.24,2.27-8.61,5.36c1.3,53.51-5.44,80.48-39.41,82.81.93.09,1.89.15,2.9.16C211.41,398.25,218.21,369.62,216.24,309.5Z"/><path class="cls-14" d="M152.23,331.85s47.41-16.06,72.74-45.36c0,0,6.82,7.21,4.75,15.46S175.76,337,152.23,331.85Z"/><path class="cls-14" d="M197.77,345.25a6.71,6.71,0,1,1-6.7-6.7A6.7,6.7,0,0,1,197.77,345.25Z"/><path class="cls-12" d="M150.43,332.53s11.47,54.54-20.93,51.37S94.12,357.12,101,309C101,309,125.64,330.68,150.43,332.53Z"/><path class="cls-13" d="M150.43,332.53C125.64,330.68,101,309,101,309q-.55,3.83-1,7.45c9.46,6.46,24.53,15,39.65,16.09,0,0,9.55,45.45-13.44,51q1.6.24,3.33.42C161.9,387.07,150.43,332.53,150.43,332.53Z"/><path class="cls-14" d="M150.43,332.53s-36.69-17-54.49-42.79c0,0-6.1,5.2-5.17,12S131.08,334.62,150.43,332.53Z"/><path class="cls-14" d="M132.82,346.28a6.7,6.7,0,1,1-6.7-6.7A6.7,6.7,0,0,1,132.82,346.28Z"/><path class="cls-14" d="M83.36,415.6a49.24,49.24,0,0,0-4.64,4.16c-1.46,1.48-2.85,3-4.14,4.62a55.29,55.29,0,0,0-3.56,5,48.65,48.65,0,0,0-2.92,5.28,41.6,41.6,0,0,0-3.47,11.2,39,39,0,0,0-.08,11.42c.12.94.29,1.88.46,2.81s.4,1.86.67,2.78a49,49,0,0,0,1.81,5.45c.33.89.74,1.77,1.12,2.65s.82,1.75,1.28,2.61l.69,1.28c.24.43.5.84.75,1.26.48.84,1,1.65,1.58,2.47s1.13,1.61,1.7,2.4l1.81,2.34c1.23,1.54,2.51,3.05,3.78,4.57.66.75,1.26,1.52,1.91,2.28l1,1.14c.32.39.62.78,1,1.15.65.77,1.26,1.55,1.9,2.33s1.27,1.55,1.88,2.35l5.11,6.69-6,4c-1,.68-2.06,1.33-3.11,2s-2.12,1.25-3.18,1.88L79,512.6c-.54.29-1.07.6-1.63.88l-1.65.86c-.55.29-1.12.55-1.68.83s-1.12.55-1.7.81-1.14.53-1.72.78l-1.74.75-1.77.71c-1.19.45-2.39.9-3.63,1.3-.61.21-1.24.4-1.87.59s-1.26.36-1.93.5l-.88-1.14c.3-.61.65-1.16,1-1.74s.68-1.12,1-1.67c.7-1.09,1.44-2.14,2.18-3.18l1.13-1.54,1.16-1.5c.39-.5.79-1,1.18-1.47s.8-1,1.21-1.44.81-.95,1.22-1.41l1.25-1.39c.41-.47.85-.91,1.27-1.36l1.28-1.34c.87-.87,1.73-1.76,2.62-2.61S77,497.12,78,496.3L77,507c-.8-.78-1.57-1.59-2.34-2.39s-1.5-1.67-2.23-2.52a61.29,61.29,0,0,1-4-5.4c-.64-.93-1.22-1.92-1.82-2.88s-1.13-2-1.69-3-1.06-2-1.58-3l-.73-1.56c-.26-.51-.51-1-.73-1.55-.47-1.05-.94-2.09-1.37-3.16s-.87-2.13-1.29-3.21c-.21-.53-.4-1.08-.59-1.62L58,475.05c-.34-1.11-.71-2.2-1-3.33a52.24,52.24,0,0,1-1.44-6.84,48.21,48.21,0,0,1-.55-7,49.88,49.88,0,0,1,.48-7,43.9,43.9,0,0,1,1.55-6.81,45.87,45.87,0,0,1,6-12.31,52.43,52.43,0,0,1,4.12-5.3,57.63,57.63,0,0,1,4.71-4.67,55.55,55.55,0,0,1,5.15-4,46.37,46.37,0,0,1,5.6-3.36Z"/><path class="cls-14" d="M217.9,457.75a46,46,0,0,1,5.75,3.1,54.93,54.93,0,0,1,5.34,3.79,55.69,55.69,0,0,1,4.92,4.44,50.83,50.83,0,0,1,4.37,5.1,46.13,46.13,0,0,1,6.54,12,44.1,44.1,0,0,1,1.87,6.73,48.35,48.35,0,0,1,.6,14,55.26,55.26,0,0,1-1.12,6.91c-.23,1.14-.55,2.25-.84,3.37l-.49,1.66c-.17.56-.33,1.11-.52,1.65-.37,1.1-.73,2.19-1.13,3.26s-.8,2.16-1.22,3.23c-.2.54-.43,1.06-.66,1.59l-.66,1.58c-.47,1-.94,2.09-1.43,3.12s-1,2-1.54,3.05-1.09,2-1.68,2.95a61.68,61.68,0,0,1-3.8,5.59c-.68.89-1.38,1.77-2.1,2.62s-1.47,1.68-2.23,2.5l-1.43-10.64c.95.78,1.89,1.58,2.81,2.39s1.83,1.66,2.74,2.49l1.34,1.28c.45.43.9.85,1.33,1.3l1.32,1.32c.44.44.86.91,1.29,1.36s.85.91,1.27,1.38.84.93,1.25,1.41l1.23,1.44,1.2,1.48c.79,1,1.58,2,2.33,3.08l1.11,1.62c.35.56.72,1.1,1.05,1.69l-.83,1.18c-.67-.11-1.3-.27-1.95-.41s-1.27-.32-1.9-.49c-1.25-.35-2.47-.73-3.68-1.13l-1.8-.63-1.78-.67c-.59-.22-1.17-.46-1.75-.69s-1.16-.48-1.73-.73-1.16-.48-1.72-.75l-1.69-.78c-.57-.25-1.12-.54-1.68-.81l-1.66-.82c-1.09-.58-2.19-1.14-3.27-1.73s-2.15-1.2-3.2-1.83l-6.21-3.71,4.78-6.92c.58-.83,1.18-1.64,1.78-2.45s1.17-1.62,1.78-2.41c.31-.39.6-.79.89-1.2l.91-1.18c.61-.79,1.18-1.59,1.8-2.37,1.19-1.58,2.4-3.14,3.56-4.74l1.7-2.42c.53-.82,1.09-1.64,1.58-2.48s1-1.68,1.47-2.54c.22-.43.46-.86.68-1.3l.63-1.31c.42-.88.77-1.77,1.15-2.66s.71-1.8,1-2.71a48.83,48.83,0,0,0,1.55-5.53c.22-.93.37-1.86.53-2.8s.26-1.89.33-2.83a39.06,39.06,0,0,0-.62-11.4,40.74,40.74,0,0,0-4-11,50,50,0,0,0-3.16-5.14,52.78,52.78,0,0,0-3.8-4.81,60.41,60.41,0,0,0-4.35-4.42,48.76,48.76,0,0,0-4.83-3.93Z"/><path class="cls-15" d="M107.37,388.47s45.51,46.62,101.54,2.69c0,0,34.91,61.7-60.95,53.65C73.71,438.57,107.37,388.47,107.37,388.47Z"/><g class="cls-16"><polygon class="cls-12" points="111.19 388.47 117.92 417 132.41 398.06 136 424.55 151.34 402.51 157.44 427.24 166.82 406.39 176.85 427.24 182.64 405.97 196.6 423.2 201.86 394.4 111.19 388.47"/><path class="cls-12" d="M99.29,425.44l8.08-10.77,7.52,21.7,10.42-10.85,7.54,20L148,427.24l9.48,22.45,9.38-22.45L176,445.53l9.66-17.14,13.61,10.81,9.43-22.2,12.08,21.91s-42,25.14-76.64,18.41S99.29,425.44,99.29,425.44Z"/></g><path class="cls-14" d="M264,381.21l1.14-.1c.74-.07,1.84-.18,3.22-.37s3.05-.44,4.95-.79,4-.83,6.27-1.43a61.45,61.45,0,0,0,7.08-2.33,45.61,45.61,0,0,0,7.17-3.57,28.65,28.65,0,0,0,6.16-5.05,20.06,20.06,0,0,0,3.93-6.39l.31-.87a6.57,6.57,0,0,0,.22-.9,10.15,10.15,0,0,0,.32-1.83l.09-.93.05-.46v-.47l.14-1,.16-.46V354c0-.16-.17.19-.17.14l-.09-.15c-.06-1.59-.17-3.17-.19-4.73l0-.58c0-.19,0-.35-.05-.52,0-.34,0-.68-.05-1,0-.68,0-1.35,0-2,0-.34,0-.67,0-1s0-.67,0-1c0-.67,0-1.34,0-2,0-.33,0-.65,0-1s0-.64,0-1c0-.64,0-1.27.05-1.9.07-2.5.07-4.84.05-7q0-1.65-.09-3.15c-.08-1-.1-2-.19-2.86s-.14-1.77-.26-2.55c-.06-.39-.08-.8-.15-1.16s-.12-.71-.17-1.05c-.1-.68-.24-1.27-.34-1.82s-.22-1-.32-1.35c-.05-.19-.1-.35-.14-.5s-.07-.25-.1-.34-.07-.27-.08-.28l.93-1.1.36.13a7.46,7.46,0,0,1,.93.41,11.67,11.67,0,0,1,1.43.8c.26.17.53.37.83.59a11.27,11.27,0,0,1,.91.71,20.58,20.58,0,0,1,2,1.85c.33.36.7.74,1,1.14s.66.84,1,1.29c.17.23.36.46.52.69s.31.49.47.74c.32.5.66,1,1,1.56.59,1.09,1.22,2.26,1.77,3.51.26.63.52,1.27.77,1.93s.52,1.35.72,2,.41,1.4.61,2.13l.3,1.09c.07.37.15.74.22,1.12.15.74.3,1.51.43,2.28.07.39.14.78.19,1.17s.09.78.12,1.17c.07.79.13,1.59.17,2.4,0,.4.05.81.06,1.22s0,.83,0,1.26c0,.84-.07,1.69-.15,2.54,0,.42-.05.85-.1,1.28l-.06.64-.09.57c-.25,1.54-.56,3.09-.86,4.65l0,.15s0,.35,0,.21v.05l0,.08-.08.36-.18.71-.35,1.42-.18.7-.24.71-.48,1.4a29.36,29.36,0,0,1-1.12,2.75c-.22.45-.38.92-.63,1.36l-.71,1.31a29.67,29.67,0,0,1-7.51,8.85,35.5,35.5,0,0,1-9.23,5.24,48.94,48.94,0,0,1-9.08,2.49,69.1,69.1,0,0,1-8.13.92c-2.51.14-4.79.08-6.8,0s-3.76-.22-5.19-.39-2.55-.32-3.31-.45l-1.17-.21Z"/><path class="cls-17" d="M323.09,323.49s-24.65,9.57-27.71,5.38,2.23-9.09,2.23-9.09-14.17-8.9-15.51-16.55,10.4-9.32,10.4-9.32,1-9.6,6.83-10.05l5.83-.45s5-4.47,9-3.89,5.07,2.56,5.07,2.56,8.73-.3,8.73,5.88-7.07,22.22-7.07,22.22S335.15,315.11,323.09,323.49Z"/><path class="cls-17" d="M303.81,309.71s-8.34-12.07-2.85-14.22S303.81,309.71,303.81,309.71Z"/><path class="cls-17" d="M314.12,308.08s-8.34-12.07-2.85-14.22S314.12,308.08,314.12,308.08Z"/><path class="cls-14" d="M64.58,382.65l-1.17.21c-.76.13-1.88.28-3.31.45s-3.17.31-5.18.39-4.3.13-6.81,0a69.1,69.1,0,0,1-8.13-.92,49.15,49.15,0,0,1-9.08-2.49A35.5,35.5,0,0,1,21.67,375a29.67,29.67,0,0,1-7.51-8.85l-.71-1.31c-.25-.44-.41-.91-.63-1.36a29.36,29.36,0,0,1-1.12-2.75l-.48-1.4-.24-.71-.18-.7-.35-1.42-.18-.71-.08-.36,0-.08v-.05c0,.14,0-.24,0-.21l0-.15c-.3-1.56-.61-3.11-.86-4.65l-.09-.57-.06-.64c-.05-.43-.07-.86-.1-1.28-.07-.85-.1-1.7-.14-2.54l0-1.26c0-.41,0-.82.06-1.22,0-.81.1-1.61.17-2.4q0-.59.12-1.17c.06-.39.13-.78.19-1.17.13-.77.28-1.54.43-2.28l.22-1.12.3-1.09c.2-.73.41-1.44.62-2.13a20.49,20.49,0,0,1,.71-2c.25-.66.51-1.3.77-1.93.55-1.25,1.18-2.42,1.77-3.51.32-.54.67-1.06,1-1.56.16-.25.32-.49.47-.74s.35-.46.52-.69c.35-.45.67-.88,1-1.29s.7-.78,1-1.14a20.58,20.58,0,0,1,2-1.85,11.27,11.27,0,0,1,.91-.71c.3-.22.57-.42.84-.59a12.43,12.43,0,0,1,1.42-.8,9,9,0,0,1,.93-.41l.36-.13.93,1.1s0,.07-.08.28-.06.21-.1.34-.08.31-.14.5c-.09.36-.19.84-.32,1.35s-.23,1.14-.34,1.82c-.05.34-.1.69-.17,1.05s-.09.77-.14,1.16c-.13.78-.18,1.66-.27,2.55s-.11,1.88-.19,2.86-.06,2.05-.09,3.15c0,2.2,0,4.54,0,7,0,.63,0,1.26.05,1.9,0,.32,0,.63,0,1s0,.65.05,1c0,.66,0,1.33,0,2,0,.34,0,.67,0,1s0,.66,0,1c0,.66,0,1.33,0,2,0,.34.17.68.14,1,0,.17.17.33.17.52v.58c0,1.56-.3,3.14-.36,4.73l.19.15c0,.05.17-.3.17-.14v1.73l-.3.47-.09.46v.93a11.08,11.08,0,0,0,.29,1.83,6.54,6.54,0,0,0,.2.9l.3.87a20,20,0,0,0,3.92,6.39,28.65,28.65,0,0,0,6.16,5.05,45.61,45.61,0,0,0,7.17,3.57,62.08,62.08,0,0,0,7.08,2.33c2.26.6,4.38,1.08,6.28,1.43s3.56.61,4.94.79,2.48.3,3.22.37l1.14.1Z"/><path class="cls-17" d="M5.34,323.49s24.65,9.57,27.71,5.38-2.23-9.09-2.23-9.09,14.17-8.9,15.51-16.55-10.4-9.32-10.4-9.32-1-9.6-6.83-10.05l-5.83-.45s-5-4.47-9-3.89-5.06,2.56-5.06,2.56S.5,281.78.5,288s7.08,22.22,7.08,22.22S-6.72,315.11,5.34,323.49Z"/><path class="cls-17" d="M24.62,309.71s8.34-12.07,2.85-14.22S24.62,309.71,24.62,309.71Z"/><path class="cls-17" d="M14.31,308.08s8.34-12.07,2.85-14.22S14.31,308.08,14.31,308.08Z"/></g></g></g></svg>