<svg xmlns="http://www.w3.org/2000/svg" xmlns:xlink="http://www.w3.org/1999/xlink" viewBox="0 0 310.97 405.6"><defs><style>.cls-1{fill:none;}.cls-2{isolation:isolate;}.cls-3{fill:#4a8b2c;}.cls-11,.cls-4,.cls-5{opacity:0.5;}.cls-17,.cls-4,.cls-5,.cls-7,.cls-8,.cls-9{mix-blend-mode:multiply;}.cls-4{fill:url(#linear-gradient);}.cls-5{fill:#7ac943;}.cls-6{fill:#e04403;}.cls-7{fill:url(#linear-gradient-2);}.cls-8{fill:url(#linear-gradient-3);}.cls-9{fill:url(#linear-gradient-4);}.cls-10,.cls-11{mix-blend-mode:overlay;}.cls-10{fill:url(#linear-gradient-5);}.cls-11{fill:url(#linear-gradient-6);}.cls-12{fill:#fff;}.cls-13{fill:#cecece;}.cls-14{fill:#050505;}.cls-15,.cls-17,.cls-18{fill:#bf2a2a;}.cls-16{clip-path:url(#clip-path);}.cls-18{stroke:#f2522e;stroke-miterlimit:10;}</style><linearGradient id="linear-gradient" x1="-3883.68" y1="-2714.51" x2="-3883.68" y2="-2878.92" gradientTransform="matrix(-0.35, -0.94, -0.94, 0.35, -3765.71, -2615.96)" gradientUnits="userSpaceOnUse"><stop offset="0" stop-color="#fff"/><stop offset="1"/></linearGradient><linearGradient id="linear-gradient-2" x1="175.66" y1="399.89" x2="175.66" y2="68.82" gradientUnits="userSpaceOnUse"><stop offset="0.58" stop-color="#fff"/><stop offset="0.63" stop-color="#fbf2f2"/><stop offset="0.71" stop-color="#f1d1d1"/><stop offset="0.81" stop-color="#e19a9a"/><stop offset="0.94" stop-color="#ca5050"/><stop offset="1" stop-color="#bf2a2a"/></linearGradient><linearGradient id="linear-gradient-3" x1="79.54" y1="316.25" x2="79.54" y2="200.63" gradientUnits="userSpaceOnUse"><stop offset="0.47" stop-color="#fff"/><stop offset="0.51" stop-color="#fbf2f2"/><stop offset="0.58" stop-color="#f1d1d1"/><stop offset="0.68" stop-color="#e19a9a"/><stop offset="0.79" stop-color="#ca5050"/><stop offset="0.85" stop-color="#bf2a2a"/></linearGradient><linearGradient id="linear-gradient-4" x1="219.02" y1="399.89" x2="219.02" y2="71.93" xlink:href="#linear-gradient-3"/><linearGradient id="linear-gradient-5" x1="76.14" y1="235.78" x2="137.68" y2="161.12" gradientTransform="translate(-12.04 -69.5) rotate(-2.62)" xlink:href="#linear-gradient-3"/><linearGradient id="linear-gradient-6" x1="155.01" y1="307" x2="223.3" y2="307" xlink:href="#linear-gradient-3"/><clipPath id="clip-path"><path class="cls-1" d="M169,192c-15-5.61-46.16-25-70.72-20s-18.73,61.61,0,90.52,46.75-20.58,68.82-14.39S215,279.53,232.51,271.7s39.17-85.09,19.59-90.91S195.2,201.82,169,192Z"/></clipPath></defs><g class="cls-2"><g id="Layer_2" data-name="Layer 2"><g id="Layer_1-2" data-name="Layer 1"><path class="cls-3" d="M187.79,26.61l-6.93,21.15s-12.18,3.72-13.43,8.74a34.54,34.54,0,0,0-1.06,8.92l-16.76,5.11s-19.21-6.82-18.47-2.21,12.28,11,17.35,11.67,16.4,3.37,19.73,2.36,3.28,5,12.27,5.44,16.14-5.08,16.14-5.08,18.26,9.18,22.28,2.56,4.71-12.34,2.87-13.21-9.45,3.39-12.56,2.38-8.79-7.52-8.79-7.52l-3.26-15.25s-2.2-20.61,9.91-32.2,41.23-6.92,41.23-6.92l24.62,17.07,8.14,21.84s8.7,1.32,9.32-4.38,1.42-18.23,1.42-18.23l-3-8.11S239.54-6.09,222.21,1.28,194.73,5.45,187.79,26.61Z"/><path class="cls-4" d="M187.79,26.61l-6.93,21.15s-12.18,3.72-13.43,8.74a34.54,34.54,0,0,0-1.06,8.92l-16.76,5.11s-19.21-6.82-18.47-2.21,12.28,11,17.35,11.67,16.4,3.37,19.73,2.36,3.28,5,12.27,5.44,16.14-5.08,16.14-5.08,18.26,9.18,22.28,2.56,4.71-12.34,2.87-13.21-9.45,3.39-12.56,2.38-8.79-7.52-8.79-7.52l-3.26-15.25s-2.2-20.61,9.91-32.2,41.23-6.92,41.23-6.92l24.62,17.07,8.14,21.84s8.7,1.32,9.32-4.38,1.42-18.23,1.42-18.23l-3-8.11S239.54-6.09,222.21,1.28,194.73,5.45,187.79,26.61Z"/><path class="cls-5" d="M196.63,82.71s15.19-2.47,26-6.78a26.11,26.11,0,0,1-3.72,9.34C214.89,91.89,196.63,82.71,196.63,82.71Z"/><path class="cls-5" d="M222.21,1.28c17.33-7.37,66.58,19.46,66.58,19.46l3,8.11s-.81,12.52-1.42,18.23-9.32,4.38-9.32,4.38l-8.14-21.84-11.75-8.15c-3.89-6.83-10.8-13.33-23.06-14.25-27.05-2-33,11.67-41.68,15.53s-7.91,32.69-7.91,32.69-8.58,6.35-9.85,12.74c-.74,3.68-4.55,9.48-9.49,14.08a2.22,2.22,0,0,0-1,.09c-3.33,1-14.66-1.66-19.73-2.36s-16.61-7.06-17.35-11.67,18.47,2.21,18.47,2.21l16.76-5.11a34.54,34.54,0,0,1,1.06-8.92c1.25-5,13.43-8.74,13.43-8.74l6.93-21.15C194.73,5.45,204.88,8.65,222.21,1.28Z"/><path class="cls-6" d="M152.69,68.84S90.84,66.52,70,119.09s-5.41,66.49-7,79.64S50.63,238.93,67.64,273s33.25,43.3,33.25,43.3,13.14,22.42,17,30.15,16.23,20.87,27.06,24.74c0,0-2.32,34.79,22.42,27.83s10.82-21.64,27.83-36.33,61.08-43.3,73.45-102.06,13.15-61.85,19.33-77.32,9.28-69.58-5.41-87.36-41.75-24-41.75-24l-41.75.77Z"/><path class="cls-7" d="M152.69,68.84S90.84,66.52,70,119.09s-5.41,66.49-7,79.64S50.63,238.93,67.64,273s33.25,43.3,33.25,43.3,13.14,22.42,17,30.15,16.23,20.87,27.06,24.74c0,0-2.32,34.79,22.42,27.83s10.82-21.64,27.83-36.33,61.08-43.3,73.45-102.06,13.15-61.85,19.33-77.32,9.28-69.58-5.41-87.36-41.75-24-41.75-24l-41.75.77Z"/><path class="cls-8" d="M74.34,227.46c1.79-10.79-4.29-18.91-11.61-26.83-2.21,13.74-11.32,39.86,4.91,72.32,17,34,33.25,43.3,33.25,43.3S70.5,250.66,74.34,227.46Z"/><path class="cls-9" d="M282.58,95.9c-14.69-17.78-41.75-24-41.75-24l-19,.35c12.13,12,50.21,53.42,45,96.41-6.19,51-15.47,57.22-13.92,83.52s-26.29,54.12-49.49,72.68S180.8,369.44,145,371.14c0,0-2.32,34.79,22.42,27.83s10.82-21.64,27.83-36.33,61.08-43.3,73.45-102.06,13.15-61.85,19.33-77.32S297.27,113.68,282.58,95.9Z"/><path class="cls-10" d="M117.81,97.65s-34.89,21.62-40.6,45.92-3.77,16.48.92,20.14,7.58-10.93,18-25.86,27.08-35.29,44.33-41.24C140.48,96.61,142.88,77.11,117.81,97.65Z"/><path class="cls-11" d="M156.22,350.23c1.81-9.16,4.12-36.08,13.4-43.3s38.88-28.87,41.61-44.33,13-18.64,12-4.16-10.31,38.18-21.65,47.46-32,27.83-32,38.14S150,381.61,156.22,350.23Z"/><path class="cls-12" d="M174.39,135.23s-15.06,46.48,24.88,41.14,44-25.29,36.42-64.9C235.69,111.47,204.94,131.62,174.39,135.23Z"/><path class="cls-13" d="M235.69,111.47s-3,2-8,4.76c6.3,35.32,2.14,54.16-31.29,60.44.94-.08,1.89-.17,2.9-.3C239.2,171,243.26,151.08,235.69,111.47Z"/><path class="cls-14" d="M171.5,133.73s47.42-16.06,72.75-45.36c0,0,6.81,7.22,4.75,15.47S195,138.89,171.5,133.73Z"/><path class="cls-14" d="M217,147.14a6.7,6.7,0,1,1-6.7-6.7A6.7,6.7,0,0,1,217,147.14Z"/><path class="cls-12" d="M169.41,134s8.23,38.72-23.88,33.78-33.67-21.52-24-54.25C121.49,113.56,144.81,130.66,169.41,134Z"/><path class="cls-13" d="M169.41,134c-24.6-3.37-47.92-20.47-47.92-20.47-.51,1.74-1,3.42-1.43,5.07,9.05,5.27,23.57,12.43,38.56,14.49,0,0,6.86,32.26-16.38,34.12,1.06.2,2.16.39,3.29.57C177.64,172.75,169.41,134,169.41,134Z"/><path class="cls-14" d="M169.71,134.42s-36.69-17-54.49-42.79c0,0-6.1,5.2-5.17,12S150.35,136.51,169.71,134.42Z"/><path class="cls-14" d="M152.1,148.17a6.71,6.71,0,1,1-6.7-6.7A6.7,6.7,0,0,1,152.1,148.17Z"/><path class="cls-15" d="M169,192c-15-5.61-46.16-25-70.72-20s-18.73,61.61,0,90.52,46.75-20.58,68.82-14.39S215,279.53,232.51,271.7s39.17-85.09,19.59-90.91S195.2,201.82,169,192Z"/><g class="cls-16"><polygon class="cls-12" points="102.48 164.27 111.67 192.79 130.05 173.47 135.19 192.79 154.02 176.8 200.57 179.04 212.41 204.43 225.92 179.04 238.29 208.1 261.18 176.66 220.9 167.91 102.48 164.27"/><polygon class="cls-12" points="87.65 269.56 101.21 242.85 116.32 264.83 124.44 246.55 140.51 265.31 186.84 270.42 202.52 247.22 211.87 274.41 228.67 247.66 246.32 282.32 205.17 284.62 87.65 269.56"/></g><path class="cls-14" d="M165.5,202.86c1.46-2.35,3,5.95,2.82,8.55s-3.69,10.43,2.06,11.73,3.12-8.25,3.14-12.81.67-6.09,2.4-6.74,19.23,26.83-2.4,28.69c0,0-4.33.89-6.72,0S150.3,227.32,165.5,202.86Z"/><path class="cls-17" d="M158.48,84s6.82,14.64-2.93,18.58C155.55,102.6,172.44,99.48,158.48,84Z"/><path class="cls-17" d="M173.46,118s-6.46-14.8-15.87-10.11C157.59,107.86,171.12,97.27,173.46,118Z"/><path class="cls-17" d="M166.93,80.27s4.74,15.45,14.61,11.85C181.54,92.12,166.9,101.1,166.93,80.27Z"/><path class="cls-17" d="M178.53,115.53s-5.11-15.33,5-18.14C183.55,97.39,166.41,98.58,178.53,115.53Z"/><path class="cls-14" d="M70.45,216l-1.17.21c-.76.13-1.87.28-3.3.45s-3.18.31-5.19.39-4.3.13-6.8,0a66.7,66.7,0,0,1-8.13-.91,48.23,48.23,0,0,1-9.08-2.5,35.22,35.22,0,0,1-9.24-5.23,29.78,29.78,0,0,1-7.5-8.85l-.72-1.32c-.24-.43-.41-.9-.62-1.35a29.36,29.36,0,0,1-1.12-2.75l-.48-1.4-.24-.71-.18-.7-.36-1.42-.17-.71-.09-.36,0-.09v0c0,.14,0-.24,0-.21l0-.15c-.3-1.56-.61-3.11-.86-4.65l-.09-.58-.07-.63c0-.43-.06-.86-.1-1.28-.07-.86-.1-1.7-.14-2.55,0-.42,0-.84,0-1.25s0-.82.05-1.22c0-.81.11-1.61.18-2.4q0-.58.12-1.17c0-.39.12-.78.18-1.17.14-.78.28-1.54.43-2.28.08-.38.15-.75.23-1.12l.3-1.1c.19-.72.41-1.43.61-2.12a20.54,20.54,0,0,1,.72-2c.25-.66.51-1.3.77-1.93.55-1.25,1.18-2.42,1.77-3.51.32-.54.66-1.06,1-1.56.16-.25.31-.5.47-.74s.35-.46.52-.69c.35-.45.67-.88,1-1.29s.7-.78,1-1.14A21.85,21.85,0,0,1,26,150c.3-.26.62-.5.92-.72s.57-.41.83-.58a12.43,12.43,0,0,1,1.42-.8,8.6,8.6,0,0,1,.94-.42l.35-.13.93,1.11a2,2,0,0,1-.07.28c0,.09-.06.2-.11.34s-.08.31-.13.5c-.1.36-.2.84-.32,1.35s-.24,1.14-.35,1.82c-.05.34-.1.69-.17,1.05s-.08.77-.14,1.16c-.12.78-.17,1.65-.27,2.55s-.11,1.88-.18,2.86-.07,2.05-.1,3.15c0,2.2,0,4.54.06,7,0,.62,0,1.26.05,1.89,0,.32,0,.64,0,1s0,.65,0,1c0,.66,0,1.33,0,2,0,.34,0,.67,0,1s0,.66,0,1c0,.67,0,1.34,0,2,0,.33.22.67.19,1,0,.17.21.33.21.52v.58c0,1.56-.34,3.13-.4,4.73l.2.14c0,.06.2-.29.2-.13v1.73l-.34.47-.12.46v.93a10.11,10.11,0,0,0,.28,1.83,7.26,7.26,0,0,0,.2.9l.3.86a20,20,0,0,0,3.92,6.4,28.32,28.32,0,0,0,6.16,5,44.82,44.82,0,0,0,7.17,3.58,61.45,61.45,0,0,0,7.08,2.33c2.26.6,4.38,1.07,6.27,1.43s3.57.61,5,.79,2.48.3,3.22.37l1.14.1Z"/><path class="cls-18" d="M11.22,156.82s24.65,9.56,27.71,5.38-2.23-9.09-2.23-9.09,14.17-8.9,15.5-16.55-10.4-9.32-10.4-9.32-1-9.6-6.82-10l-5.83-.45s-5-4.47-9-3.89-5.07,2.56-5.07,2.56-8.73-.3-8.73,5.88,7.07,22.22,7.07,22.22S-.85,148.44,11.22,156.82Z"/><path class="cls-18" d="M13.45,143.51s-17-12.29-12-17.25,25.43-7.3,26.12-1.8-10.31,6.18-10.31,6.18S17.53,141.38,13.45,143.51Z"/><path class="cls-18" d="M19,113.08s5.09-38.25-3.85-37.15-10.82,37-8.5,43.63S16.31,119.23,19,113.08Z"/><path class="cls-14" d="M110.85,333.48c-2.93,2.28-5.76,4.69-8.56,7.11-1.39,1.22-2.77,2.45-4.12,3.71s-2.71,2.5-4,3.77l-2,1.92-1.94,1.95c-1.28,1.32-2.56,2.62-3.8,4s-2.47,2.69-3.68,4.05l-1.79,2-1.75,2.08c-.58.69-1.14,1.4-1.71,2.1s-1.13,1.39-1.67,2.11l-1.63,2.14-1.58,2.16c-.53.71-1,1.46-1.51,2.18s-1,1.46-1.46,2.21-.94,1.49-1.38,2.25-.84,1.55-1.25,2.31-.78,1.56-1.16,2.34L65.29,385l-.51,1.19c-.33.79-.69,1.56-1,2.36s-.61,1.57-.93,2.35-.58,1.56-.88,2.33c-.16.39-.33.77-.46,1.15s-.28.77-.42,1.16c-.61,1.53-1.11,3.05-1.72,4.57L57.2,405.6l-4.5-.06c-2.67,0-5.34-.18-8-.37-1.34-.1-2.68-.23-4-.37s-2.68-.3-4-.5c-.67-.09-1.34-.17-2-.29l-2-.33-2-.38-2-.42c-1.35-.3-2.7-.62-4.05-1-.67-.18-1.35-.38-2-.59s-1.35-.42-2-.69l-.08-1.44c.65-.33,1.3-.59,2-.9s1.31-.54,2-.79c1.3-.51,2.61-1,3.92-1.41l2-.63,2-.59,2-.54c.65-.19,1.31-.34,2-.51,1.31-.33,2.63-.63,3.94-.92s2.64-.54,4-.78c2.64-.48,5.28-.89,7.92-1.21l-6.68,5.39c.23-1,.51-2,.78-3.06s.65-2,1-3c.18-.49.36-1,.56-1.46s.43-.94.64-1.41c.46-.92.89-1.87,1.4-2.75s1-1.77,1.57-2.64,1.13-1.69,1.7-2.53c.28-.42.57-.83.86-1.24l.91-1.2c.62-.8,1.19-1.62,1.83-2.39s1.26-1.54,1.86-2.32l1.89-2.27c.62-.76,1.27-1.5,1.92-2.23s1.28-1.48,2-2.18l2-2.12c.68-.7,1.37-1.38,2.06-2.06s1.39-1.35,2.09-2,1.39-1.33,2.12-2l2.16-1.91,2.19-1.85c.73-.62,1.49-1.2,2.23-1.8s1.5-1.19,2.26-1.77c1.5-1.17,3-2.29,4.59-3.4l2.33-1.63,2.35-1.6c1.58-1,3.16-2.08,4.76-3.08s3.23-2,4.86-2.91,3.27-1.88,4.94-2.75,3.33-1.75,5-2.55Z"/><path class="cls-14" d="M215.14,328.12c1.73.8,3.39,1.66,5.06,2.54s3.3,1.81,4.94,2.75,3.25,1.92,4.86,2.91,3.18,2,4.76,3.09l2.35,1.6,2.33,1.63c1.55,1.11,3.08,2.23,4.59,3.4.76.58,1.51,1.16,2.25,1.76s1.51,1.18,2.23,1.81l2.2,1.85,2.16,1.91c.73.63,1.42,1.3,2.12,2s1.41,1.31,2.09,2,1.38,1.36,2.05,2.05l2,2.13c.67.7,1.3,1.45,1.95,2.18s1.29,1.47,1.91,2.23l1.89,2.27c.61.78,1.25,1.54,1.87,2.32s1.21,1.59,1.82,2.38l.91,1.2c.3.41.58.83.87,1.25.56.84,1.16,1.66,1.7,2.52s1.06,1.75,1.56,2.64.94,1.84,1.4,2.76c.22.47.44.93.64,1.41s.38,1,.57,1.46a30.28,30.28,0,0,1,1,3c.27,1,.55,2,.79,3l-6.69-5.38c2.65.31,5.29.73,7.93,1.21,1.32.24,2.63.5,3.95.78s2.63.58,3.95.92c.65.17,1.31.32,2,.51l2,.54,2,.58,2,.63c1.31.44,2.61.9,3.92,1.41.65.26,1.3.52,1.95.8s1.3.57,1.95.9l-.07,1.44c-.68.26-1.36.46-2,.69s-1.35.4-2,.59c-1.35.37-2.7.69-4,1l-2,.42-2,.37-2,.33c-.67.12-1.35.2-2,.3-1.34.2-2.68.36-4,.5s-2.67.26-4,.36c-2.67.2-5.34.34-8,.37l-4.51.06L265.86,396c-.6-1.52-1.1-3-1.71-4.58-.14-.38-.29-.76-.42-1.15s-.31-.77-.46-1.15c-.3-.77-.57-1.56-.88-2.34s-.63-1.56-.93-2.35-.66-1.57-1-2.36l-.51-1.18-.56-1.17c-.37-.78-.72-1.58-1.15-2.34s-.82-1.55-1.25-2.31-.91-1.5-1.38-2.25-1-1.48-1.46-2.21-1-1.48-1.52-2.19l-1.57-2.16-1.63-2.13c-.54-.72-1.11-1.42-1.68-2.12s-1.12-1.4-1.71-2.09l-1.74-2.08-1.79-2.05c-1.21-1.35-2.42-2.72-3.68-4s-2.52-2.64-3.8-4l-1.94-1.95-2-1.92c-1.33-1.28-2.68-2.53-4-3.78s-2.73-2.49-4.13-3.7c-2.79-2.43-5.63-4.84-8.55-7.11Z"/><path class="cls-14" d="M275.62,229.61s1.4,1,3.76,3c1.18,1,2.6,2.16,4.2,3.56s3.4,3,5.31,4.82,3.94,3.81,6,6,4.25,4.6,6.39,7.23a64,64,0,0,1,6.06,8.84,33.34,33.34,0,0,1,2.48,5.48,19,19,0,0,1,1.09,7.14,14.25,14.25,0,0,1-.3,2.18l-.14.57-.08.28,0,.14c0,.12.08-.17-.1.29v0l-.2.65c-.17.41-.35.83-.54,1.23s-.34.65-.52,1-.37.61-.56.91-.4.57-.6.85a19.76,19.76,0,0,1-2.66,2.85,26,26,0,0,1-2.77,2.15,36.37,36.37,0,0,1-10.74,4.83,51.62,51.62,0,0,1-9.77,1.54c-3.06.22-5.9.25-8.49.2-5.18-.1-9.37-.47-12.17-.46a14.73,14.73,0,0,0-3.12.25,4.77,4.77,0,0,0-.74.25l-.26.12-1.27-.69.09-.41a4.87,4.87,0,0,1,.46-1.14,8.23,8.23,0,0,1,1.12-1.55,14.93,14.93,0,0,1,1.81-1.66c2.82-2.24,7.12-4.32,12.13-6.15,2.51-.91,5.2-1.76,8-2.58s5.65-1.59,8.47-2.28c1.41-.34,2.81-.67,4.15-1a36.83,36.83,0,0,0,3.75-1.08,11.29,11.29,0,0,0,2.61-1.28l.2-.15.19-.14a.67.67,0,0,1,.15-.14.16.16,0,0,0,0,.08c.08-.14.19-.37.29-.56v0c-.16.44,0,.12-.08.21h0l0,0,0-.05a2.1,2.1,0,0,0,.16-.36,7.25,7.25,0,0,0-.06-3.07,25,25,0,0,0-1.17-4.08,63.08,63.08,0,0,0-4-8.36c-1.48-2.73-3.1-5.32-4.67-7.77s-3.15-4.74-4.64-6.83-2.86-4-4.12-5.68l-3.28-4.34c-1.85-2.39-2.93-3.74-2.93-3.74Z"/><path class="cls-18" d="M271.68,295.18s-7.89-16.94-8.76-14.68-3.07,7.62-3.07,7.62-5.38-2-5.69,5-10.74,23.09-10.74,23.09l13.09,7.46s21.36-3.82,20.84-7.46-6.7-9.25-6.7-9.25-5.15-5.6-5.67,0l-.51,5.6-4.68-5.6s6.22,1.41,6.74-5C266.53,302,276.44,304.68,271.68,295.18Z"/></g></g></g></svg>