<svg xmlns="http://www.w3.org/2000/svg" viewBox="0 0 52 51.71"><defs><style>.cls-1{fill:none;stroke:#000;stroke-width:2px;}</style></defs><g id="Layer_2" data-name="Layer 2"><g id="ICONS"><ellipse class="cls-1" cx="26" cy="25.85" rx="25" ry="24.85"/><path d="M18.83,32.27v1.3H8.88V18.75h9.76v1.3h-8.3v5.34h7.24v1.23H10.34v5.65Z"/><path d="M30.33,33.57H28.91v-6a5.33,5.33,0,0,0-.56-2.78,2,2,0,0,0-1.78-.88,3.64,3.64,0,0,0-1.64.4,4.49,4.49,0,0,0-1.43,1.1A4.2,4.2,0,0,0,22.61,27v6.62H21.19V22.74h1.29v2.47a4.93,4.93,0,0,1,1.15-1.38,5.47,5.47,0,0,1,1.61-.93,5.36,5.36,0,0,1,1.86-.33,3.25,3.25,0,0,1,1.52.33,2.61,2.61,0,0,1,1,1,4.41,4.41,0,0,1,.54,1.47,10.23,10.23,0,0,1,.17,1.92Z"/><path d="M37.72,33.78a4.7,4.7,0,0,1-2-.46,5.3,5.3,0,0,1-1.62-1.24,5.94,5.94,0,0,1-1-1.79,5.83,5.83,0,0,1-.38-2.06A6.36,6.36,0,0,1,33,26.07a5.7,5.7,0,0,1,1-1.81A5,5,0,0,1,35.63,23a4.56,4.56,0,0,1,2-.45,4.22,4.22,0,0,1,2.44.7A6.85,6.85,0,0,1,41.85,25V22.74h1.27V33.62a4.31,4.31,0,0,1-.72,2.53,4.45,4.45,0,0,1-1.94,1.55,6.64,6.64,0,0,1-2.66.52,5.85,5.85,0,0,1-3-.67,5.37,5.37,0,0,1-1.88-1.79l.87-.69a4,4,0,0,0,1.72,1.52,5.28,5.28,0,0,0,2.29.5,5,5,0,0,0,2-.37,3.4,3.4,0,0,0,1.42-1.14,3.29,3.29,0,0,0,.53-1.91V31.52A4.72,4.72,0,0,1,40,33.16,4.54,4.54,0,0,1,37.72,33.78Zm.39-1.19a3.45,3.45,0,0,0,1.24-.23,4.4,4.4,0,0,0,1.1-.62,4,4,0,0,0,.83-.86,2.26,2.26,0,0,0,.42-1V26.54a4.45,4.45,0,0,0-2.22-2.37A3.6,3.6,0,0,0,38,23.82a3.37,3.37,0,0,0-1.64.39,3.74,3.74,0,0,0-1.21,1,5.17,5.17,0,0,0-1,3,4.46,4.46,0,0,0,.32,1.66,4.63,4.63,0,0,0,.86,1.39,3.8,3.8,0,0,0,1.3.95A3.67,3.67,0,0,0,38.11,32.59Z"/></g></g></svg>