<svg xmlns="http://www.w3.org/2000/svg" viewBox="0 0 370 370"><defs><style>.cls-1{fill:#7ac943;}</style></defs><g id="Layer_2" data-name="Layer 2"><g id="Layer_3" data-name="Layer 3"><path class="cls-1" d="M185,351.5A166.59,166.59,0,0,1,26.91,132.65C28.7,146.82,48.55,276.46,174.4,256.33c0,0-77,2.4-97.24-81,0,0-43.62,4.3-50.23-42.69a166.55,166.55,0,0,1,316.14,0c-6.61,47-50.23,42.69-50.23,42.69-20.23,83.45-97.24,81-97.24,81,125.84,20.13,145.7-109.51,147.49-123.68A166.59,166.59,0,0,1,185,351.5ZM185,0C82.83,0,0,82.83,0,185S82.83,370,185,370s185-82.83,185-185S287.17,0,185,0Z"/><path class="cls-1" d="M288.59,124.66c-13.49,42.23-57.14,39-57.14,39C243.16,245.32,185,250.29,185,250.29c117.52.71,103.59-125.63,103.59-125.63Z"/><path class="cls-1" d="M138.55,163.7s-43.65,3.19-57.14-39c0,0-13.93,126.34,103.59,125.63,0,0-58.16-5-46.45-86.59Z"/><path class="cls-1" d="M313.43,236.81c-1.78,28.45-39.75,39.39-80.56,29.45S185,263.07,185,263.07v29.55c.13-2,3.35-14.39,64.21-7.19,66,7.81,64.22-48.62,64.22-48.62Z"/><path class="cls-1" d="M185,292.88v-.26a1.71,1.71,0,0,0,0,.26Z"/><path class="cls-1" d="M185,292.88a1.71,1.71,0,0,0,0-.26v.26Z"/><path class="cls-1" d="M137.12,266.26c-40.81,9.94-78.78-1-80.56-29.45,0,0-1.82,56.43,64.22,48.62,60.86-7.2,64.08,5.2,64.21,7.19V263.07s-7.05-6.74-47.87,3.19Z"/><path class="cls-1" d="M185,247.14s85.57-57,0-143.73c-85.57,86.77,0,143.73,0,143.73Z"/></g></g></svg>