<svg xmlns="http://www.w3.org/2000/svg" xmlns:xlink="http://www.w3.org/1999/xlink" viewBox="0 0 170.78 187.34"><defs><style>.cls-1,.cls-19{fill:none;}.cls-2{isolation:isolate;}.cls-3{fill:#6f1200;}.cls-4,.cls-9{fill:#300100;}.cls-25,.cls-5{fill:#fccaa1;}.cls-6{fill:#faaa74;}.cls-7{fill:#d0662f;}.cls-8{fill:#bd662f;}.cls-11,.cls-21,.cls-48,.cls-9{opacity:0.5;}.cls-10{fill:#dd692f;}.cls-11,.cls-15,.cls-21,.cls-22,.cls-44,.cls-48{mix-blend-mode:multiply;}.cls-12,.cls-22{fill:#d77800;}.cls-13{fill:orange;}.cls-14{fill:#ffd500;}.cls-15,.cls-48{fill:#ffcf29;}.cls-16{fill:#d38200;}.cls-17{fill:#ffec00;}.cls-18{fill:#fffc9c;}.cls-19{stroke:#d38200;stroke-linecap:round;stroke-linejoin:round;stroke-width:0.51px;}.cls-20{fill:#080000;}.cls-21{fill:#d7a500;}.cls-22{opacity:0.4;}.cls-23{clip-path:url(#clip-path);}.cls-24{fill:#893c2e;}.cls-25{stroke:#dd692f;stroke-miterlimit:10;stroke-width:0.65px;}.cls-26{fill:#e28f63;}.cls-27{fill:#d46e43;}.cls-28{fill:#c7552d;}.cls-29{fill:#fdd8b6;}.cls-30{fill:#ab1e37;}.cls-31{fill:#590006;}.cls-32{fill:#fff2d1;}.cls-33{fill:#fffaed;}.cls-34{fill:#f48987;}.cls-35{fill:#dc4f4e;}.cls-36{fill:#feb;}.cls-37{fill:#904d35;}.cls-38{fill:#450806;}.cls-39{fill:#3d0101;}.cls-40{fill:#bb5323;}.cls-41{fill:#e0864d;}.cls-42{clip-path:url(#clip-path-2);}.cls-43,.cls-44,.cls-47{fill:#fff5d9;}.cls-45{fill:#fff;}.cls-46{fill:#ffb629;}.cls-47{opacity:0.6;}</style><clipPath id="clip-path"><path class="cls-1" d="M129.3,106.13c-.1.43-.2.84-.3,1.25-.28,1.24-.45,2.49-.65,3.76-.11.69.17,1.86-.62,2.2a1.3,1.3,0,0,1-1.52-.6,4.81,4.81,0,0,1-.63-2.59c-.09.17-.17.35-.26.54-.29.52-.7,1.35-1.38,1.42s-1.15-1-1.26-1.58a5.08,5.08,0,0,1,.06-1.82,8.07,8.07,0,0,1-1.45,2.07,2.46,2.46,0,0,1-1.86.91c-.77-.1-.88-.94-.8-1.56a17.67,17.67,0,0,1,.65-2.84,4.93,4.93,0,0,1-4.55,1.56.34.34,0,0,1-.15-.56,23.73,23.73,0,0,0,4.41-5.8l-7.48.77L95.32,113.2l1.15,24.86,17.71-1,12.5-6.24,5.36-20Z"/></clipPath><clipPath id="clip-path-2"><path class="cls-1" d="M83,95.47c-3.83-8.67-4.47-26-16.06-27.14C56,67.23,31.58,81.71,31.45,101c-.08,13.61,2.25,16.26,4.6,17.92,0-.05.07-.09.09-.13a.11.11,0,0,1,0-.08A32.42,32.42,0,0,1,39,115.38c.93-.87,1.88-1.68,2.73-2.61,0,0,.05,0,.09-.06a9.53,9.53,0,0,0,.43-2.76c0-.37.14-1.54.75-1.5s.81.87.93,1.38a6.29,6.29,0,0,1,.18,1.88c.48-1.25,1.3-2.62,2.34-1.74.48.42.31,1.52.24,2a17.71,17.71,0,0,1-.41,2.31,5.35,5.35,0,0,1,1.08-.57c.64-.23,1.85-.35,2,.6a3.14,3.14,0,0,1-1,2.4,10.12,10.12,0,0,1-1.69,1.77c.94-.25,1.93-.32,2.3.48s-.74,1.68-1.4,2.17a4.67,4.67,0,0,1,1.36.41c.46.21,1.36.7,1.3,1.33s-1,1-1.8,1.15a7.07,7.07,0,0,1-.8.33,9.71,9.71,0,0,1-1,.34c-.25.26-.53.51-.76.76s-.35.36-.53.53c5.32,2.92,12.86,5.47,19.85,4.26C76.32,128.37,86.78,104.14,83,95.47Z"/></clipPath></defs><g class="cls-2"><g id="Layer_2" data-name="Layer 2"><g id="Layer_1-2" data-name="Layer 1"><path class="cls-3" d="M170.75,85.11c-.36-5.41-4-9.77-8.48-12.49-10-6.13-22.91-2.47-29,7.28a26.36,26.36,0,0,0-3.52,16.19c.61,6.19,3.86,11.76,5.76,17.58,1,3.11,1.51,6.22.39,9.37s-5.2,5-8.24,5.69c-7.9,1.88-15.76-4.73-18.47-11-1.83-4.21-5.09,2.21-2.38,7,3.29,5.79,6.86,8.19,13.28,10.27,6.09,2,13-.2,17.61-4.3,10.85-9.51.28-23.35-1.93-34-2.25-10.81,5.95-22.91,17.69-21.21,4.91.71,9.94,3.75,11.58,8.63a10,10,0,0,1-5.62,12c-4.07,1.57-11.27.08-10.19-5.75.58-3-4.06-4.33-4.63-1.29-1,5.64,1.84,10.29,7.45,11.64a11.67,11.67,0,0,0,5.54,0A16.66,16.66,0,0,0,164.94,98C169.07,95.18,171.05,90,170.75,85.11Z"/><path class="cls-4" d="M165.44,79.67c-2.72-4.74-9.84-7.21-15.09-6.92-5.69.32-12.63,4.09-15.26,9.36-2.54,5.06-1.7,11.35.26,16.49a78.82,78.82,0,0,0,3.58,7.48,63.59,63.59,0,0,1-3.13-9.45c-2.25-10.81,5.95-22.91,17.69-21.21,4.91.71,9.94,3.75,11.58,8.63a9.28,9.28,0,0,1,.2,4.85A9.45,9.45,0,0,0,165.44,79.67Z"/><path class="cls-4" d="M170.75,85.11a13.87,13.87,0,0,0-2.7-7.26,14.07,14.07,0,0,1-1.4,14.91c-3.1,4.28-8.67,6.93-13.94,5.69-5-1.16-7.67-5.22-7.22-10.23a1.7,1.7,0,0,1,.24-.74,2,2,0,0,0-1.1,1.53c-1,5.64,1.84,10.29,7.45,11.64a11.67,11.67,0,0,0,5.54,0A16.66,16.66,0,0,0,164.94,98C169.07,95.18,171.05,90,170.75,85.11Z"/><path class="cls-4" d="M127.69,128.73c-.12,0-.23.06-.35.07a14.73,14.73,0,0,0,9.18-4.4c5.07-5.46,1.88-12.58-1.07-18.23-2.76-5.25-5.11-10.85-5.1-16.87a20.22,20.22,0,0,1,.25-3.08,27.75,27.75,0,0,0-.82,9.87c.61,6.19,3.86,11.76,5.76,17.58,1,3.11,1.51,6.22.39,9.37S130.73,128,127.69,128.73Z"/><path class="cls-4" d="M137.31,127.93c-3.44,2.75-8.92,5.06-13.35,3.65a1.62,1.62,0,0,1-1.18-1.54v-.14a1.73,1.73,0,0,1,.38-1c-6.2-.85-11.75-6.13-14-11.23-1.83-4.21-5.09,2.21-2.38,7,3.29,5.79,6.86,8.19,13.28,10.27,6.09,2,13-.2,17.61-4.3,4.26-3.73,5.21-8.11,4.67-12.71A13.29,13.29,0,0,1,137.31,127.93Z"/><path class="cls-5" d="M109.25,153.51c-.78-1.68-3-2.09-4.6-1.84a36.83,36.83,0,0,0-3.69.92,8,8,0,0,1-4,0c-.1,0-.15.07-.12.15a12.05,12.05,0,0,0-6.3-.57c-2.69.69-4.45,3.91-5.92,6-2,2.92-3.92,5.93-6.09,8.74-2.4,3.15-5,6.18-7.46,9.25-2.17,2.69-7.5,8.3-2,10.61a3,3,0,0,0,3.35-.44c.53,1.07,1.9,1,2.91.45l.08,0c1.42,1.13,2.64.41,3.35-.81.38.73,1.45.7,2.21.4a2.8,2.8,0,0,0,1.39-1.48c1.73,1.87,3.61.46,4.55-1.48a15.8,15.8,0,0,1,2.71-4.29c1.17-1.2,2.4-2.33,3.61-3.51A27.61,27.61,0,0,0,99,167.93a11.82,11.82,0,0,1,3.21-4.43A13.14,13.14,0,0,1,105.1,162C108.41,161.28,110.64,156.57,109.25,153.51Z"/><path class="cls-6" d="M109.25,153.51c-.78-1.68-3-2.09-4.6-1.84a36.83,36.83,0,0,0-3.69.92,8,8,0,0,1-4,0c-.1,0-.15.07-.12.15A18.36,18.36,0,0,0,93.1,152c-.21.46-.12,1,.51,1.59a9.22,9.22,0,0,0,2.92,1.81.26.26,0,0,1,.16.38C96,156.83,94,156.84,93.51,158c-.89,2,2.64,1.68,3.6,1.65a.26.26,0,0,1,.21.39c-.87,1.77-1.58,4.13-3,5.53s-2.41-1.06-2.66-2.1a11.72,11.72,0,0,0-.86-3c-.63-1.15-1.35-2.21-2-3.34a9.57,9.57,0,0,1-1.15-3,34.54,34.54,0,0,0-3,4.13c-2,2.92-3.92,5.93-6.09,8.74-1.21,1.57-2.45,3.12-3.7,4.65a1.52,1.52,0,0,1,.57.47c.64.83.32,2.16-.09,3a21.07,21.07,0,0,0-1.36,2.68c-.25.86-.43,1.76-.69,2.62-.58,1.84-2.79,5.58-5.28,3.84a3.37,3.37,0,0,1-1.21-1.34c-.37,1.57.11,3,2.28,3.94a3,3,0,0,0,3.35-.44c.53,1.07,1.9,1,2.91.45l.08,0c1.42,1.13,2.64.41,3.35-.81.38.73,1.45.7,2.21.4a2.8,2.8,0,0,0,1.39-1.48c1.73,1.87,3.61.46,4.55-1.48a15.8,15.8,0,0,1,2.71-4.29c1.17-1.2,2.4-2.33,3.61-3.51A27.61,27.61,0,0,0,99,167.93a11.82,11.82,0,0,1,3.21-4.43A13.14,13.14,0,0,1,105.1,162C108.41,161.28,110.64,156.57,109.25,153.51Z"/><path class="cls-7" d="M109.25,153.51c-.78-1.68-3-2.09-4.6-1.84a36.83,36.83,0,0,0-3.69.92,8,8,0,0,1-4,0c-.1,0-.15.07-.12.15a12.05,12.05,0,0,0-6.3-.57c-2.69.69-4.45,3.91-5.92,6-2,2.92-3.92,5.93-6.09,8.74-2.4,3.15-5,6.18-7.46,9.25-2.17,2.69-7.5,8.3-2,10.61a3,3,0,0,0,3.35-.44c.53,1.07,1.9,1,2.91.45l.08,0c1.42,1.13,2.64.41,3.35-.81.38.73,1.45.7,2.21.4a2.8,2.8,0,0,0,1.39-1.48c1.73,1.87,3.61.46,4.55-1.48a15.8,15.8,0,0,1,2.71-4.29c1.17-1.2,2.4-2.33,3.61-3.51A27.61,27.61,0,0,0,99,167.93a11.82,11.82,0,0,1,3.21-4.43A13.14,13.14,0,0,1,105.1,162C108.41,161.28,110.64,156.57,109.25,153.51Zm-4.13,7.78a10.27,10.27,0,0,0-5.13,3.43,35,35,0,0,0-2.16,3.95A22.39,22.39,0,0,1,95,172.78c-2,2.35-4.37,4.31-6.42,6.59-1.68,1.85-2.76,7.66-6.13,5.17a4.25,4.25,0,0,0,.23-1.68.18.18,0,0,0-.35,0,4.66,4.66,0,0,1-1,2.64c-.58.61-1.9.91-2.38.09a4.79,4.79,0,0,0,.46-2.16c0-.15-.22-.2-.26,0a9.81,9.81,0,0,1-.91,2.4,1.81,1.81,0,0,1-2.48.76A4.88,4.88,0,0,0,77,182.27c0-.15-.22-.09-.24,0a5.4,5.4,0,0,1-1.07,3.41c-.82.88-2.2,1.37-3.06.41,1.68-1.7,2.37-5.19,2.11-7.11,0-.16-.31-.12-.29.05A8.8,8.8,0,0,1,73,184.67c-1.37,2-4.61,2.35-5.55-.31-.66-1.86,1.3-4.18,2.37-5.52,1.68-2.09,3.38-4.16,5.07-6.23,3.6-4.4,6.81-9,10-13.68,1.56-2.24,3.28-5.45,6.09-6.17,2.2-.58,4.55.41,6.74.57a6.79,6.79,0,0,0,3.41,0c2-.41,4.18-1.41,6.2-.49,1.86.84,1.61,3.13,1.09,4.72A6.53,6.53,0,0,1,105.12,161.29Z"/><path class="cls-5" d="M95.89,175.52a112.38,112.38,0,0,0-3.81-10.94c-1.39-3.61-2.72-7.21-4-10.88.1-3-.85-6.23-4.22-6.61a12.29,12.29,0,0,0-5.62,1.08c-1.69.66-3.39,1.33-5.11,1.85a.17.17,0,0,0-.19-.19c-1.6.41-3.57.39-4.93,1.38a7.14,7.14,0,0,0-2.24,3.4,4.23,4.23,0,0,0,.11,3.38c.55,1,2.13,1.52,3.12,1.85a.12.12,0,0,0,.08,0,17.55,17.55,0,0,1,5.35,3.23c2.34,2.24,2.22,5.55,2.18,8.55,0,3.27-.38,6.5-.36,9.77,0,2,.34,4,2.55,4.64.09.05.14,0,.18-.06a1.78,1.78,0,0,0,2.89-.06.11.11,0,0,0,0-.14c.89,1.06,2.49,1.59,3.43.33a.36.36,0,0,0,.21-.34,3.34,3.34,0,0,0,1.34.68c1,.27,2.49.2,3-.76a3.15,3.15,0,0,0,1.65.61h0c2,.89,3.93.44,4.77-1.64C97.44,181.92,96.62,178.22,95.89,175.52Z"/><path class="cls-6" d="M95.89,175.52a72.64,72.64,0,0,0-2.3-7,8.65,8.65,0,0,1,.23.91,20.73,20.73,0,0,1,.61,3.52,11.82,11.82,0,0,0,.36,3.23c.48,1.36,1.31,3.09.89,4.58a2.49,2.49,0,0,1-2.5,1.87c-2-.14-1.54-4-1.55-5.32,0-.65-.17-1.2-1-1.13a2.8,2.8,0,0,0-2,1.51,11.76,11.76,0,0,0-1.33,2.68,5.89,5.89,0,0,0,.08,1.22,11.9,11.9,0,0,1,.2,3.1.71.71,0,0,1-1,.59c-2-.88-2-2.92-1.3-4.73.23-.55.56-1.13.83-1.71a6.54,6.54,0,0,1,.32-.65,4.06,4.06,0,0,0,.21-.71,3.16,3.16,0,0,0-.22-1.67,2.3,2.3,0,0,1-.57-.11c-.61-.19-.57-1.18-.7-1.66-.36-1.34-.47-2.75-.78-4.12s-.79-3-1.09-4.45a14.2,14.2,0,0,1-.22-2.7c0-1.3-.47-1.95-1.87-1.94a.24.24,0,0,1-.25-.25c-.11-.85.5-1.3.63-2.09.19-1.06-1.64-1.06-2.23-1.23a.26.26,0,0,1-.16-.37c.38-.65,1.85-1.5,1.52-2.35-.49-1.21-2-1.43-3.07-1.34a.26.26,0,0,1-.19-.45,6.51,6.51,0,0,1,1.1-.68c.13-.07,1.91-1.12.4-1.36a8,8,0,0,0-1,0c-.56,0-1.23-.15-1.38-.81a1.4,1.4,0,0,1,.28-1.22c-1.22.47-2.44.92-3.68,1.3a.17.17,0,0,0-.19-.19c-1.6.41-3.57.39-4.93,1.38a7.14,7.14,0,0,0-2.24,3.4,4.23,4.23,0,0,0,.11,3.38c.55,1,2.13,1.52,3.12,1.85a.12.12,0,0,0,.08,0,17.55,17.55,0,0,1,5.35,3.23c2.34,2.24,2.22,5.55,2.18,8.55,0,3.27-.38,6.5-.36,9.77,0,2,.34,4,2.55,4.64.09.05.14,0,.18-.06a1.78,1.78,0,0,0,2.89-.06.11.11,0,0,0,0-.14c.89,1.06,2.49,1.59,3.43.33a.36.36,0,0,0,.21-.34,3.34,3.34,0,0,0,1.34.68c1,.27,2.49.2,3-.76a3.15,3.15,0,0,0,1.65.61h0c2,.89,3.93.44,4.77-1.64C97.44,181.92,96.62,178.22,95.89,175.52Zm-15.38,9a.51.51,0,0,1-1,0,4.77,4.77,0,0,1,0-2.06.43.43,0,0,1,.57-.35.47.47,0,0,1,.54.48A9,9,0,0,1,80.51,184.48Zm2.94-3.07a26.09,26.09,0,0,0-.12,3.07c0,.28-.31.6-.64.48-1.5-.63-1.28-3.08-.22-4a.45.45,0,0,1,.3-.12A.54.54,0,0,1,83.45,181.41Z"/><path class="cls-8" d="M95.89,175.52a112.38,112.38,0,0,0-3.81-10.94c-1.39-3.61-2.72-7.21-4-10.88.1-3-.85-6.23-4.22-6.61a12.29,12.29,0,0,0-5.62,1.08c-1.69.66-3.39,1.33-5.11,1.85a.17.17,0,0,0-.19-.19c-1.6.41-3.57.39-4.93,1.38a7.14,7.14,0,0,0-2.24,3.4,4.23,4.23,0,0,0,.11,3.38c.55,1,2.13,1.52,3.12,1.85a.12.12,0,0,0,.08,0,17.55,17.55,0,0,1,5.35,3.23c2.34,2.24,2.22,5.55,2.18,8.55,0,3.27-.38,6.5-.36,9.77,0,2,.34,4,2.55,4.64.09.05.14,0,.18-.06a1.78,1.78,0,0,0,2.89-.06.11.11,0,0,0,0-.14c.89,1.06,2.49,1.59,3.43.33a.36.36,0,0,0,.21-.34,3.34,3.34,0,0,0,1.34.68c1,.27,2.49.2,3-.76a3.15,3.15,0,0,0,1.65.61h0c2,.89,3.93.44,4.77-1.64C97.44,181.92,96.62,178.22,95.89,175.52Zm-.47,9.28c-.62,1.23-1.87,1.21-3,1a.23.23,0,0,0-.16-.16,4.78,4.78,0,0,1-3.81-3.76,4.14,4.14,0,0,1,.1-2.34c.29-.92,1-1.33,1.68-2,0,0,0,0,0,0-2,.11-2.58,2.84-2.43,4.4a5.6,5.6,0,0,0,1.75,3.3A3,3,0,0,1,85,183.66a10.61,10.61,0,0,1-.12-5c0-.08-.13-.19-.2-.07a7.68,7.68,0,0,0,.08,6.18,2.48,2.48,0,0,0,.4.56s0,0,0,.07a.15.15,0,0,1,0,.08h0c-.57.37-1,.79-1.7.59a2.67,2.67,0,0,1-1.33-1.28,3.8,3.8,0,0,1,.17-4.36c.09-.11-.06-.23-.16-.14-1.51,1.18-1.35,3.45-.49,5,.07.12.14.24.22.35a.14.14,0,0,0-.19,0,1.5,1.5,0,0,1-2.49-1,14.47,14.47,0,0,1,.06-3.08c0-.1-.16-.12-.18,0-.32,1.31-.84,2.78-.21,4-2.61-1.62-1.87-5.54-1.75-8.15a73.66,73.66,0,0,0,.1-10.29c-.41-4.44-4.43-6.56-8.27-7.76a8.34,8.34,0,0,0-1.72-1.09c-1.4-.87-1.09-2.55-.64-3.87a5.85,5.85,0,0,1,2.27-3,5.55,5.55,0,0,1,1.52-.6,26.2,26.2,0,0,0,5.48-1.23,49,49,0,0,1,5.84-1.88A4.86,4.86,0,0,1,86.3,149c1.7,1.78,1.24,4.79,1.3,7,0,.13.21.18.24,0s.11-.59.16-.88a50.45,50.45,0,0,0,2.48,7.06c1.28,3.23,2.38,6.5,3.56,9.78a27.56,27.56,0,0,1,2,9.54A7.56,7.56,0,0,1,95.42,184.8Z"/><path class="cls-3" d="M127.09,134.11a37.4,37.4,0,0,0-8.29-2.52,33.18,33.18,0,0,0-5.86-.73,68.37,68.37,0,0,0-1-8.6,58.39,58.39,0,0,0-1.89-9,48,48,0,0,0-2.28-8.6,81.17,81.17,0,0,0-3.32-9.31A39.62,39.62,0,0,0,95.31,82.5a68.71,68.71,0,0,1,10.51.82,18.56,18.56,0,0,1,9.83,5.29A14.56,14.56,0,0,1,120,98.32c0,4-2.82,7.25-5.43,10a.34.34,0,0,0,.15.56,4.93,4.93,0,0,0,4.55-1.56,17.67,17.67,0,0,0-.65,2.84c-.08.62,0,1.46.8,1.56a2.46,2.46,0,0,0,1.86-.91,8.07,8.07,0,0,0,1.45-2.07,5.08,5.08,0,0,0-.06,1.82c.11.63.44,1.69,1.26,1.58s1.09-.9,1.38-1.42c.09-.19.17-.37.26-.54a4.81,4.81,0,0,0,.63,2.59,1.3,1.3,0,0,0,1.52.6c.79-.34.51-1.51.62-2.2.2-1.27.37-2.52.65-3.76a51.82,51.82,0,0,0,1.15-5.43c.42-3.52-.46-6.59-1.84-9.81a31.43,31.43,0,0,0-12-14.35,31.91,31.91,0,0,0-8.83-3.59,61.11,61.11,0,0,0-10.54-2,45.11,45.11,0,0,0-11.48.67A41.74,41.74,0,0,0,75.6,75.3c-.49.21-1,.45-1.45.71a.32.32,0,0,0-.29-.09A48.94,48.94,0,0,0,64.18,79,30.62,30.62,0,0,0,56,84.53,96.85,96.85,0,0,0,42.13,100a77.26,77.26,0,0,0-9,15.29c-1.65,4-2.95,9.09-.57,12.94,0,0,0,0,0,.07,1.17,2.55,4.5,2.05,6.69,1.4a16.16,16.16,0,0,0,5-2.74,23.82,23.82,0,0,0,2.42-2.18,9.71,9.71,0,0,0,1-.34,7.07,7.07,0,0,0,.8-.33c.78-.12,1.73-.4,1.8-1.15s-.84-1.12-1.3-1.33a4.67,4.67,0,0,0-1.36-.41c.66-.49,1.78-1.39,1.4-2.17s-1.36-.73-2.3-.48a10.12,10.12,0,0,0,1.69-1.77,3.14,3.14,0,0,0,1-2.4c-.16-.85-1.11-.84-1.76-.67a72.64,72.64,0,0,1,6.92-8.42c1.39-1.42,2.84-2.81,4.27-4.21,1-1,2-2,3-3a125.94,125.94,0,0,0-.46,14.39c.18,6,.78,12.38,3,18.05a33.06,33.06,0,0,0-9.77.45,31.47,31.47,0,0,0-10.09,3.42c-4.1,2.28-8.87,7-8.64,11.89h0a1.75,1.75,0,0,0,0,.33,7.42,7.42,0,0,0,1.46,3.75.12.12,0,0,0,.13,0,14.23,14.23,0,0,0,3.69,3.21,53.22,53.22,0,0,0,10.88,5.25c4.65,1.7,9.69,3,13.8,5.88,1.16.81,2.23,1.55,3-.05a3.1,3.1,0,0,0,.12-2.43c1.19,1,2.73,2.77,4,1.37.83-.88-.58-2.48-1.45-3.38,1.63.06,3.19.4,4.8-.09a.29.29,0,0,0,.14-.48c-.94-1.15-2.41-1.57-3.76-2.11.61-.07,1.23-.17,1.85-.27.9-.13,2.1-.45,2.3-1.5.25-1.25-1.93-2-3.65-2.42a4.51,4.51,0,0,0,3.06-1.57c.39-.69-.4-1.31-.92-1.62a3,3,0,0,0-1.47-.24,2.31,2.31,0,0,0,1.47-2,.19.19,0,0,0-.21-.21,17.51,17.51,0,0,0-3.28.46,25.27,25.27,0,0,1-4.51.3,38.05,38.05,0,0,1-8.44-.95,40.24,40.24,0,0,1-5.61-1.71c-.5-.18-1-.4-1.54-.63,0,0,0,0,0,0-.71-.8,6.32-2.9,7.1-3.07a57,57,0,0,1,15.32-1.11,29.25,29.25,0,0,0,6.26,1.41A103.13,103.13,0,0,0,91,143.1a32.6,32.6,0,0,0,4.41-.18c2.93,2.07,6.86,2.84,10.3,3.35,1.91.27,3.84.41,5.76.51a18.61,18.61,0,0,0,3.25-.06c-1.74.84-3.49,1.56-5.3,2.23a47.68,47.68,0,0,1-8.22,2.19,29.14,29.14,0,0,1-7.88.69.23.23,0,0,0-.14,0c-.28-.1-.57.23-.32.47,2.12,1.9,4.86,2,7.42,2.92-1.39,1-3.4.58-4.52,2a.32.32,0,0,0,.12.46c1.67,1,3.73.4,5.58.06-1.19,1.08-2.7,1.92-2.92,3.66a.39.39,0,0,0,.39.38,3,3,0,0,0,1.67-.52A6.53,6.53,0,0,0,99,164.52c0,.25.15.55.44.45a7.06,7.06,0,0,0,2-1.24c-.82,1.39-1.56,3.21.07,2.92a5.35,5.35,0,0,0,1.9-.93,36,36,0,0,1,3.62-2.07c2.29-1.14,4.64-2.11,7-3.12,4.58-2,9.2-4,13.34-6.84a38.21,38.21,0,0,0,4.73-3.8,9,9,0,0,0,3.08-4.88.37.37,0,0,0,0-.26C136.48,140,131,135.93,127.09,134.11Z"/><path class="cls-9" d="M75.16,154c.62,2.28-4,2.43-6.54,2.46a4.06,4.06,0,0,1,1.65,2.12.51.51,0,0,1-.62.63c-2.23-.81-4.09-2.23-6.17-3.33-2.6-1.38-5.57-2.07-8.36-3-4.11-1.31-8.46-2.36-12.42-4.09-2.62-1.17-5.77-3-6.12-6.17a8.29,8.29,0,0,0-.71,3.65h0a1.75,1.75,0,0,0,0,.33,7.42,7.42,0,0,0,1.46,3.75.12.12,0,0,0,.13,0,14.23,14.23,0,0,0,3.69,3.21,53.22,53.22,0,0,0,10.88,5.25c4.65,1.7,9.69,3,13.8,5.88,1.16.81,2.23,1.55,3-.05a3.1,3.1,0,0,0,.12-2.43c1.19,1,2.73,2.77,4,1.37.83-.88-.58-2.48-1.45-3.38,1.63.06,3.19.4,4.8-.09a.29.29,0,0,0,.14-.48c-.94-1.15-2.41-1.57-3.76-2.11.61-.07,1.23-.17,1.85-.27.9-.13,2.1-.45,2.3-1.5C77.09,155,76.24,154.39,75.16,154Z"/><path class="cls-9" d="M105.71,146.27c1.91.27,3.84.41,5.76.51a18.61,18.61,0,0,0,3.25-.06c-1.74.84-3.49,1.56-5.3,2.23l-.44.16a26.64,26.64,0,0,0,5.88-1.46c3.24-1.25,6-3.32,9.27-4.4-4.41-1.06-11.59-3.91-9.28-8,1.23-2.24,3.93-2.92,6.83-3-.94-.25-1.92-.45-2.88-.65a33.18,33.18,0,0,0-5.86-.73,68.37,68.37,0,0,0-1-8.6,58.39,58.39,0,0,0-1.89-9,48,48,0,0,0-2.28-8.6c-.83-2.73-1.73-5.45-2.82-8.11C100,90,96.66,86.94,89.5,85.57c-4-.76-10.55-.51-14.41,1-.5.21-2.64,1.19-2.64-.18,0-2,2.67-3.61,4.18-4.36a20.29,20.29,0,0,1,8.11-1.55,20.07,20.07,0,0,1,9,1.56,16.39,16.39,0,0,1,2.81,1.62c-.4-.39-.8-.79-1.22-1.18a68.71,68.71,0,0,1,10.51.82,18.56,18.56,0,0,1,9.83,5.29A14.56,14.56,0,0,1,120,98.32c0,4-2.82,7.25-5.43,10a.34.34,0,0,0,.15.56,3.86,3.86,0,0,0,1.17.07c1.33-3.37,4-6.08,5-9.58A13.22,13.22,0,0,0,119,88c-4.09-5.74-11.24-8.91-18-10.19-3.13-.62-6-.35-9.11-.52-1.51-.08-3.8-.1-4-2-.18-1.71,2.79-2.75,4.41-3.24a54.61,54.61,0,0,0-6.88.75A41.74,41.74,0,0,0,75.6,75.3c-.49.21-1,.45-1.45.71a.32.32,0,0,0-.29-.09A48.94,48.94,0,0,0,64.18,79,30.62,30.62,0,0,0,56,84.53c-1.11,1-2.18,2-3.24,3,2.09-.34,5.16.15,4.15,2.66-.84,2.09-3.33,4-4.81,5.69-2.14,2.45-4.16,5-6.23,7.46-3.49,4.28-7.34,9-8.45,14.56,2.19-2.13,4.34-3.75,5.22-7a.53.53,0,0,1,1,0,6.08,6.08,0,0,1,.29,2.17,14.38,14.38,0,0,1,.82-1.26c.26-.37,1-.32.94.25a11,11,0,0,1-1,4.24,9.84,9.84,0,0,1,1.54-.48.49.49,0,0,1,.56.73c-1.23,2.16-3.7,3.78-5.77,5-1.79,1.08-4.48,2.84-6.7,2.34a3.56,3.56,0,0,1-2.82-3.09,10.55,10.55,0,0,0,1.11,7.32s0,0,0,.07c1.17,2.55,4.5,2.05,6.69,1.4a16.16,16.16,0,0,0,5-2.74,23.82,23.82,0,0,0,2.42-2.18,9.71,9.71,0,0,0,1-.34,7.07,7.07,0,0,0,.8-.33c.78-.12,1.73-.4,1.8-1.15s-.84-1.12-1.3-1.33a4.67,4.67,0,0,0-1.36-.41c.66-.49,1.78-1.39,1.4-2.17s-1.36-.73-2.3-.48a10.12,10.12,0,0,0,1.69-1.77,3.14,3.14,0,0,0,1-2.4c-.16-.85-1.11-.84-1.76-.67a72.64,72.64,0,0,1,6.92-8.42c1.39-1.42,2.84-2.81,4.27-4.21,1-1,2-2,3-3a125.94,125.94,0,0,0-.46,14.39c.18,6,.78,12.38,3,18.05-.83-.1-1.69-.17-2.56-.19a2.06,2.06,0,0,1,.84,2.81c-1.75,3.35-7.81,3-10.92,4.17-1.86.7-4.46,1.36-5.83,2.87-1.88,2.06,3.91,4.73,5.18,5.16a22.43,22.43,0,0,0,3.48.92c-.4-.14-.79-.28-1.19-.45s-1-.4-1.54-.63c0,0,0,0,0,0-.71-.8,6.32-2.9,7.1-3.07a57,57,0,0,1,15.32-1.11,29.25,29.25,0,0,0,6.26,1.41A103.13,103.13,0,0,0,91,143.1a32.6,32.6,0,0,0,4.41-.18C98.34,145,102.27,145.76,105.71,146.27Z"/><path class="cls-9" d="M62.85,87.41c5.36,1.81,11.32,2.07,16.23-1.19a20.88,20.88,0,0,0,6-6.33,24.63,24.63,0,0,1,4.65-5.08,31.36,31.36,0,0,0,2.7-2.72,52.75,52.75,0,0,0-7,.75A41.74,41.74,0,0,0,75.6,75.3c-.49.21-1,.45-1.45.71a.32.32,0,0,0-.29-.09A48.94,48.94,0,0,0,64.18,79,30.62,30.62,0,0,0,56,84.53c-.13.11-.26.24-.42.36C58,85.57,60.37,86.56,62.85,87.41Z"/><path class="cls-9" d="M134.41,140.08c.4,8.26-23.84,17.35-29.11,17.9-.49.06-.59-.55-.34-.85a9.72,9.72,0,0,1,2.1-1.85,24.09,24.09,0,0,1-5.49,1.35.51.51,0,0,1-.25-.94,11.92,11.92,0,0,0,1.64-1.08c-1.63,0-3.24.09-4.86,0,.72.18,1.45.38,2.18.62-1.39,1-3.4.58-4.52,2a.32.32,0,0,0,.12.46c1.67,1,3.73.4,5.58.06-1.19,1.08-2.7,1.92-2.92,3.66a.39.39,0,0,0,.39.38,3,3,0,0,0,1.67-.52A6.53,6.53,0,0,0,99,164.52c0,.25.15.55.44.45a7.06,7.06,0,0,0,2-1.24c-.82,1.39-1.56,3.21.07,2.92a5.35,5.35,0,0,0,1.9-.93,36,36,0,0,1,3.62-2.07c2.29-1.14,4.64-2.11,7-3.12,4.58-2,9.2-4,13.34-6.84a38.21,38.21,0,0,0,4.73-3.8,9,9,0,0,0,3.08-4.88.37.37,0,0,0,0-.26A5.9,5.9,0,0,0,134.41,140.08Z"/><path class="cls-4" d="M127.09,134.11a37.4,37.4,0,0,0-8.29-2.52,33.18,33.18,0,0,0-5.86-.73,68.37,68.37,0,0,0-1-8.6,58.39,58.39,0,0,0-1.89-9,48,48,0,0,0-2.28-8.6,81.17,81.17,0,0,0-3.32-9.31A39.62,39.62,0,0,0,95.31,82.5a68.71,68.71,0,0,1,10.51.82,18.56,18.56,0,0,1,9.83,5.29A14.56,14.56,0,0,1,120,98.32c0,4-2.82,7.25-5.43,10a.34.34,0,0,0,.15.56,4.93,4.93,0,0,0,4.55-1.56,17.67,17.67,0,0,0-.65,2.84c-.08.62,0,1.46.8,1.56a2.46,2.46,0,0,0,1.86-.91,8.07,8.07,0,0,0,1.45-2.07,5.08,5.08,0,0,0-.06,1.82c.11.63.44,1.69,1.26,1.58s1.09-.9,1.38-1.42c.09-.19.17-.37.26-.54a4.81,4.81,0,0,0,.63,2.59,1.3,1.3,0,0,0,1.52.6c.79-.34.51-1.51.62-2.2.2-1.27.37-2.52.65-3.76a51.82,51.82,0,0,0,1.15-5.43c.42-3.52-.46-6.59-1.84-9.81a31.43,31.43,0,0,0-12-14.35,31.91,31.91,0,0,0-8.83-3.59,61.11,61.11,0,0,0-10.54-2,45.11,45.11,0,0,0-11.48.67A41.74,41.74,0,0,0,75.6,75.3c-.49.21-1,.45-1.45.71a.32.32,0,0,0-.29-.09A48.94,48.94,0,0,0,64.18,79,30.62,30.62,0,0,0,56,84.53,96.85,96.85,0,0,0,42.13,100a77.26,77.26,0,0,0-9,15.29c-1.65,4-2.95,9.09-.57,12.94,0,0,0,0,0,.07,1.17,2.55,4.5,2.05,6.69,1.4a16.16,16.16,0,0,0,5-2.74,23.82,23.82,0,0,0,2.42-2.18,9.71,9.71,0,0,0,1-.34,7.07,7.07,0,0,0,.8-.33c.78-.12,1.73-.4,1.8-1.15s-.84-1.12-1.3-1.33a4.67,4.67,0,0,0-1.36-.41c.66-.49,1.78-1.39,1.4-2.17s-1.36-.73-2.3-.48a10.12,10.12,0,0,0,1.69-1.77,3.14,3.14,0,0,0,1-2.4c-.17-.95-1.38-.83-2-.6a5.35,5.35,0,0,0-1.08.57,17.71,17.71,0,0,0,.41-2.31c.07-.52.24-1.62-.24-2-1-.88-1.86.49-2.34,1.74a6.29,6.29,0,0,0-.18-1.88c-.12-.51-.28-1.33-.93-1.38s-.72,1.13-.75,1.5a9.53,9.53,0,0,1-.43,2.76s-.05,0-.09.06c-.85.93-1.8,1.74-2.73,2.61a32.42,32.42,0,0,0-2.89,3.28c0,.08,0,.2.12.12,1.06-1,2.1-2,3.18-3a16,16,0,0,0,2.73-2.72.17.17,0,0,0,0-.2c.71-.68.58-2,.68-2.92,0,0,.18-1.1.39-.78a4.1,4.1,0,0,1,.36,1.14c.17.76.11,1.54.23,2.28a4.29,4.29,0,0,0-.12.5c0,.1.13.17.18.07a17.55,17.55,0,0,1,.9-1.85,2.56,2.56,0,0,1,.84-.89c.58-.34.66.35.67.71.09,1.11-.24,2.24-.26,3.38a9.87,9.87,0,0,0-1.25,1.16c-.08.1,0,.23.16.15.53-.44,4.22-2.69,3.83-.84-.33,1.48-1.88,2.49-2.81,3.57a.17.17,0,0,0,0,.19c-.44.13-.82.26-1.1.31-.11,0-.08.2,0,.19.52,0,1-.13,1.54-.17s1.47-.21,1.93.15-1,1.56-1.21,1.91a7.31,7.31,0,0,0-.81,0c-.14,0-.19.23,0,.24a7.49,7.49,0,0,1,1.81.51,3.36,3.36,0,0,1,1.5,1.06c.17.25-.79.55-1.39.73a2,2,0,0,0-.35.07c.12-.11.27-.21.41-.32s.06-.31-.1-.26c-1.2.23-1.9,1.18-2.72,2A21,21,0,0,1,41.37,128c-2.24,1.27-5.87,2.36-8.14.64-2.59-4.39-1.06-9.74.88-14.15a77.59,77.59,0,0,1,8.83-14.58A100.61,100.61,0,0,1,56.07,85.27a31.53,31.53,0,0,1,8-5.47,63.2,63.2,0,0,1,8.28-2.74,20.27,20.27,0,0,0-2.67,2.15.1.1,0,1,0,.14.14,24.92,24.92,0,0,1,9.29-4.42,68.25,68.25,0,0,1,11.59-2,41.41,41.41,0,0,1,12.15.94,51.78,51.78,0,0,1,9.85,2.89c6.27,2.71,11.08,8,14.08,14,1.66,3.38,3,6.94,2.61,10.75a43.43,43.43,0,0,1-1.1,5.68c-.21,1-.37,2-.49,3-.08.52-.21,1-.29,1.55,0,.32.17,1.26-.4.94a2,2,0,0,1-.67-1.25,6.25,6.25,0,0,1,0-3.24.12.12,0,0,0-.2-.11c-.08.1-.12.2-.19.29l0,0c-.62.89-.87,2-1.64,2.84s-.95-.25-1.07-.86a7.43,7.43,0,0,1,.17-3s0-.07,0-.09a.68.68,0,0,0,.12-.24.15.15,0,0,0-.25-.15c-.65.88-1.23,1.83-1.87,2.75A3.21,3.21,0,0,1,119.8,111c-.91.27-.2-1.86-.12-2.21a7.31,7.31,0,0,0,.13-2.87.1.1,0,0,0-.2,0c0,.24-.09.46-.14.71a6.19,6.19,0,0,1-3.93,1.69c2.43-2.6,4.81-5.51,5.2-9.17S119.27,91.79,117,89c-5.4-6.51-14.08-7.4-22-6.8-.56-.5-1.11-1-1.71-1.44,0-.06-.16,0-.09.1,1.93,2,3.92,4,5.65,6.24a39.18,39.18,0,0,1,4.9,8.11c2.75,6,4.2,12.47,5.92,18.8,0,0,0,.06,0,.07.41,2.18.8,4.36,1.15,6.52a98.53,98.53,0,0,1,1.2,9.8c.16,3.19-.51,6.38-2.8,8.68s-5.39,2.73-8.26,3.11c-.2,0-.21.31,0,.29,2.84-.16,5.74-.61,8.1-2.38a10.39,10.39,0,0,0,3.8-7.66,7.08,7.08,0,0,0,0-.92,46.94,46.94,0,0,1,12.15,2.68,20.28,20.28,0,0,1,6.48,3.75A10,10,0,0,1,134,141c.93,1.8.44,3.55-.34,5.29a.34.34,0,0,0,.05.39c-1.31,2.37-4,4.25-6,5.73a57,57,0,0,1-10.81,5.94c-3.67,1.65-7.44,3.15-11,5-1,.51-1.89,1.05-2.79,1.64-.21.13-1.83,1.18-1.71.55a7.75,7.75,0,0,1,1.68-3c.21-.28-.18-.62-.46-.46-.94.56-1.74,1.38-2.72,1.88a11.66,11.66,0,0,1,2.65-3.71.39.39,0,0,0-.38-.63c-1,.29-1.75,1.16-2.73,1.37.44-1.44,2.13-2.3,3-3.44a.29.29,0,0,0-.22-.48c-1.78,0-3.91.94-5.64.26,1.16-1.09,3.23-.77,4.39-2a.25.25,0,0,0-.06-.39c-1.9-1.06-4.14-1.28-6.1-2.15a24.49,24.49,0,0,0,5.22-.57,46.51,46.51,0,0,0,9.17-2.24c4.22-1.49,9-3.41,11.89-7,.11-.12-.06-.29-.16-.19a16.89,16.89,0,0,1-4.18,2.87h-.06c-3.56.78-7.61.26-11.2-.26a38.68,38.68,0,0,1-9.32-2.64,17.24,17.24,0,0,0,4.73-1.37,13.22,13.22,0,0,0,1.63-.84c.16-.08,0-.35-.12-.29-6.62,2.62-13.46,2.06-20.37,1.42a26,26,0,0,1-9.42-2.37A15.49,15.49,0,0,1,66,132.13c-3.11-6.24-3.63-13.83-3.81-20.68-.2-7.75.66-15.4,1.17-23.11a.13.13,0,0,0-.25,0,128.22,128.22,0,0,0-1.69,24.12c.18,6,.78,12.38,3,18.05a33.06,33.06,0,0,0-9.77.45,31.47,31.47,0,0,0-10.09,3.42c-4.1,2.28-8.87,7-8.64,11.89h0a1.75,1.75,0,0,0,0,.33,7.42,7.42,0,0,0,1.46,3.75.12.12,0,0,0,.13,0,14.23,14.23,0,0,0,3.69,3.21,53.22,53.22,0,0,0,10.88,5.25c4.65,1.7,9.69,3,13.8,5.88,1.16.81,2.23,1.55,3-.05a3.1,3.1,0,0,0,.12-2.43c1.19,1,2.73,2.77,4,1.37.83-.88-.58-2.48-1.45-3.38,1.63.06,3.19.4,4.8-.09a.29.29,0,0,0,.14-.48c-.94-1.15-2.41-1.57-3.76-2.11.61-.07,1.23-.17,1.85-.27.9-.13,2.1-.45,2.3-1.5.25-1.25-1.93-2-3.65-2.42a4.51,4.51,0,0,0,3.06-1.57c.39-.69-.4-1.31-.92-1.62a3,3,0,0,0-1.47-.24,2.31,2.31,0,0,0,1.47-2,.19.19,0,0,0-.21-.21,17.51,17.51,0,0,0-3.28.46,25.27,25.27,0,0,1-4.51.3,38.05,38.05,0,0,1-8.44-.95,40.24,40.24,0,0,1-5.61-1.71c-.5-.18-1-.4-1.54-.63,0,0,0,0,0,0-.71-.8,6.32-2.9,7.1-3.07a57,57,0,0,1,15.32-1.11,29.25,29.25,0,0,0,6.26,1.41A103.13,103.13,0,0,0,91,143.1a32.6,32.6,0,0,0,4.41-.18c2.93,2.07,6.86,2.84,10.3,3.35,1.91.27,3.84.41,5.76.51a18.61,18.61,0,0,0,3.25-.06c-1.74.84-3.49,1.56-5.3,2.23a47.68,47.68,0,0,1-8.22,2.19,29.14,29.14,0,0,1-7.88.69.23.23,0,0,0-.14,0c-.28-.1-.57.23-.32.47,2.12,1.9,4.86,2,7.42,2.92-1.39,1-3.4.58-4.52,2a.32.32,0,0,0,.12.46c1.67,1,3.73.4,5.58.06-1.19,1.08-2.7,1.92-2.92,3.66a.39.39,0,0,0,.39.38,3,3,0,0,0,1.67-.52A6.53,6.53,0,0,0,99,164.52c0,.25.15.55.44.45a7.06,7.06,0,0,0,2-1.24c-.82,1.39-1.56,3.21.07,2.92a5.35,5.35,0,0,0,1.9-.93,36,36,0,0,1,3.62-2.07c2.29-1.14,4.64-2.11,7-3.12,4.58-2,9.2-4,13.34-6.84a38.21,38.21,0,0,0,4.73-3.8,9,9,0,0,0,3.08-4.88.37.37,0,0,0,0-.26C136.48,140,131,135.93,127.09,134.11ZM70.71,140.2c-1.91,0-3.82.06-5.76.21a39.07,39.07,0,0,0-7.29,1.21c-.64.18-6.46,1.89-6.4,3.27a9,9,0,0,1-3.41-2.59c-.07-.09-.24,0-.16.09,2.53,3.84,8,5.15,12.25,6a38.62,38.62,0,0,0,10.23.64,17.39,17.39,0,0,0,1.92-.27c.2-.05,3-.75,2.91-.48-.14.81-1.36,1.39-2.32,1.82-.45.08-.88.18-1.25.22s-.19.35,0,.41a6.81,6.81,0,0,0,2.66,0c.88,0,2.38.55,1.11,1.3a8.51,8.51,0,0,1-3.71.92.33.33,0,0,0-.09.64c.89.31,5.16,1,5,2.26-.25,1.59-3.9,1.18-5,1.15a.36.36,0,0,0-.19.66c1.42.77,3.3,1,4.53,2.09-1.59.33-3.15-.05-4.77,0a.26.26,0,0,0-.18.45c.45.46,2.86,2.9,1.47,3.3s-2.32-1.41-3.52-1.9a4,4,0,0,0-.78-1,.19.19,0,0,0-.27.25,3.49,3.49,0,0,1,.52.81s0,.07,0,.1a4.81,4.81,0,0,1,.34,1.84c0,.8-.74,1.7-1.56,1.22-.4-.24-.74-.54-1.12-.8a26,26,0,0,0-5-2.58c-3.51-1.48-7.17-2.54-10.72-3.94a54,54,0,0,1-8.39-4.22,14.28,14.28,0,0,1-4.94-4.62c-2-6.05,4-11.53,9.08-14.14a34.33,34.33,0,0,1,18.63-3.2h.07c.23.57.48,1.12.76,1.67a16,16,0,0,0,6.11,6.79c.28.18.59.32.86.48C71.84,140.16,71.28,140.2,70.71,140.2Z"/><path class="cls-5" d="M89.67,145.53c-8.89,0-16.43-2.66-19.24-6.78-5.09-7.43-3-16.19-1.33-23.26.43-1.82.83-3.54,1.12-5.14.23-1.32.38-2.76.56-4.25.86-7.43,2-16.63,11.2-18.22a25.27,25.27,0,0,1,4.37-.4c9.66,0,14.28,6.63,21.26,16.66l1.06,1.52c6.15,8.83,8,22.15,4.08,29.71-2.52,4.91-9.94,10.16-23.08,10.16Z"/><path class="cls-10" d="M86.35,87.73c10,0,14.56,7.27,22.1,18.07,5.92,8.48,8,21.81,4.08,29.45-3.57,6.92-13.45,10-22.86,10-8.24,0-16.1-2.38-19-6.67-6.28-9.17-1.52-20.23-.16-28.22S71.16,90,82,88.13a25,25,0,0,1,4.33-.4Zm0-.51a25.85,25.85,0,0,0-4.41.41C72.5,89.25,71.4,98.56,70.53,106.05c-.18,1.52-.36,3-.57,4.26-.27,1.59-.68,3.31-1.12,5.12-1.68,7.1-3.78,16,1.38,23.47,2.86,4.18,10.5,6.88,19.45,6.88a37.71,37.71,0,0,0,13.81-2.45c4.5-1.81,7.79-4.52,9.5-7.84,3.94-7.63,2.11-21.09-4.12-30-.34-.51-.7-1-1-1.52-7-10.09-11.67-16.77-21.47-16.77Z"/><path class="cls-6" d="M108.45,105.8c-1.77-2.53-3.37-4.87-4.91-7a17.05,17.05,0,0,1,1.21,5.29c.1,2,0,4.14,1.2,5.83a30.74,30.74,0,0,0,2.46,2.87,9.41,9.41,0,0,1,2.8,5.09c.79,4.93-4.4,9-8.28,10.94a28.52,28.52,0,0,1-11.22,3.08c-3.55.17-8,0-10.81-2.55a6.75,6.75,0,0,1-.63-9.51c1.83-2.1,4.66-3.7,5.25-6.63.55-2.72-1.64-3.67-3.45-5.11-5.18-4.08-6.55-13.66-2.68-19.26-8.12,3.28-7.69,14.23-8.93,21.51-1.36,8-6.12,19,.16,28.22s35.21,9.61,41.91-3.36C116.49,127.61,114.37,114.28,108.45,105.8Z"/><g class="cls-11"><path class="cls-12" d="M114,130.92a29.91,29.91,0,0,0-.06-11.35,89.86,89.86,0,0,1-16,2.46,160.79,160.79,0,0,1-22.17-.49c-4.55-.38-9.43-.55-13.88-1.9a43.15,43.15,0,0,0,2.5,10.85c-.6-.09-1.19-.12-1.79-.16a7.19,7.19,0,0,0,3.29,3.15c.59.34,2.29.79,2.6,1.39,1.62,3,5.48,2.57,8.36,3a5.6,5.6,0,0,1,2.63,1.17,19.17,19.17,0,0,0,4.38,2.15c1.12.42,2,1.29,3.11,1.77a8.66,8.66,0,0,0,6,.44,11.26,11.26,0,0,1,4.64-.53,13.67,13.67,0,0,0,5.9-.17c1.94-.57,4.15-1.3,5.61-2.81.89-.9,1.35-2.19,2.28-3.05a4.05,4.05,0,0,1,2.39-1.15,7.53,7.53,0,0,0,5-2.12,11.26,11.26,0,0,0,1.43-1.68l-1.43-.31A37,37,0,0,0,114,130.92Z"/></g><path class="cls-13" d="M93.27,100.41c-3.43-2.28-6.78-2.25-10.41-.28-2.1,1.16-3.77,3.09-5.62,4.58a47.42,47.42,0,0,1-7,4.85c-3,1.65-11.92,6-10.23,10.76.27,2.82,1.43,3.16,4.6,3.54,3.73.46,7.26-1.26,10.32-3.2a52.49,52.49,0,0,0,9.4-8.34,91.19,91.19,0,0,0,9.53-10.89A.66.66,0,0,0,93.27,100.41Z"/><path class="cls-13" d="M114.49,108.32a12.24,12.24,0,0,0,.62-2c1.83-2.63,4.68-8.65,3.18-10.68-1.27-2.53-4.45-4.09-6.91-5.29-2.12-1-5.81-2.47-7.88-.67a.18.18,0,0,0,.09.33.44.44,0,0,1,.15,0,5.55,5.55,0,0,0,1.71,2.47c1.79.79,3.8.81,5.27,2.16,3,2.67,2.72,5.24,1.24,8.81-.81,1.92-.45,3.76.09,5.69-1.27,2.49-2.19,5.2-3.64,7.64a50,50,0,0,1-7,8.79c-2.6,2.77-5.23,5.46-7.65,8.39-1.38,1.68-2.22,3.11-1.1,4.93-.13.07-.2.22-.06.33,6.72,5.65,16.5-2.53,20.34-8,4.69-6.64,7.52-16.42,1.57-22.94A0,0,0,0,0,114.49,108.32Z"/><path class="cls-14" d="M115.73,97a8.85,8.85,0,0,1-.84-.47c-.92-.55-1.7-1.32-2.62-1.86a18.44,18.44,0,0,0-3.71-1.26c-1.93-.61-4.9-1.75-5.28-3.92a.58.58,0,0,0-.5.44,23.86,23.86,0,0,1-2.92,6.52c-.54.5-1.07,1.05-1.61,1.51a27.6,27.6,0,0,1-2.9,2.07L95,100a.68.68,0,0,0-.44.13c-3.57-1-7-.65-9.9,1.87s-4.25,6.37-6.13,9.59c-2.61,4.45-5.76,7.81-10.47,10a7.4,7.4,0,0,0-4.17,4.84c-1.25,1.52.79,2.7,2.13,3.37a8.53,8.53,0,0,0,3.61.91c-.58,1.51,2.3,2.47,3.84,2.85a15.22,15.22,0,0,0,5.14.61c-1.59,2.45,3.07,3.8,5.19,4a11.17,11.17,0,0,0,2.08,0c.83,5.12,10.45,2.86,13.31,1.44,5.36-2.68,10.46-7,13-12.53a32.72,32.72,0,0,0,2-5.6c.61-2.31,1.52-4.72,1.18-7.16a4.52,4.52,0,0,0-.47-1.58c-.19-.42-.74-.79-.88-1.17a5,5,0,0,0-.77-1.28c-.11-1.71-.33-3.45-.57-5.15a14.28,14.28,0,0,0,2.06-4.27A19.73,19.73,0,0,0,115.73,97Zm-17.35,7.25a5.47,5.47,0,0,0-.34-2l2.53-2.2c.5-.41,1.07-.81,1.61-1.21-.74,1.17-1.39,2.43-2.2,3.56C99.53,103,98.93,103.63,98.38,104.26Zm6.39.7c-.2.64-.44,1.29-.71,1.94a4.21,4.21,0,0,0-1.63.28,4.32,4.32,0,0,0-.3-.61c.5-.71.9-1.51,1.27-2.16.71-1.33,1.31-2.72,2-4.08A21,21,0,0,1,104.77,105Zm3.87,4.75c-.29-.86-.56-1.66-.73-2.38.17-.55.28-1.09.4-1.65a15.9,15.9,0,0,0,.87-2.11c0,.84,0,1.69.08,2.54.09,1.09.25,2.1.37,3.08A5.86,5.86,0,0,0,108.64,109.71Z"/><path class="cls-15" d="M115.73,97a8.85,8.85,0,0,1-.84-.47c-.92-.55-1.7-1.32-2.62-1.86a18.44,18.44,0,0,0-3.71-1.26,14.17,14.17,0,0,1-3.63-1.63A2.94,2.94,0,0,0,106.37,93c2.2.75,5.06.68,6.45,2.93.88,1.36,2.62,1,1.8,3a14.23,14.23,0,0,1-1.63,2.93c-1.28,1.88-1.18,3.41-1.11,5.55a.5.5,0,0,1-1,.09c-.28-2.56-.3-4.17.58-6a.49.49,0,0,1-.58-.7c.29-.61.58-1.22.86-1.85-3.18-.63-3.91,5.37-5,7.28a.5.5,0,0,1-.94-.33,19.77,19.77,0,0,1,2.11-6.75,1.5,1.5,0,0,0-.24.21.52.52,0,0,1-.78-.53c.13-.45,1-2.63.91-2.6a6.83,6.83,0,0,0-3,2.67c-1.14,1.66-2,3.57-3.56,5-.28.24-.9.2-.89-.3.09-2.44,2.49-4.13,3.69-6.2a.5.5,0,0,1-.68-.55,17.66,17.66,0,0,0,.23-2.69,46.67,46.67,0,0,1-3.45,4.53C99.2,99.66,98.06,101,96.5,101a.49.49,0,0,1-.49-.7,5.35,5.35,0,0,1,1.85-1.9c.18-.19.35-.37.51-.57l-.12.11a27.6,27.6,0,0,1-2.9,2.07L95,100a.68.68,0,0,0-.44.13,14.6,14.6,0,0,0-3.46-.5A4.26,4.26,0,0,1,93,100.88a.51.51,0,0,1,0,.79c-2.18,1.53-4.51,2-6.27,4.27a51.33,51.33,0,0,0-4.54,7.26c-2,3.6-4.62,7.27-8.1,9.56-1.61,1.09-5.24,3.25-7.31,2.47-1.3-.5-1.11-1.54-.49-2.53a7.71,7.71,0,0,0-2.39,3.72c-1.25,1.52.79,2.7,2.13,3.37a8.53,8.53,0,0,0,3.61.91c-.58,1.51,2.3,2.47,3.84,2.85a15.22,15.22,0,0,0,5.14.61c-1.59,2.45,3.07,3.8,5.19,4a11.17,11.17,0,0,0,2.08,0c.83,5.12,10.45,2.86,13.31,1.44,5.36-2.68,10.46-7,13-12.53a32.72,32.72,0,0,0,2-5.6c.61-2.31,1.52-4.72,1.18-7.16a4.52,4.52,0,0,0-.47-1.58c-.19-.42-.74-.79-.88-1.17a5,5,0,0,0-.77-1.28c-.11-1.71-.33-3.45-.57-5.15a14.28,14.28,0,0,0,2.06-4.27A19.73,19.73,0,0,0,115.73,97Zm-7.42,8.67a15.9,15.9,0,0,0,.87-2.11c0,.84,0,1.69.08,2.54.09,1.09.25,2.1.37,3.08a5.86,5.86,0,0,0-1,.52c-.29-.86-.56-1.66-.73-2.38C108.08,106.78,108.19,106.24,108.31,105.68Zm-4.91-1.27c.71-1.33,1.31-2.72,2-4.08a21,21,0,0,1-.61,4.63c-.2.64-.44,1.29-.71,1.94a4.21,4.21,0,0,0-1.63.28,4.32,4.32,0,0,0-.3-.61C102.63,105.86,103,105.06,103.4,104.41ZM100.57,100c.5-.41,1.07-.81,1.61-1.21-.74,1.17-1.39,2.43-2.2,3.56-.45.63-1,1.24-1.6,1.87a5.47,5.47,0,0,0-.34-2ZM80.51,127.85c-2.57,1.3-6.6,3.36-9.65,2.88-2.32-.36-1.59-2.49-.06-3.48,4-2.56,7.81-5.12,10.57-9.11,2.57-3.74,4.68-7.85,8.24-10.76,2.3-1.87,6.16-4.14,9.23-2.78,1.55.24,1.15,2.3.45,3.69-2.14,4.14-5.6,8.14-8.73,11.59A36.74,36.74,0,0,1,80.51,127.85Zm4.42,7.64a.51.51,0,0,1-.33-.92,52.72,52.72,0,0,0,13.09-15.16c1.51-2.51,3-5.06,4.28-7.67a11.09,11.09,0,0,1,2.19-3.53,2.11,2.11,0,0,1,1.26-1.08c.82-.23,1.35.47,1.55,1.14.37,1.13-.4,2.87-.83,3.9a42.85,42.85,0,0,1-3.47,6.24c-2.61,4-5.11,8.34-8.67,11.64C91.47,132.38,88.5,135.11,84.93,135.49Zm29.32-21.6c.33,3.5-1.19,7.23-2.77,10.28a30.84,30.84,0,0,1-7.73,10c-2.72,2.21-6.48,5.26-10.16,5.4-.47,0-.77-.65-.32-.91,6-3.55,11.66-7.76,14.43-14.37,1.35-3.21,2.67-7.09,2.08-10.61-.28-1.57-.43-3,1-3.94a.16.16,0,0,1,.12,0,.37.37,0,0,1,.27-.15C113.43,109.37,114.08,112.16,114.25,113.89Z"/><path class="cls-16" d="M100.48,104.79c-2.52-1.79-6-1.1-8.64.26-3,1.52-5.14,4.09-7,6.78a77.57,77.57,0,0,1-6.39,8.52A54.34,54.34,0,0,1,73.25,125c-1.35,1.11-2.75,1.91-3.59,3.55a.1.1,0,0,0,.18.08c1.07-1.73,2.91-2.47,4.47-3.65a45.39,45.39,0,0,0,4-3.52,48.88,48.88,0,0,0,6-7.72,27.74,27.74,0,0,1,5.89-6.83c2.48-1.85,7.07-3.52,10-1.85A.18.18,0,0,0,100.48,104.79Z"/><path class="cls-16" d="M106.1,99.55c-2.39,1.65-3.75,4.79-4.78,7.39a.12.12,0,0,0,.18.13c.22-.24.41-.48.61-.72,0,3.6-2.54,6.23-4.59,9s-4.17,5.68-6.42,8.37a44.12,44.12,0,0,1-7.52,7.25,12.55,12.55,0,0,1-5.39,2.21,25.23,25.23,0,0,1-6.14,0,4,4,0,0,0,.66.29c3.57.69,6.25,1.45,9.52-.36s6.68-5.83,9.08-8.64c2.57-3,4.86-6.2,7.19-9.38,1.89-2.56,4.47-5.36,3.9-8.8a.15.15,0,0,0-.12-.12,20.17,20.17,0,0,0,1.46-2.44,22.06,22.06,0,0,1,2.53-3.92C106.37,99.63,106.23,99.46,106.1,99.55Z"/><path class="cls-16" d="M110.86,109a3.7,3.7,0,0,0-2.26.59,3.56,3.56,0,0,0-.74-1.43c.78-2.19,1-4.54,2.33-6.55,0,0,0-.08-.06-.05a9.52,9.52,0,0,0-2.87,6c-.21-.15-.42-.31-.67-.46s-.22.11-.11.19a3.59,3.59,0,0,1,.78.83v.18a.3.3,0,0,0,.25.24,5.47,5.47,0,0,1,.41,3.06c-.62,2.72-2.21,5.39-3.39,7.77A48.11,48.11,0,0,1,99,128.06a32.15,32.15,0,0,1-7.54,6.5c-3.08,2-6.45,4.25-10.18,2.87-.09,0-.6-.12-.51-.07,3.4,1.54,6.58.51,9.67-1.29A33.34,33.34,0,0,0,99,129.15a37.33,37.33,0,0,0,3.07-4.12c.64-.81,1.27-1.62,1.84-2.5a38.81,38.81,0,0,0,3.46-6.45,15.21,15.21,0,0,0,1.35-5.17c0-.22,0-.43,0-.64a2.72,2.72,0,0,1,.66-.6,3.78,3.78,0,0,1,1.47-.5C110.94,109.17,111,109,110.86,109Z"/><path class="cls-16" d="M95.45,100.41c-3.17-2.85-8.83-.41-10.89,1.7a4.28,4.28,0,0,0,.65-.38,7.89,7.89,0,0,1,4.3-1.87,9.38,9.38,0,0,1,5.77.82A.16.16,0,0,0,95.45,100.41Z"/><path class="cls-16" d="M102.73,98.08c-.92.75-1.92,1.38-2.9,2.09S98.13,102,97,102.6c-.07,0,0,.12.06.11a7.17,7.17,0,0,0,2.84-1.79,14.62,14.62,0,0,0,3-2.64C103,98.16,102.85,98,102.73,98.08Z"/><path class="cls-16" d="M117.67,97.09c-1.43.84-3-1.24-4.11-1.91a20.6,20.6,0,0,0-3.8-1.72c-2.26-.81-5.15-1.26-6.06-3.81,0-.14-.28-.08-.25,0,.41,3.06,3.51,3.56,6,4.45a19.75,19.75,0,0,1,5.39,2.8c1,.78,2,1.33,3,.34C118,97.18,117.8,97,117.67,97.09Z"/><path class="cls-17" d="M90.42,99.92c-1.64-1-4.5,1.18-5.73,2.09-2.48,1.88-4,4.83-5.43,7.52-1.79,3.42-3.6,6.7-6.71,9.09a55.28,55.28,0,0,0-4.76,3.49,6.3,6.3,0,0,0-1.47,1.58c-.35.58.33,1.17.88,1A22,22,0,0,0,79.36,114.4c2.09-3.62,3.74-6.72,7.06-9.42,1.13-.94,4.25-2.42,4.47-4.14A.87.87,0,0,0,90.42,99.92Z"/><path class="cls-17" d="M98.68,104.61a.82.82,0,0,0-.38-.4,4.29,4.29,0,0,0-1.88-.25,8.71,8.71,0,0,0-2.4.65,12.63,12.63,0,0,0-3.21,2,22,22,0,0,0-6.13,6.56,50.28,50.28,0,0,1-6.49,7.93,27.72,27.72,0,0,1-5.43,4.49,8.69,8.69,0,0,0-2.87,2.79c-.42.66.49,2.15,1.15,1.89,6.74-2.48,12-6.5,17.15-11.51,2.74-2.69,5.3-5.53,8-8.32a16.2,16.2,0,0,0,2-2.27A4.24,4.24,0,0,0,98.68,104.61Z"/><path class="cls-17" d="M112.87,96.7a3.64,3.64,0,0,0-.47-.28.59.59,0,0,0-.51-.29l-.27-.14a.61.61,0,0,0-.78-.52,3.3,3.3,0,0,0-1.25.64,3.58,3.58,0,0,0,.19-.66.32.32,0,0,0,0-.17.6.6,0,0,0-.26-.69,5.74,5.74,0,0,0-3.18-1.27,1.76,1.76,0,0,0-1,.32.33.33,0,0,0-.26.1,4.56,4.56,0,0,0-1.16,2.08.6.6,0,0,0,.63.72,2.15,2.15,0,0,0,1.15-.61l.06,0a32.28,32.28,0,0,0-4.52,6.55c-.18.3.27.55.49.33a61.1,61.1,0,0,0,4.46-5.44.29.29,0,0,0,.1,0c.51-.26,1-.6,1.5-.85a1.36,1.36,0,0,0,.28-.11c0,.06-.06.09-.09.15a2.29,2.29,0,0,0-.33,1.89.67.67,0,0,0,.83.45,13.91,13.91,0,0,0-1.84,5.76c0,.23.33.4.43.16a19.77,19.77,0,0,1,2.38-5.27.85.85,0,0,0,.45-.09A14.6,14.6,0,0,0,113,97.84.66.66,0,0,0,112.87,96.7Z"/><path class="cls-17" d="M102.69,92a39.94,39.94,0,0,1-2.13,4.3,7,7,0,0,1-4,3.46c-.18,0-.13.31,0,.36,1.63.47,3.37-1.21,4.3-2.34a22.33,22.33,0,0,0,3-5.23C104.15,91.82,103,91.27,102.69,92Z"/><path class="cls-18" d="M94.43,111.09c-3.05,3.23-6.26,6.3-9.44,9.41a49.91,49.91,0,0,1-10.67,8.23s0,.15.06.12a39.82,39.82,0,0,0,10.93-7.52c3.29-3,7-6.27,9.32-10.11C94.72,111.1,94.53,111,94.43,111.09Z"/><path class="cls-18" d="M87.52,103.74c-3.57,2.67-5.72,6.35-8.09,10a28.36,28.36,0,0,1-4.87,5.93c-1.7,1.52-3.59,2.85-5.37,4.29a.1.1,0,1,0,.12.17A66.92,66.92,0,0,0,75,120.3a22.69,22.69,0,0,0,4.39-5c1.36-2,2.56-4,3.9-6a50.87,50.87,0,0,1,4.42-5.39C87.76,103.82,87.63,103.66,87.52,103.74Z"/><path class="cls-18" d="M102.59,91.5A34.57,34.57,0,0,1,96.25,100c-.1.08,0,.27.16.17,3-2.16,5.64-4.81,6.39-8.56C102.84,91.44,102.65,91.39,102.59,91.5Z"/><path class="cls-18" d="M107.3,96.48c-2.82,1.27-3.88,3.9-5.47,6.33-.07.1.08.19.15.11,1.85-2,3.1-4.69,5.4-6.29C107.47,96.59,107.39,96.46,107.3,96.48Z"/><path class="cls-18" d="M110.16,98.38c-2.54.87-2.94,4.27-3.69,6.46-.06.16.17.27.24.12,1.07-2.17,1.73-4.72,3.58-6.4C110.39,98.48,110.27,98.34,110.16,98.38Z"/><path class="cls-18" d="M102.79,115.41a62.34,62.34,0,0,1-13.48,17.74c-.08.06,0,.19.09.12a53,53,0,0,0,8-7.86,42.13,42.13,0,0,0,5.66-9.85A.18.18,0,0,0,102.79,115.41Z"/><path class="cls-19" d="M114.49,108.32a12.24,12.24,0,0,0,.62-2c1.83-2.63,4.68-8.65,3.18-10.68-1.27-2.53-4.45-4.09-6.91-5.29-2-1-5.64-2.39-7.73-.79-.08,0-.21,0-.2.1s0,0,0,.06a.17.17,0,0,0,.06.26c0,.13,0,.26.07.37a2.94,2.94,0,0,1-.31-.89.58.58,0,0,0-.5.44A21.12,21.12,0,0,1,101.69,93a35.39,35.39,0,0,1-3.75,5.18A28.38,28.38,0,0,1,95.35,100L95,100h0a5.94,5.94,0,0,0-4.12-.85,9.45,9.45,0,0,0-8,1c-2.1,1.16-3.77,3.09-5.62,4.58a47.42,47.42,0,0,1-7,4.85c-3,1.65-11.92,6-10.23,10.76.27,2.82,1.43,3.16,4.6,3.54.16,0,.31,0,.47,0h0a9.35,9.35,0,0,0-.71,1.19c-.07.13-.12.26-.19.39a2.15,2.15,0,0,1-.11.25c-.07.22-.17.45-.23.68-1.25,1.52.79,2.7,2.13,3.37a8.53,8.53,0,0,0,3.61.91c-.42,1.12,1,1.93,2.44,2.45,0,0,.61.26.66.27.36.06.7.14,1,.21a15.27,15.27,0,0,0,4.86.53c-1.59,2.45,3.07,3.8,5.19,4a11.17,11.17,0,0,0,2.08,0c.59,3.63,5.6,3.56,9.49,2.69,6.39,2,14.23-4.77,17.56-9.49,4.69-6.64,7.52-16.42,1.57-22.94A0,0,0,0,0,114.49,108.32Zm-5.89,1.28a2.35,2.35,0,0,0-.16-.49c-.16-.5-.32-1-.44-1.43.44-1.32.72-2.68,1.18-4,0,.81,0,1.61.08,2.41.09,1.07.24,2.06.37,3A2.83,2.83,0,0,0,108.6,109.6Zm-6.2-3.36s0,0,0,0a18.93,18.93,0,0,0,1-1.78c.22-.43.45-.87.66-1.32.4-.72.82-1.4,1.27-2.07a17.25,17.25,0,0,1-.56,3.94c-.2.64-.44,1.29-.71,1.94a4.19,4.19,0,0,0-1.59.27A4.86,4.86,0,0,0,102.4,106.24Zm-4.34-3.9a12.46,12.46,0,0,0,1.87-1.42c.64-.51,1.28-1,1.88-1.47-.6,1-1.17,2-1.83,2.94a18.27,18.27,0,0,1-1.31,1.55c-.11,0-.2,0-.3-.06A4.85,4.85,0,0,0,98.06,102.34Z"/><path class="cls-20" d="M65.47,127.31c0-.45,0-.89,0-1.33a.26.26,0,0,0-.18-.23,2.64,2.64,0,0,1-.9-.33.17.17,0,0,0-.24,0c-.69.44-1.33,1.39-.86,2.17a2.07,2.07,0,0,0,1.82.92.34.34,0,0,0,.2-.09.42.42,0,0,0,.2,0,.19.19,0,0,0,.23-.19A4.76,4.76,0,0,1,65.47,127.31Z"/><path class="cls-20" d="M70.3,131.42a5.59,5.59,0,0,1-.37-2.57.25.25,0,0,0-.18-.1h0a.23.23,0,0,1-.12,0,4.07,4.07,0,0,1-1.73.1l-.17,0a.79.79,0,0,0-.49,1.26,2.29,2.29,0,0,0,.55,1.7,2.12,2.12,0,0,0,2.51.15.25.25,0,0,0,0-.35S70.31,131.51,70.3,131.42Z"/><path class="cls-20" d="M79.43,134.08c0-.1-.07-.15-.17-.15a7.55,7.55,0,0,1-1.15.15h-.74a2.44,2.44,0,0,0,.1,2.11,1.4,1.4,0,0,0,1.83.34.33.33,0,0,0,.15-.11.23.23,0,0,0,.15-.25,8,8,0,0,1-.23-1C79.34,134.82,79.43,134.44,79.43,134.08Z"/><path class="cls-20" d="M86.37,137.83s0,0,0-.05a5.08,5.08,0,0,1-2.57.31s0,0,0,.1c.13.79.51,1.61,1.45,1.6a1.71,1.71,0,0,0,1.07-.32.66.66,0,0,0,.28-.68A2.25,2.25,0,0,0,86.37,137.83Z"/><path class="cls-21" d="M98.58,103.49a5.48,5.48,0,0,0-.2-1,12,12,0,0,0,1.26-1l.43-.37.76-.57a4.6,4.6,0,0,0,.39-.51,19.72,19.72,0,0,1,3.7-4,2.31,2.31,0,0,1-1.51-1.1c-1.46,2.1-3.21,4.62-5.44,5.58-1.35.59-1.91-.21-2-1.24-.22.15-.45.3-.7.45l-.25,0-.33-.2a2.74,2.74,0,0,1-.16,3c-1.3,1.57-3.3,1.59-4.83,2.76a15.71,15.71,0,0,0-5,7,.31.31,0,0,1,0,.11,2.25,2.25,0,0,0-.08.24c2.27-4.6,8-9.47,13.18-8.84a5,5,0,0,1,.66-.11C98.52,103.64,98.54,103.57,98.58,103.49Z"/><path class="cls-21" d="M115.36,106.47c1.84-2.68,4.73-8.8,3.16-10.89-1.32-2.63-4.61-4.24-7-5.42a11.37,11.37,0,0,0-6.08-1.5c1.35.33,2.69.75,4,1.19,1.9.62,4.83,1.33,6.16,3,.81,1,.53,2.31-.89,2.34s-2.92-1.46-4.37-1.67A18.2,18.2,0,0,1,105.24,92a10.14,10.14,0,0,0,4.15,2.55c.9.37,2.21.85,2.73,1.75,1,1.63.13,2.92-1.63,3.28a.5.5,0,0,1-.61-.35,4.61,4.61,0,0,1,.11-2,5.8,5.8,0,0,1-2.68,1.55.51.51,0,0,1-.65-.48c0-.29,0-.56,0-.85a20.88,20.88,0,0,0-5.45,7.22.5.5,0,0,1-.57.24,5,5,0,0,0-1.42-.24,3.92,3.92,0,0,1,2.42,2.66c1.44-.45,3.12-.74,4.15.58.81,1,.53,2.72.07,3.83a8.58,8.58,0,0,1-3.32,4.17c-1.58.93-4.42,2.06-4.31,4.32.13,2.65,3.07,2,4.34.79a.51.51,0,0,1,.8.61,23.21,23.21,0,0,1-8.08,8.84c-2.18,1.31-5,2.81-7.67,2.78-1.94,0-2.24-1.49-1.16-3,2.64-3.59,5.73-6.75,7.93-10.58a42.06,42.06,0,0,1-10.13,8c-3.49,1.84-7.73,3.54-11.66,2.21s.34-4.23,2-5.69c.71-.63,2.13-1.84,2.89-2.47a33.72,33.72,0,0,1-6.12,3.48c-.9.36-4.47.94-5-.59-.46-1.31,1.35-2.41,2.21-3,5.74-4.07,9-9.69,12.59-15.46,2.2-3.5,4.8-6.15,8.59-7.16-3.56.84-6.51,3-9.29,6.06-2.33,2.58-5.4,6-9.26,5.25a.49.49,0,0,1-.35-.49,3.62,3.62,0,0,1,.16-.92c-.28.17-.57.33-.86.49l-.58.3c-3.42,1.82-11.4,6.09-9.78,10.75.29,3.06,1.76,3.37,4.81,3.73h0a5.91,5.91,0,0,0-.49.88,2,2,0,0,0-.18.42,1.4,1.4,0,0,0-.1.16,1.75,1.75,0,0,0-.65,1.85,1,1,0,0,0,0,.24c.21,1,1.46,1.76,2.62,2.36a10.92,10.92,0,0,0,1.38.53,2.07,2.07,0,0,0,.53,1.29,2.23,2.23,0,0,0,2.07.39A6.13,6.13,0,0,0,72,133.37a3.19,3.19,0,0,0,.71.31l.87.17.15,0a16.76,16.76,0,0,0,3.56.55,2.47,2.47,0,0,0,.23,1.76,1.23,1.23,0,0,0,1.38.49,10.28,10.28,0,0,0,4.91,1.7h.06c.13.73.53,1.42,1.39,1.41a1.86,1.86,0,0,0,1-.23c.85,1.3,2.57,2,5.08,2a20.13,20.13,0,0,0,4.1-.48,8.4,8.4,0,0,0,2.43.34h0c6.09,0,12.52-5.95,15.34-10a26.6,26.6,0,0,0,4.82-11.62,13.88,13.88,0,0,0-3.16-11.5A14.59,14.59,0,0,0,115.36,106.47Zm-10.84-1.58c-.17.56-.38,1.14-.62,1.76a4.06,4.06,0,0,0-1.18.17,3.93,3.93,0,0,0-.07-.6c.33-.54.63-1.07.89-1.56l.07-.13c.24-.43.45-.88.67-1.31s.49-.85.73-1.24A13.63,13.63,0,0,1,104.52,104.89Zm4.22,4.32a1.27,1.27,0,0,0-.06-.18c-.17-.53-.31-1-.4-1.34.17-.56.35-1.15.48-1.72.08-.24.14-.48.21-.74,0,.32,0,.61,0,.89,0,.76.15,1.48.24,2.19,0,.23.07.43.09.64A4.3,4.3,0,0,0,108.74,109.21Z"/><path class="cls-22" d="M118.83,96.25a2,2,0,0,1-.38.33A2.94,2.94,0,0,1,116,97a3.47,3.47,0,0,1,.27.59c.58,1.93-.51,3.83-1.27,5.56a10.87,10.87,0,0,1-2.88,3.9.39.39,0,0,1-.2.23,2.34,2.34,0,0,1-.67.21,1.29,1.29,0,0,1-1-.12,2.85,2.85,0,0,1-1-.71,10.36,10.36,0,0,0,1.2,3.22,6,6,0,0,1,.92,1.92.15.15,0,0,1,0,.06,2.25,2.25,0,0,1,0,.46.5.5,0,0,1-.77.4c-2.16,1.44-4.57,2.39-6.79,3.72a12.31,12.31,0,0,0-3.23,2.45c-1.56,1.91,2.08,1.73,3.11,1.39,2-.69,3.68-2.6,5.7-3.11.82-.2,1.81-.25,2.3.58.68,1.18-.41,2.88-.72,4-.43,1.52-.7,3.58-1.89,4.78-1.72,1.8-4.13,1.61-6.12,2.9s-6.91,4.34-3.85,7a.43.43,0,0,1,.12.53.52.52,0,0,1-.35.45c-1.9.66-4.81,2.55-6.88,1.47a2.46,2.46,0,0,1-1.12-3.37,11.73,11.73,0,0,1-6.35,1.26c-1.08-.12-4.46-.52-3.94-2.41.34-1.26,2.05-1.66,2.91-2.4a23.38,23.38,0,0,0,3.3-3.6,16.06,16.06,0,0,1-9.61,3.8c-1.79,0-7,.39-8.06-1.69a2.56,2.56,0,0,1,.8-3,13.08,13.08,0,0,1-5.86-.21.53.53,0,0,1-.36-.64c.68-2.23,2.24-3.31,3.89-4.31.36-.28.7-.52,1-.7.8-.57,1.54-1.17,2.24-1.77A4.65,4.65,0,0,1,70,120a2.21,2.21,0,0,1-2.82-1.23c-1-2.29-.24-5.15-.2-7.75-3.75,2.17-8.53,5.63-7.22,9.33.29,3.06,1.76,3.37,4.81,3.73h0a5.91,5.91,0,0,0-.49.88,2,2,0,0,0-.18.42,1.4,1.4,0,0,0-.1.16,1.75,1.75,0,0,0-.65,1.85,1,1,0,0,0,0,.24c.21,1,1.46,1.76,2.62,2.36a10.92,10.92,0,0,0,1.38.53,2.07,2.07,0,0,0,.53,1.29,2.23,2.23,0,0,0,2.07.39A6.13,6.13,0,0,0,72,133.37a3.19,3.19,0,0,0,.71.31l.87.17.15,0a16.76,16.76,0,0,0,3.56.55,2.47,2.47,0,0,0,.23,1.76,1.23,1.23,0,0,0,1.38.49,10.28,10.28,0,0,0,4.91,1.7h.06c.13.73.53,1.42,1.39,1.41a1.86,1.86,0,0,0,1-.23c.85,1.3,2.57,2,5.08,2a20.13,20.13,0,0,0,4.1-.48,8.4,8.4,0,0,0,2.43.34h0c6.09,0,12.52-5.95,15.34-10a26.6,26.6,0,0,0,4.82-11.62,13.88,13.88,0,0,0-3.16-11.5,14.59,14.59,0,0,0,.59-1.83C117,104,119.56,98.76,118.83,96.25Z"/><g class="cls-23"><path class="cls-5" d="M124.21,103.81a6.64,6.64,0,0,0-3.67.25c-1.46.66-2.12,2-3.2,3.07,0,0,0,.07,0,.1a6.45,6.45,0,0,1-4,1.25,12,12,0,0,0-4.25.75,10.06,10.06,0,0,0-3.35,2.54,17.59,17.59,0,0,1-4.18,2.88.16.16,0,0,0-.1.11c-1.24.75-2.39,1.83-2.07,3.38s2.06,1.6,3.33,1.42a6.44,6.44,0,0,0,2.7-1.13c1-.65,3.55-2.69,4.3-.71.36.93-.13,2.1-.41,3a45.85,45.85,0,0,1-1.64,5.18c-3.16,1.42-6.54,2.92-8.32,6-1.12,1.91-.6,4.86,2.09,4.07a8.66,8.66,0,0,0,2.55-1.45,22.13,22.13,0,0,0,4.65-.62,7.53,7.53,0,0,0,2.34-.73c1.2.78,2.85.12,4.13-.59h0a6,6,0,0,0,4-2c.89-.92,1.7-1.94,2.53-2.89.35-.41.76-.8,1.13-1.21a.33.33,0,0,0,.33-.15c1.7-2.6,2.41-6.2,2.92-9.21.31-1.82.53-3.63,1-5.42.21-.83.46-1.69.68-2.52s.68-1.6.88-2.48C129.07,104.61,125.5,104,124.21,103.81Z"/><path class="cls-6" d="M124.21,103.81a6.64,6.64,0,0,0-3.67.25c-1.46.66-2.12,2-3.2,3.07,0,0,0,.07,0,.1a6,6,0,0,1-3.24,1.21c.11,1.27,1.81,1.64,3.36,1.14.24-.08.41.16.37.38-.57,3.15,2.19,3.84,4.39,2.21.21-.16.45,0,.47.26.12,1.41,1.28,1.19,2,1a.29.29,0,0,1,.37.29,18.65,18.65,0,0,1-1.31,5.49,3.36,3.36,0,0,1-1.41,2,3.2,3.2,0,0,1-2.15-.2c-.81-.23-2-1-2.65,0a1.94,1.94,0,0,1-.63.76,1.51,1.51,0,0,1-1.81-.24c-.61-.58-1.11-1.39-2-.74a4,4,0,0,0-1.16,2.15,5.67,5.67,0,0,1-1.78,2.9c-.27.22-.78.25-.92-.16a5.53,5.53,0,0,1,.42-3.13c.5-1.6,1.19-3.15,1.58-4.76.29-1.23.74-4.2-1.39-4a9.85,9.85,0,0,0-3.47,1.37c-1.59.85-3.57,2.06-5.35,1a1.41,1.41,0,0,1-.61-.61,2.7,2.7,0,0,0-1,2.63c.31,1.5,2.06,1.6,3.33,1.42a6.44,6.44,0,0,0,2.7-1.13c1-.65,3.55-2.69,4.3-.71.36.93-.13,2.1-.41,3a45.85,45.85,0,0,1-1.64,5.18c-3.16,1.42-6.54,2.92-8.32,6-1.12,1.91-.6,4.86,2.09,4.07a8.66,8.66,0,0,0,2.55-1.45,22.13,22.13,0,0,0,4.65-.62,7.53,7.53,0,0,0,2.34-.73c1.2.78,2.85.12,4.13-.59h0a6,6,0,0,0,4-2c.89-.92,1.7-1.94,2.53-2.89.35-.41.76-.8,1.13-1.21a.33.33,0,0,0,.33-.15c1.7-2.6,2.41-6.2,2.92-9.21.31-1.82.53-3.63,1-5.42.21-.83.46-1.69.68-2.52s.68-1.6.88-2.48C129.07,104.61,125.5,104,124.21,103.81Z"/><path class="cls-8" d="M124.21,103.81a6.64,6.64,0,0,0-3.67.25c-1.46.66-2.12,2-3.2,3.07,0,0,0,.07,0,.1a6.45,6.45,0,0,1-4,1.25,12,12,0,0,0-4.25.75,10.06,10.06,0,0,0-3.35,2.54,17.59,17.59,0,0,1-4.18,2.88.16.16,0,0,0-.1.11c-1.24.75-2.39,1.83-2.07,3.38s2.06,1.6,3.33,1.42a6.44,6.44,0,0,0,2.7-1.13c1-.65,3.55-2.69,4.3-.71.36.93-.13,2.1-.41,3a45.85,45.85,0,0,1-1.64,5.18c-3.16,1.42-6.54,2.92-8.32,6-1.12,1.91-.6,4.86,2.09,4.07a8.66,8.66,0,0,0,2.55-1.45,22.13,22.13,0,0,0,4.65-.62,7.53,7.53,0,0,0,2.34-.73c1.2.78,2.85.12,4.13-.59h0a6,6,0,0,0,4-2c.89-.92,1.7-1.94,2.53-2.89.35-.41.76-.8,1.13-1.21a.33.33,0,0,0,.33-.15c1.7-2.6,2.41-6.2,2.92-9.21.31-1.82.53-3.63,1-5.42.21-.83.46-1.69.68-2.52s.68-1.6.88-2.48C129.07,104.61,125.5,104,124.21,103.81Zm3.08,4.19a11.18,11.18,0,0,0-.54,1.79c-.69,2.67-.93,5.35-1.43,8.06a29.48,29.48,0,0,1-2.62,7.67c-1.11,1.29-2.28,2.56-3.42,3.87a11.23,11.23,0,0,1-1.88,1.83,5.08,5.08,0,0,1-1,.54,10.24,10.24,0,0,0,3.85-5.26.14.14,0,0,0-.25-.12c-1.14,1.75-2.07,3.46-3.77,4.74-1.3,1-3.09,2-4.77,1.78a8.8,8.8,0,0,0,1.32-.9c2.19-1.72,4.57-4.79,4.89-7.62a.13.13,0,0,0-.25,0,14,14,0,0,1-2.27,4.37,17.06,17.06,0,0,1-3,3.09,8.29,8.29,0,0,1-4.06,1.59c-1.16.17-2.33.45-3.47.68a41.05,41.05,0,0,1,4.22-2.79c3.34-2,4.64-5.25,5.39-8.94a.12.12,0,0,0-.22-.07c-1.06,3.11-1.94,6.08-4.77,8-1.24.88-2.63,1.54-3.88,2.42-.84.59-1.59,1.31-2.43,1.93s-2.24,1.5-3.15.65c-1.3-1.2.26-3.5,1.08-4.46a11.78,11.78,0,0,1,3.58-2.58c1-.55,2.55-1,3.42-1.84a.33.33,0,0,0,.42-.22,28.38,28.38,0,0,0,1.24-4.49,25,25,0,0,0,.63-2.85c.18-1.37-.38-2.73-2-2.41a9.19,9.19,0,0,0-3,1.5,5.88,5.88,0,0,1-3.23,1c-1.44,0-2.2-.77-1.59-2.21A4.49,4.49,0,0,1,101.9,115a12.1,12.1,0,0,0,3.41-2c1.53-1.26,2.6-2.71,4.52-3.4,2.66-1,6.35-.12,8.18-2.71a18.92,18.92,0,0,1,2.16-2c1.22-.79,2.9-.59,4.22-.34a9.63,9.63,0,0,1,2.75.89C128.27,106.08,127.69,107.11,127.29,108Z"/></g><path class="cls-24" d="M163.09,74.15c-4.29-3.88-10.28-4.46-15.73-3.24s-10.22,4-13,8.89c-2.66,4.68-2.74,9.94-2.24,15.16,0,.17.27.17.24,0A33,33,0,0,1,134,82.38c1.87-5,6.82-7.65,11.62-9.13,10.57-3.31,22.51,3.4,21.42,15.34,0,.34.44.36.56.08C169.8,83,167.39,78,163.09,74.15Z"/><path class="cls-24" d="M163.59,93.88c-2.27,2.49-5.37,3.17-8.62,3.21a7.41,7.41,0,0,1-4.55-1.82c-2.12-1.78-1.87-3.79-2.09-6.31a1,1,0,1,0-2,.28c.4,2.66.66,4.69,2.72,6.59a8.5,8.5,0,0,0,4.79,2c3.77.42,7.55-.54,9.84-3.81C163.81,93.9,163.66,93.8,163.59,93.88Z"/><path class="cls-24" d="M138.13,107.66c-1.61-3.39-3.36-6.68-4.8-10.15,0,0,0,0,0,0,1.77,6.16,5.59,11.57,6.59,18a10.19,10.19,0,0,1-2.53,8.79c-2.93,3.21-8.91,5.7-13.23,5.33-.53,0,.23.55.78.63,4.19.64,9-1.69,12.18-4.37a10.8,10.8,0,0,0,3.85-8.52C140.93,114,139.58,110.66,138.13,107.66Z"/><path class="cls-24" d="M130.52,138.22c-2.92-2-7.12-4.2-9.74-4.69a1.69,1.69,0,0,0-1.76.77.4.4,0,0,0-.36.4c.11,2.11,2.9,3.13,4.5,3.81,1.34.56,2.7,1,4.08,1.47a15.53,15.53,0,0,1,2.26.83,16,16,0,0,0-3,1.27c-1.21.62-2.45,1.23-3.68,1.84-2.58,1.29-5.19,2.56-7.84,3.73a88,88,0,0,1-8.28,3.14c-.56.18-6.2,1.42-6.28,1.83a.39.39,0,0,0,.31.55h.11a12.61,12.61,0,0,0,5.26-.53l1.67-.37c-1.26.63-2.53,1.23-3.76,1.93-.45.26-.12.89.34.8A59.26,59.26,0,0,0,118,150.38c2.08-.92,4.11-1.92,6.18-2.85a37.55,37.55,0,0,0,5.34-2.78c1.26-.87,2.63-2.08,2.86-3.69C132.57,139.79,131.46,138.87,130.52,138.22Z"/><path class="cls-24" d="M127.17,98.46a22.93,22.93,0,0,0-1.08-6.57,26.53,26.53,0,0,0-6-10c-3.47-3.71-8.22-5.68-13.06-6.92a41.42,41.42,0,0,0-17.44-.9c-.09,0-.08.18,0,.18,9.83-.18,21.49,1.09,29,8.17,5,4.69,6,11.33,4.16,17.68-.62,2.09-1.58,4.13-2.08,6.23-.17.75-1.47,3.34,0,3.37,2,0,3.15-4.12,3.68-5.47,0,.25-.07.5-.11.75a22.84,22.84,0,0,1-.82,2.84c-.07.42-.18,3.47,1.11,2.12,2-2.07,2.45-5.4,2.61-8.13A29.32,29.32,0,0,0,127.17,98.46Z"/><path class="cls-24" d="M73.28,151c-.7-.17-1.42-.31-2.11-.43.82-.32,2.48-.68,2.48-1.71a.39.39,0,0,0-.48-.38c-1,.14-1.88.31-2.82.49a.39.39,0,0,0-.29.41c-5.15.74-10.64-.26-15.54-1.74A46.11,46.11,0,0,1,46,144c-1.39-.78-3.67-2.07-3.31-4,.54-2.88,5.15-4.41,7.41-5.42a39.89,39.89,0,0,1,5.22-1.84c1.57-.42,2.89-.71,3.64-.86.32,0,.25-.54-.07-.54-5.33-.06-22.82,3.93-19.22,12.41,1.9,4.45,7.82,6,12,7.1,6.58,1.69,13.37,2,19.89,4,.55.17,1-.6.57-1a11.37,11.37,0,0,0-1.45-1,8.51,8.51,0,0,0,2.71-.91A.56.56,0,0,0,73.28,151Z"/><path class="cls-24" d="M44,116.45c-.15.06-.28.14-.44.2A7,7,0,0,0,45,113.33a.3.3,0,0,0-.52-.21c-.31.35-.62.71-1,1a5,5,0,0,0,.09-2.85.36.36,0,0,0-.68,0,17.39,17.39,0,0,1-2.59,5c-.36.32-.73.61-1.06.89-1,.84-2,1.7-3,2.62a8.74,8.74,0,0,0-1.11,1.08s0,.05-.06.07a.55.55,0,0,1-.06.08,6.11,6.11,0,0,0-.62.94.8.8,0,0,0,.49,1.18,5.2,5.2,0,0,0,4.71-2.05,39.18,39.18,0,0,0,5-3.66C45.05,117.06,44.59,116.24,44,116.45Z"/><path class="cls-3" d="M26.6,72.91S9,47.42,18.45,24.6c0,0-10.31.5-10.71-8.8,0,0,4.84,6.37,10.71,3.19,0,0-6.76-.38-6.76-6.5,0,0,1.14,2.29,4.85,2.67s8-2.05,16.57-8S60.9-4.09,76.32,4.59,95.05,30.66,95.05,41.81C95.05,42.19,26.6,72.91,26.6,72.91Z"/><path class="cls-4" d="M18.45,19c-.19.1-.39.18-.57.29a12.24,12.24,0,0,0,6-2.72,29.24,29.24,0,0,0,2.62-2.21,17.2,17.2,0,0,1-5.85,2.11,13.5,13.5,0,0,1-1.55.13c-3.2.44-6.09-.13-7.2-2.49C12.94,18.67,18.45,19,18.45,19Z"/><path class="cls-4" d="M76.32,4.59A36.38,36.38,0,0,0,61.13.11c1,.21,2,.45,3,.72a30.89,30.89,0,0,1,9.55,4.23c2.17,1.56,4.74,3.73,5.43,6.43.56,2.2-.25,5-2.93,4.73a10.72,10.72,0,0,1-3.93-1.61,32,32,0,0,0-5.39-2.21c-3.9-1.29-8.38-2-12.44-1a9.26,9.26,0,0,0-5,2.72c-1.53,1.8-1.6,4-1.83,6.28,0,.2-.17.37-.39.3C40.71,18.64,33,19.46,29.43,26a19.33,19.33,0,0,0-2.09,8.18c-.12,2-.12,4.43-1.2,6.12-.95,1.5-2.5,1.42-3.88.47-2.71-1.87-3.73-4.73-3.68-7.94A24.34,24.34,0,0,1,23.29,19a13.77,13.77,0,0,1-7,3,7.91,7.91,0,0,1-8.54-5.46c.91,8.52,10.66,8,10.66,8C9,47.42,26.6,72.91,26.6,72.91s68.45-30.72,68.45-31.1C95.05,30.66,91.76,13.24,76.32,4.59Z"/><path class="cls-25" d="M28.52,62.82c-7.63,3.65-16.51,2.71-22.2-1.2-4.59-3.16-7.88-8.94-4.79-14.57a13.2,13.2,0,0,1,2.18-2.74c5.42-5.25,12.3-3.06,17.45.33s9.08,7.76,8.35,13.51C29.2,60.5,30,61.38,28.52,62.82Z"/><path class="cls-6" d="M8.24,47.09a11.12,11.12,0,0,0-2.73.4,4.71,4.71,0,0,0-3.24,4.08c-.26,5,6.3,9.57,10.43,10.83,2,.61,4.28-.39,3.83-2.29-.4-1.61-2.61-3.94-.78-4.18a2.75,2.75,0,0,0,2.1-.93c2.11-2.91-3.6-6.39-5.79-7.17A10.88,10.88,0,0,0,8.24,47.09Z"/><path class="cls-26" d="M16.37,54.92s-3.74-.13-1.77,2.48,1.29,5.61-3.67,3.2S.55,50,8.2,49.76s10.55,4.89,8.17,5.16Z"/><path class="cls-27" d="M13.39,50.57c2.69,1,4,2.77,3.77,3.71.19-1-1.08-2.68-3.77-3.71Zm0,0h0Zm-4.27-.8a8.88,8.88,0,0,0-1,1c-2.38,2.69.21,7.82,3.37,10.07,1.72.74,2.85.78,3.5.42a1.54,1.54,0,0,0,.65-1.69,5.26,5.26,0,0,0-.33-1c.52,1.17.49,2.28-.32,2.73a1.7,1.7,0,0,1-.72.22c-3.23-1.21-6.39-7.34-3.69-10a7.4,7.4,0,0,1,1.39-1.07,3.91,3.91,0,0,1,.41-.2,13.28,13.28,0,0,0-3.22-.46Z"/><path class="cls-28" d="M11.92,50.42a3.91,3.91,0,0,1,.41-.2,8.07,8.07,0,0,1,1.05.34h0c2.69,1,4,2.77,3.77,3.71h0a.72.72,0,0,1-.36.51,1.47,1.47,0,0,1-.43.12h0a4.32,4.32,0,0,0-1.81.35h0v0c-.57.31-.85.94,0,2.11a7.62,7.62,0,0,1,.66,1.12c.52,1.17.49,2.28-.32,2.73a1.7,1.7,0,0,1-.72.22c-3.23-1.21-6.39-7.34-3.69-10a7.4,7.4,0,0,1,1.39-1.07Z"/><path class="cls-29" d="M10.25,42.46c-4.82.36-8.59,4.6-8.95,7.49,0,.06.06.11.08.06,2.36-3.29,4.78-5.65,9-6.13,3.34-.37,6.33,1.25,9,3,2.46,1.62,2.32-.42,2.2-.55C19.13,43.94,14.24,42.17,10.25,42.46Z"/><path class="cls-25" d="M91.41,41.21c8-2.66,13.8-9.47,15.2-16.23,1.14-5.45-.5-11.9-6.62-13.83a13.72,13.72,0,0,0-3.48-.49C89,10.65,85.52,17,84.15,23S83,34.88,87.48,38.51C89.34,40,89.38,41.17,91.41,41.21Z"/><path class="cls-6" d="M92.93,19c-1,2.07-2.75,8.53.79,9.17a2.77,2.77,0,0,0,2.17-.78c1.47-1.11,1.47,2.1,2.32,3.55,1,1.69,3.33.81,4.34-1,2.1-3.77,3.69-11.62,0-15a4.69,4.69,0,0,0-5.15-.69,10.37,10.37,0,0,0-2.25,1.59A10.13,10.13,0,0,0,92.93,19Z"/><path class="cls-26" d="M94.74,27.1s2.58-2.69,3,.56,2.94,4.94,4.86-.23.12-14.85-5.55-9.7-4.22,10.82-2.3,9.37Z"/><path class="cls-27" d="M93.86,21.9c-1.21,2.59-.93,4.74-.14,5.3-.79-.56-1.07-2.71.14-5.3Zm0,0v0Zm2.51-3.52a14.94,14.94,0,0,0-2,2.56,2.44,2.44,0,0,1,.44-.13,7.59,7.59,0,0,1,1.72-.2c3.8,0,5.76,6.65,4.26,9.76a2,2,0,0,1-.66.34c-.91.23-1.69-.53-2.14-1.75a4.5,4.5,0,0,0,.51,1,1.58,1.58,0,0,0,1.63.79c.72-.19,1.51-1,2.21-2.72.75-3.83-.92-9.32-4.53-9.64a8.6,8.6,0,0,0-1.44,0Z"/><path class="cls-28" d="M94.83,20.78a2.44,2.44,0,0,0-.44.13,8.93,8.93,0,0,0-.51,1v0h0c-1.21,2.59-.93,4.74-.14,5.3h0a.81.81,0,0,0,.61.1,1.28,1.28,0,0,0,.41-.2h0a4,4,0,0,1,1.53-1h0c.63-.16,1.26.1,1.44,1.56A6.77,6.77,0,0,0,98,28.93c.45,1.22,1.23,2,2.14,1.75a2,2,0,0,0,.66-.34c1.5-3.11-.46-9.74-4.26-9.76a7.59,7.59,0,0,0-1.72.2Z"/><path class="cls-29" d="M90.52,13.88c3.71-3.1,9.37-2.65,11.64-.8,0,0,0,.12,0,.1-4-.74-7.36-.77-10.71,1.81-2.68,2-3.71,5.25-4.44,8.37-.64,2.88-2,1.31-2,1.11C85.13,21.08,87.44,16.42,90.52,13.88Z"/><path class="cls-5" d="M50.62,82.6A44.71,44.71,0,0,1,33,78.5a24.77,24.77,0,0,1-11.19-8.9,13.47,13.47,0,0,1-2.22-9.94c.94-4.55,4.67-7.37,9.73-7.37a14.25,14.25,0,0,1,2.21.17c-1.07-3.22-7.51-24.61,7.93-31a4.41,4.41,0,0,1,1.79-.32A10,10,0,0,1,49,25.61c0-2.24.35-7.56,5.34-10.12a11.34,11.34,0,0,1,5.25-1.31c7.2,0,15,6.87,23.27,20.45.8-1,3.58-4.11,7.72-4.11a9.33,9.33,0,0,1,4.61,1.3c2.67,1.48,4.29,5.44,4.34,10.59.09,9.65-5.25,23.14-20.55,32.11a9.31,9.31,0,0,1-9.27,7.22h0A19.9,19.9,0,0,1,62,79.9C61.27,80.39,57.51,82.6,50.62,82.6Z"/><path class="cls-10" d="M59.63,14.44c5.93,0,13.7,4.81,23.25,20.65,0,0,3-4.33,7.74-4.33A9.25,9.25,0,0,1,95.11,32c7.32,4.08,7,28.72-16.31,42.33a9.07,9.07,0,0,1-9,7.14A19.76,19.76,0,0,1,62,79.62s-3.8,2.75-11.34,2.75c-4.52,0-10.37-1-17.55-4.1C15,70.44,16.49,52.55,29.29,52.55a14.66,14.66,0,0,1,2.58.22S23,28.57,39.52,21.67a4.39,4.39,0,0,1,1.7-.3,9.86,9.86,0,0,1,8.17,5.22s-1.2-7.65,5.09-10.87a11,11,0,0,1,5.15-1.28Zm0-.51a11.56,11.56,0,0,0-5.39,1.34c-4.58,2.35-5.39,7-5.44,9.57a10,10,0,0,0-7.58-4,5.11,5.11,0,0,0-1.9.35c-7,2.91-10.56,9.34-10.35,18.62a46.4,46.4,0,0,0,2.16,12.32c-.62-.06-1.24-.1-1.84-.1-5.19,0-9,2.89-10,7.56a13.68,13.68,0,0,0,2.26,10.14,24.87,24.87,0,0,0,11.29,9,45.17,45.17,0,0,0,17.76,4.14c6.65,0,10.43-2.06,11.39-2.66A20.24,20.24,0,0,0,69.75,82a9.55,9.55,0,0,0,9.49-7.32,43.35,43.35,0,0,0,16-15.82,33.37,33.37,0,0,0,4.59-16.46c0-5.24-1.71-9.29-4.46-10.83a9.82,9.82,0,0,0-4.74-1.31c-3.92,0-6.65,2.68-7.7,3.92-8.2-13.44-16-20.26-23.29-20.26Z"/><path class="cls-29" d="M37.22,27.7c4.09.17,7,3.5,9.08,6.67,3.57,5.4,7.75,11.52,7.93,18.24a10,10,0,0,1,6.43,3.21c-.3-2.78.49-5.91,2.69-7.61-.4.3-3.93-4.3-4.25-4.76A28,28,0,0,1,56.28,38c-1.63-4.17-2.86-8.71-2.47-13.23.39-4.68,2.58-7.54,6.92-9.26-2.68-.89-6,.59-7.85,2.46-2.46,2.44-2.75,5.88-2.89,9.15a.31.31,0,0,1-.53.21c-2.19-2.21-4.52-5.4-8-5.2-3.3.17-6,2.54-7.47,5.4a1.1,1.1,0,0,0,1,.3C35.7,27.81,36.45,27.67,37.22,27.7Z"/><path class="cls-6" d="M97.74,35A20.35,20.35,0,0,1,98,39.33,37.91,37.91,0,0,1,92.65,56.5a36,36,0,0,1-5.34,7.23C86,65.06,84.69,66.66,83,67.53c-1.43.71-2.17-.8-2.17-2,0-2.24-.37-4.43-.29-6.65.08-2.57.22-5.26.5-7.82.24-2.31,1.68-3.15,3.77-3.17-1.35-1.08-3.19-2-4.85-1.35a5.06,5.06,0,0,0-2.32,2.08,2.16,2.16,0,0,1,.62-.09.31.31,0,0,1,.28.45c-2.23,4.08-6.39,7-10.14,9.59a40.08,40.08,0,0,1-13.8,6.27c-2.19.51-4.41.83-6.63,1.15a12.54,12.54,0,0,1-3.9.25c-.61-.11-1.33-.5-1-1.24a3.93,3.93,0,0,1,.52-.76l-.66.21c-1.17.45-2.45,1.76-1.5,3.11.77,1.06,2.16,1.17,3.31,1.54a12.46,12.46,0,0,1,5.88,3.83c.83,1,2.25,3.11,2.12,4.48-.2,2.46-3.53,2.27-5.36,2.25a33,33,0,0,1-17.56-4.71c-3.12-2-6-4.46-7.69-7.85a27.69,27.69,0,0,1-2.24-7.79c-1.49,5.91,2.29,14.26,13.17,19C52.27,86.59,62,79.62,62,79.62c14.62,6.29,16.84-5.26,16.84-5.26C98.71,62.72,101.83,43,97.74,35Z"/><path class="cls-30" d="M78.12,63c-.52,5.49-3.62,11-9,13-4.89,1.8-9.65-.37-13.66-3.1-2.4-1.64-5.06-3.87-8-4.88a35.75,35.75,0,0,0,11.33-2.5,41.49,41.49,0,0,0,12.47-7.71c1.84-1.61,3.45-3.47,5.16-5.2a18,18,0,0,0,3.21-4.14C77.85,53.08,78.61,58.19,78.12,63Z"/><path class="cls-31" d="M58.64,71.07c1.47-4.33,6.56-7.58,10.55-9.27,3-1.24,6.47-1.52,9,.45.35-4.59-.26-9.41,1.46-13.74a18,18,0,0,1-3.21,4.14c-1.71,1.73-3.32,3.59-5.16,5.2a41.49,41.49,0,0,1-12.47,7.71,35.75,35.75,0,0,1-11.33,2.5c2.91,1,5.57,3.24,8,4.88a30.37,30.37,0,0,0,3.4,2A6.39,6.39,0,0,1,58.64,71.07Z"/><path class="cls-32" d="M72.4,59.47a16.73,16.73,0,0,0,1.87-4.55c-1,1-1.93,2-3,2.93a41.49,41.49,0,0,1-12.47,7.71,40.73,40.73,0,0,1-5.4,1.67,7.69,7.69,0,0,0,6.32,1.44,19.37,19.37,0,0,0,7-3.25A22.42,22.42,0,0,0,72.4,59.47Z"/><path class="cls-33" d="M70.54,61a10,10,0,0,0,1.39-3.19c-.78.74-1.56,1.47-2.41,2.16A37.16,37.16,0,0,1,59.3,65.86a41.38,41.38,0,0,1-4.5,1.43,7.9,7.9,0,0,0,5.43.63A18.6,18.6,0,0,0,66,65.35,17.44,17.44,0,0,0,70.54,61Z"/><path class="cls-34" d="M68.8,70.07c-3.74-.69-6.42,2.36-8,5.72a11.81,11.81,0,0,0,8.35.25C74.17,74.2,77.21,69.15,78,64,74,64.7,70.13,66.37,68.8,70.07Z"/><path class="cls-35" d="M68.8,70.07a5.69,5.69,0,0,0-3.35.42,5.91,5.91,0,0,1,2-.25,6.16,6.16,0,0,1,4.4,1.47c-.41-.68-1.54-1.15-2-1.92-.56-1,.89-2.42,1.51-2.92,1.11-.91,5.92-3.85,5.2-.22a12.45,12.45,0,0,1-7.44,8.63c-1.44.63-4.42,1.46-6.11.55a1.2,1.2,0,0,1-.4-.16,1.48,1.48,0,0,1-.73-1.8,14.37,14.37,0,0,0-1.08,1.92,11.81,11.81,0,0,0,8.35.25C74.17,74.2,77.21,69.15,78,64,74,64.7,70.13,66.37,68.8,70.07Z"/><path class="cls-6" d="M68.79,46.41c-2.73.92-6.27-.77-8.74-4.44-3-4.51-3.24-10.29-.47-12.92a4.45,4.45,0,0,1,1.72-1c2.71-.92,6.26.77,8.72,4.43,3,4.51,3.23,10.3.48,12.92a4.54,4.54,0,0,1-1.71,1ZM60.62,26.22a5.17,5.17,0,0,0-2,1.18c-3,2.94-2.76,9.46.67,14.57,2.79,4.17,6.81,6.13,9.86,5.1A4.79,4.79,0,0,0,71,45.92C74.1,43,74.23,36.14,70.8,31c-2.78-4.14-7-5.86-10.18-4.8Z"/><path class="cls-36" d="M70,32.44c3,4.51,3.23,10.3.48,12.92S63.07,46.46,60.05,42s-3.24-10.29-.47-12.92S67,27.94,70,32.44Z"/><path class="cls-33" d="M69.56,33.39c2.73,4.07,2.92,9.3.44,11.68s-6.73,1-9.44-3.08-2.93-9.3-.45-11.68,6.72-1,9.45,3.08Z"/><path class="cls-32" d="M62.94,43.09c2.26,3.23,5.6,4.14,7.45,2s1.54-6.44-.74-9.66-5.61-4.14-7.46-2-1.53,6.42.75,9.65Z"/><path class="cls-37" d="M68.79,44.67a2.13,2.13,0,0,1-1.12.26c-1.94-.06-3.94-2.24-4.46-4.89-.44-2.11.18-3.86,1.43-4.5a2,2,0,0,1,1.11-.25c1.92.05,3.91,2.24,4.44,4.92.43,2.07-.18,3.84-1.4,4.46ZM63.66,33.85c-1.62.83-2.41,3.13-1.87,5.89.7,3.47,3.32,6.34,5.85,6.4a3,3,0,0,0,1.46-.32C70.71,45,71.52,42.69,71,40c-.69-3.49-3.31-6.37-5.84-6.43a3,3,0,0,0-1.46.33Z"/><path class="cls-38" d="M68.84,44.41a1.48,1.48,0,0,1-.79.15c-1.38,0-2.81-1.58-3.19-3.47-.28-1.5.16-2.75,1-3.2a1.73,1.73,0,0,1,.79-.17c1.38,0,2.8,1.58,3.18,3.49.31,1.49-.14,2.74-1,3.2Zm-4.2-8.87c-1.25.64-1.87,2.39-1.43,4.5.52,2.65,2.52,4.83,4.46,4.89a2.13,2.13,0,0,0,1.12-.26c1.22-.62,1.83-2.39,1.4-4.46-.53-2.68-2.52-4.87-4.44-4.92a2,2,0,0,0-1.11.25Z"/><path class="cls-39" d="M65.88,37.89a1.73,1.73,0,0,1,.79-.17c1.38,0,2.8,1.58,3.18,3.49.31,1.49-.14,2.74-1,3.2a1.48,1.48,0,0,1-.79.15c-1.38,0-2.81-1.58-3.19-3.47-.28-1.5.16-2.75,1-3.2Z"/><path class="cls-33" d="M65,38c0,1-.54,1.59-1.27,1.43a2.23,2.23,0,0,1-1.39-2.07c0-1,.52-1.59,1.26-1.43A2.26,2.26,0,0,1,65,38Z"/><path class="cls-33" d="M70.25,43.45c0,.46-.27.77-.61.68a1.11,1.11,0,0,1-.69-1c0-.47.26-.77.62-.68A1.06,1.06,0,0,1,70.25,43.45Z"/><path class="cls-40" d="M74.75,38.86c-3.34,1.35-3.85,5.46-4.29,8.57,0,.1.12.13.14,0,1-3.16,1.35-6.31,4.35-8.28C75.15,39.06,74.93,38.78,74.75,38.86Z"/><path class="cls-6" d="M58.11,19.19a2.41,2.41,0,0,0-2.6,1.49c-.1.21-.33.15-.45,0a6.09,6.09,0,0,0-.68,3.92,3.9,3.9,0,0,0,.5,1.59c.67,1,1.61.23,1.88-.57a3.75,3.75,0,0,1,1-1.79,2.5,2.5,0,0,1,1.9-.47q.59.11,1.17.24a5.87,5.87,0,0,0,.81.12c.89-.64,1.07-1.33.6-2.06A5.05,5.05,0,0,0,58.11,19.19Z"/><path class="cls-3" d="M56.53,19.3c1.63-.85,3.89-.13,4.2,1.77,0,.16-.2.33-.33.17h0a4.23,4.23,0,0,0-3.17.58,7.77,7.77,0,0,0-1.76,2.74.18.18,0,0,1-.22.08,1.55,1.55,0,0,1,0,.21.18.18,0,0,1-.33.09C54.06,23.28,54.76,20.22,56.53,19.3Z"/><path class="cls-29" d="M76.32,39.53c-1.77-.42-3.41,1.17-4.12,2.67a15.26,15.26,0,0,0-1,6.5c0,.23.35.35.41.1.38-1.58.7-3.18,1.24-4.73A8.39,8.39,0,0,1,74,41.9c.67-.86,1.65-1,2.55-1.36C77,40.31,76.8,39.65,76.32,39.53Z"/><path class="cls-6" d="M47.77,56.68a4.73,4.73,0,0,1-2,.55c-3.8.22-7.87-3.89-9.1-9.16-1-4.3.17-8,2.7-9.42a4.77,4.77,0,0,1,1.93-.55c3.8-.21,7.89,3.89,9.12,9.17,1,4.3-.18,8-2.7,9.41ZM38.55,36.93C35.64,38.51,34,42.8,35.13,47.66c1.4,6,6.51,10.58,10.75,10.34A5.16,5.16,0,0,0,48,57.4c2.84-1.54,4.15-5.79,3-10.69-1.4-6-6-10.66-10.21-10.42a5.69,5.69,0,0,0-2.24.64Z"/><path class="cls-36" d="M36.72,48.07c1.23,5.27,5.3,9.38,9.1,9.16s5.88-4.67,4.65-10-5.32-9.38-9.12-9.17-5.88,4.68-4.63,10Z"/><path class="cls-33" d="M37.71,48.36c1.12,4.78,4.82,8.49,8.25,8.28s5.3-4.21,4.19-9-4.8-8.47-8.24-8.3-5.31,4.25-4.2,9Z"/><path class="cls-32" d="M49.33,50.15c.82,3.85-.81,6.92-3.61,6.84S40,53.71,39.17,49.86,40,42.94,42.76,43s5.76,3.29,6.57,7.15Z"/><path class="cls-37" d="M46.5,55.5c-1.3.45-3-.29-4.25-2-1.58-2.19-1.83-5.17-.54-6.61a2.28,2.28,0,0,1,.94-.65c1.29-.46,3,.29,4.26,2,1.57,2.21,1.81,5.16.54,6.6a2.31,2.31,0,0,1-1,.65ZM42.08,44.36a2.94,2.94,0,0,0-1.23.85c-1.7,1.9-1.38,5.77.7,8.66,1.64,2.28,3.86,3.25,5.57,2.66a3.4,3.4,0,0,0,1.23-.86c1.68-1.89,1.37-5.77-.7-8.66-1.64-2.27-3.88-3.25-5.57-2.65Z"/><path class="cls-38" d="M46.26,55.35c-.94.33-2.14-.2-3-1.43-1.13-1.57-1.3-3.66-.38-4.7a1.65,1.65,0,0,1,.66-.47c.92-.32,2.14.2,3,1.43,1.14,1.58,1.31,3.68.38,4.71a1.59,1.59,0,0,1-.66.46Zm-3.61-9.13a2.28,2.28,0,0,0-.94.65c-1.29,1.44-1,4.42.54,6.61,1.24,1.73,3,2.47,4.25,2a2.31,2.31,0,0,0,1-.65c1.27-1.44,1-4.39-.54-6.6-1.26-1.74-3-2.49-4.26-2Z"/><path class="cls-39" d="M43.51,48.75a1.65,1.65,0,0,0-.66.47c-.92,1-.75,3.13.38,4.7.89,1.23,2.09,1.76,3,1.43a1.59,1.59,0,0,0,.66-.46c.93-1,.76-3.13-.38-4.71-.89-1.23-2.11-1.75-3-1.43Z"/><path class="cls-33" d="M44.18,48.15c.68.68,1.51.7,1.89.05a2.23,2.23,0,0,0-.55-2.44c-.68-.69-1.53-.71-1.9,0A2.24,2.24,0,0,0,44.18,48.15Z"/><path class="cls-33" d="M44.61,55.74c.31.32.72.33.91,0a1.08,1.08,0,0,0-.28-1.17c-.32-.33-.73-.34-.9,0A1,1,0,0,0,44.61,55.74Z"/><path class="cls-40" d="M38.17,55.9c3.26-1.53,6.62.9,9.2,2.71.08,0,0,.16-.08.14-3-1.45-5.53-3.33-9-2.48C38.05,56.32,38,56,38.17,55.9Z"/><path class="cls-6" d="M35.14,30.3A2.45,2.45,0,0,1,38,29.42a.27.27,0,0,0,.33-.31,6,6,0,0,1,3.32,2.17,3.91,3.91,0,0,1,.82,1.46c.29,1.19-.92,1.32-1.69,1a3.77,3.77,0,0,0-2-.46,2.3,2.3,0,0,0-1.63,1.07c-.22.32-.42.65-.65,1A4.88,4.88,0,0,1,36,36c-1.06.21-1.69-.11-1.92-1A5.15,5.15,0,0,1,35.14,30.3Z"/><path class="cls-3" d="M36.29,29.24c-1.73.6-2.74,2.75-1.56,4.27a.19.19,0,0,0,.34-.13h0a4.31,4.31,0,0,1,2.57-1.91,7.72,7.72,0,0,1,3.22.57.17.17,0,0,0,.21-.09,1.92,1.92,0,0,1,.15.14c.12.13.33,0,.27-.19C40.9,30.14,38.18,28.57,36.29,29.24Z"/><path class="cls-29" d="M37.6,57.5c.91-1.57,3.18-1.7,4.74-1.19A15.25,15.25,0,0,1,47.79,60c.18.15,0,.49-.21.35-1.41-.79-2.79-1.65-4.3-2.31a8,8,0,0,0-2.36-.65c-1.05-.11-1.79.52-2.71.91C37.68,58.54,37.35,57.93,37.6,57.5Z"/><path class="cls-6" d="M59.25,59.54c-.8-.27-1.61-.44-2.39-.63.51.56,1.09,1.33.49,1.92s0,1.42.81,1.62a3.37,3.37,0,0,0,2.26-.14C62.42,61.32,60.48,60,59.25,59.54Z"/><path class="cls-41" d="M58.68,60.46c.41.42,1.59,1.7,2.21,1.1.26-.24.2-.64,0-1.06a3.35,3.35,0,0,0-.88-.63.22.22,0,0,1-.29.1,6.74,6.74,0,0,0-.93-.3c-.22,0-.63,0-.43.36A2.34,2.34,0,0,0,58.68,60.46Z"/><path class="cls-6" d="M68.06,49.65c-.92-1.74-2.88-1.6-4.06-.23a9.23,9.23,0,0,0-1.87,6.29c.82-1.26.8-3.89,1.7-5,1.69-2.1,3.34,1.14,3.77,2.75v0c.29-1,.86-2.28.67-3.33A2,2,0,0,0,68.06,49.65Z"/><path class="cls-6" d="M56.92,54.85a3.92,3.92,0,0,0-2.84-.9,2.4,2.4,0,0,0-.71.29,1.37,1.37,0,0,0-.24.5c-.54,1.73.58,3.66,2,4.82-.74-1.47-1.36-3.86.37-4.47,1.11-.39,2.49.77,3.4,1.25h0A18.25,18.25,0,0,0,56.92,54.85Z"/><path class="cls-6" d="M68.29,56.13a15.72,15.72,0,0,1-1.46-1,1.08,1.08,0,0,1-.4-1.23,6.06,6.06,0,0,0-2.09,2.6c-.75,2,1.25,3.32,3.18,2.48C68.7,58.45,69.61,57.11,68.29,56.13Z"/><path class="cls-41" d="M65.8,54.89a1.12,1.12,0,0,0-.75.4,5.62,5.62,0,0,0-.54.83,1.46,1.46,0,0,0-.1.34l-.09.11a2.25,2.25,0,0,0-.14,1.09,2.69,2.69,0,0,0,.71.85c.78.57,1.29-.62,1.41-1.22C66.38,56.87,66.7,54.82,65.8,54.89Z"/><path class="cls-41" d="M59.75,56.9a19.6,19.6,0,0,0-2.36-1.61,2.27,2.27,0,0,0-2.29-.36c-1.43.81-.53,3.7,0,4.78a.09.09,0,1,0,.17-.07,6.83,6.83,0,0,1-.37-1.85c-.05-.67,0-2,.65-2.35s1.7.28,2.26.56,1.23.68,1.87,1C59.75,57,59.8,56.94,59.75,56.9Z"/><path class="cls-41" d="M67.57,52.43c-.15-1.34-1.29-3.15-2.92-2.61-1.91.64-2,4-2.37,5.47a.08.08,0,1,0,.14.07c.69-1.34.71-2.91,1.53-4.19,1.31-2,2.63.29,3.36,1.38C67.39,52.68,67.6,52.58,67.57,52.43Z"/><path class="cls-40" d="M60.27,59.81a6.67,6.67,0,0,0-3.31-1c-.07,0-.1.09,0,.12a9.5,9.5,0,0,1,2.29,1,4.42,4.42,0,0,1,1.06.84,1.3,1.3,0,0,1,.22,1.06.11.11,0,0,0,.15.1C61.67,61.39,60.9,60.28,60.27,59.81Z"/><path class="cls-40" d="M65.32,58.71c-.1-.3-.31-.56-.45-.87a2.53,2.53,0,0,1-.08-1.22,4.47,4.47,0,0,1,1-2.09c0-.05,0-.14-.08-.08a5.18,5.18,0,0,0-1.42,2.43c-.19.71,0,1.85.83,2.06A.19.19,0,0,0,65.32,58.71Z"/><path class="cls-29" d="M65.76,51.27c-2.34-.56-2.71,3.61-2.6,5a.26.26,0,0,0,.4.16c1-.73,1.13-3.32,2.23-3.49S66.63,51.49,65.76,51.27Z"/><path class="cls-29" d="M59.51,57.59c-.73-1.17-2.5-2.74-4-1.89-.72.39,0,1.41.68,1.18a2.41,2.41,0,0,1,1.51.31c.53.23,1.05.43,1.54.7C59.46,58,59.61,57.74,59.51,57.59Z"/><path class="cls-40" d="M82.43,47.05c-1.63-.81-3.82-.93-4.77,1,0,.1,0,.22.16.15a4.45,4.45,0,0,1,2.08-.77C78.12,50.71,75,53.33,72.38,56a41.54,41.54,0,0,1-9.93,7.27A36.4,36.4,0,0,1,49.9,67.07a26.58,26.58,0,0,1-5.71.08c-.79-.05-2-.18-2.14-1.2s1.67-1.73,2.36-2.06c.08,0,0-.18-.06-.14-.94.31-2.91.94-2.94,2.2,0,1.42,1.29,1.89,2.51,2,.49.06,1,.09,1.45.11a18.73,18.73,0,0,1,5.36,2.3c2,1.26,3.83,2.78,5.76,4.11,3.93,2.69,8.57,4,13.17,2.3s7.81-6.59,8.9-11.31a35.48,35.48,0,0,0,.53-8.29,27.83,27.83,0,0,1,1.55-9.84,11.14,11.14,0,0,1,1.61.13C82.49,47.49,82.68,47.17,82.43,47.05ZM78.12,63c-.52,5.49-3.62,11-9,13-4.89,1.8-9.65-.37-13.66-3.1-2.4-1.64-5.06-3.87-8-4.88a35.75,35.75,0,0,0,11.33-2.5,41.49,41.49,0,0,0,12.47-7.71c1.84-1.61,3.45-3.47,5.16-5.2a18,18,0,0,0,3.21-4.14C77.85,53.08,78.61,58.19,78.12,63Z"/><path class="cls-10" d="M79.89,70c-.36,2.37-1.25,4.6-1.82,6.93,0,.13.16.22.23.1,1.23-2.17,1.43-4.62,1.61-7C79.91,70,79.89,70,79.89,70Z"/><path class="cls-5" d="M77.81,69.88c-1.49,3.36-4.33,6.86-8,7.85-3.42.92-7.05-.31-10.4-1,0,0-.06,0,0,0,3.34,1.84,7.07,3.41,10.94,2.81,4.69-.71,7.28-5.27,7.89-9.52C78.22,69.83,77.9,69.64,77.81,69.88Z"/><path class="cls-24" d="M72.75,5.17C63-.72,52.43-1.09,41.91,2.92a54,54,0,0,0-13.77,7.71c-3.8,3-9,7-14.08,4.35-.06-.06-.15.06-.09.12,2.76,2.13,6.21,1.13,9.08-.24,4.37-2.1,7.27-4.56,11.52-6.84,4.79-2.57-1.55.83-6.3,4.78-4,3.32-8.12,8.2-13.73,7.78a.07.07,0,0,0,0,.14c4.41.82,8.25-1.4,11.66-3.9a16.33,16.33,0,0,0-3.51,5,17.1,17.1,0,0,0-1.9,6.37,5,5,0,0,0,.64,3.38c1.1,1.48,3-1.5,3.49-2.24a47,47,0,0,1,6.33-7.92c2.52-2.29,5.39-3,8.7-3.18a7.94,7.94,0,0,0,4.86-1.78c1.77-1.55,2.7-3.71,4.66-5.15a15.45,15.45,0,0,1,8.09-2.53c4-.27,7.52,1.18,11.31,2,1.92.45,5.44,1.24,6.36-1.2C75.94,7.58,74.31,6.1,72.75,5.17Z"/><path class="cls-10" d="M64.55,80.64a24.88,24.88,0,0,1-5.71-3s-.06,0,0,0c1.73,1.43,3.35,3.06,5.7,3.31C64.73,81,64.75,80.7,64.55,80.64Z"/><path class="cls-29" d="M40.05,63.12c-1.07,3.31-6,4.68-10.92,3.06s-8.1-5.59-7-8.91,6-4.67,10.94-3.06S41.12,59.81,40.05,63.12Z"/><path class="cls-29" d="M94.72,32.82C97.16,35.27,96.38,40,93,43.41s-8.17,4.15-10.61,1.68-1.68-7.22,1.74-10.61S92.26,30.34,94.72,32.82Z"/><g class="cls-42"><path class="cls-17" d="M43,98.28A8.58,8.58,0,0,1,48.59,96c.85-.09,3.38,2.41,4.39,5.1s1.42,10.43,1.61,14.25.39,7.93,2.17,8.56,3,1.21,3,1.84-.5,2.11.25,2.18a8,8,0,0,0,2.94-.27c.38-.24.2-.56.32-1s-.77-.45-.77-1.34-.13-.44.58-.84,2.23-.31,2.36-3.93.37-17.8,1.08-20.22,4-2.8,7.44-1.84,6.7,3.37,7.15,2.8S78.38,97.13,76,96.5,62.24,92.86,59.88,94s-4,5.16-4.08,6.83c0,0-3.5-6.77-6.44-6.83S44.33,95.28,43,98.28Z"/><path class="cls-43" d="M65.49,97.43s.27-6.28.69-10.56.8-8.45,1-10.71c.25-2.42.39-3.43-.43-4.78s-3.26-2.1-5.89.42S55.45,83.13,55,88.54A45.57,45.57,0,0,0,55,99.9S61.52,104.1,65.49,97.43Z"/><path class="cls-44" d="M59.14,96.57a3.62,3.62,0,0,1-1.43-2.69,52.24,52.24,0,0,1,.39-6.12c.25-1.91.92-5.26,1.28-7.14a39.67,39.67,0,0,1,2.12-7.44,7.49,7.49,0,0,1,1.68-2.74,4.26,4.26,0,0,0-2.3,1.36c-2.64,2.52-5.43,11.33-5.9,16.74A45.57,45.57,0,0,0,55,99.9s6.48,4.2,10.45-2.47c0,0,0-1.43.15-3.38a6.17,6.17,0,0,0-4,2.56A3.37,3.37,0,0,1,59.14,96.57Z"/><path class="cls-45" d="M62.68,87.76c0-.09-.14-.13-.16,0a11.56,11.56,0,0,0-.2,3.8.09.09,0,0,0,.18,0A21.4,21.4,0,0,1,62.68,87.76Z"/><path class="cls-46" d="M43,98.28A8.58,8.58,0,0,1,48.59,96c.85-.09,3.38,2.41,4.39,5.1s1.42,10.43,1.61,14.25.39,7.93,2.17,8.56,3,1.21,3,1.84-.5,2.11.25,2.18a8,8,0,0,0,2.94-.27c.38-.24.2-.56.32-1s-.77-.45-.77-1.34-.13-.44.58-.84,2.23-.31,2.36-3.93.37-17.8,1.08-20.22,4-2.8,7.44-1.84,6.7,3.37,7.15,2.8S78.38,97.13,76,96.5,62.24,92.86,59.88,94s-4,5.16-4.08,6.83c0,0-3.5-6.77-6.44-6.83S44.33,95.28,43,98.28Z"/><path class="cls-15" d="M63.47,104.14c-1.44-1.65-4.08-3.33-4.57-5.6a4.49,4.49,0,0,1,2.8-4.83,4.55,4.55,0,0,0-1.82.24c-2.35,1.09-4,5.16-4.08,6.83,0,0-2.62-5-5.21-6.46a8,8,0,0,1,2,4c0,.33-.42.39-.57.16a4.29,4.29,0,0,0-1.93-1.59A11.58,11.58,0,0,1,53,101.1c1,2.66,1.42,10.43,1.61,14.25s.39,7.93,2.17,8.56,3,1.21,3,1.84-.5,2.11.25,2.18a8,8,0,0,0,2.94-.27c.38-.24.2-.56.32-1s-.77-.45-.77-1.34-.13-.44.58-.84,2.23-.31,2.36-3.93c.09-2.43.22-9.57.52-14.76A7.84,7.84,0,0,1,63.47,104.14ZM62.66,123c-1.2.71-3.37,1.08-4.52,0s-1.16-3.25-.69-4.5a1.17,1.17,0,0,1,1.28-.83c1.4.22,2.62.69,4.06.18h.06a.31.31,0,0,1,.59.13C63.44,119.57,64.49,121.94,62.66,123Z"/><path class="cls-17" d="M65.48,95.42S66.7,89.61,72,90.31,82.3,97,81.29,101c-.19.77-.64.26-1-.31S74,96.17,69.51,96.88,65.48,95.42,65.48,95.42Z"/><path class="cls-47" d="M76.43,97a13,13,0,0,1,4.85,4.15s0,0,0-.08c1-4-4-10-9.3-10.71s-6.51,5.11-6.51,5.11a1.15,1.15,0,0,0,.16.77C69.35,95.56,72.88,95.07,76.43,97Z"/><path class="cls-48" d="M80.71,101a10.18,10.18,0,0,0-2.28-1.75c-1.64-1-3.68-2.29-5.6-2.57-1.06-.11-1.51-1-1.9-1.9a6.86,6.86,0,0,0-2.79-3.55,7.76,7.76,0,0,0-2.66,4.24s-.5,2.16,4,1.46,10.51,3.25,10.83,3.83c.22.39.5.76.71.69Z"/><path class="cls-17" d="M36,111.48c1.22,0,1.79-1.53,4.21-6.76s7.09-13.2,11.55-8,3.81,5.66,3.81,5.66.9,1.46,1.4-2.69,2.17-4.89,3-4.63,4.33,4.83,6.18,8.85,3.26,14.1,5.48,14.21c0,0,3.18-1.34,2-11.67s-3.78-14-6.2-15.23c0,0-10.19-1.84-11.78,7.71,0,0-3.51-6-7.27-6.56s-11.48.57-12.69,10.45S36,111.48,36,111.48Z"/><path class="cls-47" d="M37.56,108.84c.68-1.4,1.42-2.79,2-4.21A48.08,48.08,0,0,1,42,99.73c1.54-2.64,4-5.83,7.39-5.64a6.15,6.15,0,0,1,4,1.81c-1.36-1.6-3.19-3.27-5.1-3.52-3.76-.5-11.48.6-12.65,10.48-.71,5.89-.47,7.84-.12,8.45C36.54,111.11,37,110,37.56,108.84Z"/><path class="cls-47" d="M59.81,93.78c1.53-.28,2.79,1.32,3.53,2.41a33.55,33.55,0,0,1,2.94,5.64,55.64,55.64,0,0,1,3.37,10.87c.24,1.18.72,3.86,1.79,5.31a1,1,0,0,0,.2,0s3.2-1.35,2-11.67-3.82-14-6.24-15.22c0,0-10.19-1.81-11.77,7.74,0,0-.17-.28-.46-.72a16.71,16.71,0,0,1,1.08,2.34C56.25,97.64,56.71,94.33,59.81,93.78Z"/><path class="cls-48" d="M37.15,99.41a17.45,17.45,0,0,0-.87,5c.65-9.58,8.95-14.06,14.81-10.77a6.17,6.17,0,0,0-2.78-1.26,12.27,12.27,0,0,0-6.44.91C39.93,95,38,96.91,37.15,99.41Z"/><path class="cls-48" d="M68.1,103.82a37.07,37.07,0,0,0-3.37-7.91,9.72,9.72,0,0,0-3-3.1c-2-1.22-4,.68-4.88,2.39a20.34,20.34,0,0,0-1.3,3.73,5.13,5.13,0,0,0-1.24-1.74A6.88,6.88,0,0,0,55,99.88a15.17,15.17,0,0,0,1,2.65c.86-1.74.06-3.78.53-5.6.35-1.41,1.08-3.16,2.55-3.68,2.48-.9,4.62,3,5.57,4.63a36.7,36.7,0,0,1,3.06,6.9c.86,2.55,2.52,9.94,2.87,11,0,.07.06.1.07.15C70.62,111.79,69.27,107.74,68.1,103.82Z"/><path class="cls-5" d="M65.56,107.48c1.63-2.85-.32-5.81-2.79-7.4S57,98.45,54.28,99a11.07,11.07,0,0,0-7.16,4.28c-1.92,2.64-2.26,6.07-2.86,9.23,0,0,0,0,0,0-.67,1.1-1,2.34-1.63,3.44a6.5,6.5,0,0,0-1,2.35c-.2,1.69,1,2.26,2.39,2.47a.38.38,0,0,0,.2.22c2.63,1,5.6,2.71,8.21.68a9.3,9.3,0,0,0,2.33-3.06c.81-1.47,1.49-2.67,3.31-2,1.53.52,4.13,1.71,5.41,0a2.44,2.44,0,0,0-.09-2.64,2.71,2.71,0,0,0,2-2.32,4.27,4.27,0,0,0,0-.81l0-.06a4,4,0,0,0,.06-3.08A.22.22,0,0,0,65.56,107.48Z"/><path class="cls-6" d="M65.56,107.48c1.63-2.85-.32-5.81-2.79-7.4A8.51,8.51,0,0,0,60.27,99a3.28,3.28,0,0,1,1,1.35c.75,2.33-5,1.55-5.93,1.64-2.07.22-3.15,1.31-4.75,2.47-.76.54-1.69,1.33-2.68,1.26a1.29,1.29,0,0,1-1.31-1.66c-1.44,2.5-1.8,5.56-2.33,8.4,0,0,0,0,0,0-.67,1.1-1,2.34-1.63,3.44a6.5,6.5,0,0,0-1,2.35c-.2,1.69,1,2.26,2.39,2.47a.38.38,0,0,0,.2.22c2.63,1,5.6,2.71,8.21.68a9.3,9.3,0,0,0,2.33-3.06c.81-1.47,1.49-2.67,3.31-2,1.53.52,4.13,1.71,5.41,0a2.44,2.44,0,0,0-.09-2.64,2.71,2.71,0,0,0,2-2.32,4.27,4.27,0,0,0,0-.81l0-.06a4,4,0,0,0,.06-3.08A.22.22,0,0,0,65.56,107.48Zm-6.05,5.23c-.7,1.18-2.43,1.88-3.65,2.35-.84.32-2.56,1-3.31.09-.61-.7.66-1.61,2.06-2.32a.2.2,0,0,1,.15-.14A7.81,7.81,0,0,1,56,112.2a7.36,7.36,0,0,1,1.24-.44.27.27,0,0,1,.33.16,3.74,3.74,0,0,1,1.81.38A.3.3,0,0,1,59.51,112.71ZM60.76,109c-.61.87-2.18,1.09-3.1,1.31-.72.15-1.45.26-2.17.46a5.15,5.15,0,0,0-1.76,1.13c-.6.46-2.28,1.68-2.92.52s.92-2.26,1.66-2.92a7.9,7.9,0,0,1,4.24-2,4.73,4.73,0,0,1,3.4-.21C60.78,107.58,61.23,108.29,60.76,109Zm.49-4a6.19,6.19,0,0,1-3.78,1.17,8.3,8.3,0,0,0-5.61,2.54c-.57.55-3,3-3.69,1.21-.51-1.21,2.26-3.33,2.95-3.93a8.08,8.08,0,0,1,5.9-2.1c1.59-.38,3.3-.44,4.23.68A.31.31,0,0,1,61.25,105Z"/><path class="cls-8" d="M65.56,107.48c1.63-2.85-.32-5.81-2.79-7.4S57,98.45,54.28,99a11.07,11.07,0,0,0-7.16,4.28c-1.92,2.64-2.26,6.07-2.86,9.23,0,0,0,0,0,0-.67,1.1-1,2.34-1.63,3.44a6.5,6.5,0,0,0-1,2.35c-.2,1.69,1,2.26,2.39,2.47a.38.38,0,0,0,.2.22c2.63,1,5.6,2.71,8.21.68a9.3,9.3,0,0,0,2.33-3.06c.81-1.47,1.49-2.67,3.31-2,1.53.52,4.13,1.71,5.41,0a2.44,2.44,0,0,0-.09-2.64,2.71,2.71,0,0,0,2-2.32,4.27,4.27,0,0,0,0-.81l0-.06a4,4,0,0,0,.06-3.08A.22.22,0,0,0,65.56,107.48Zm-.4-.54a8.29,8.29,0,0,0-.54-1A6,6,0,0,0,61,103.43c-3.21-.86-7.07.39-9.74,2.19,0,0,0,.14,0,.11a15.58,15.58,0,0,1,8.29-1.89c2.91.23,6,2.82,5.43,6a4.37,4.37,0,0,0-1.53-1.52c-3.07-2-8.18-1.31-11,.75-.08.07,0,.21.09.15A12.49,12.49,0,0,1,61.34,108a5.42,5.42,0,0,1,3,1.81A2.24,2.24,0,0,1,63,113.3h0a2.91,2.91,0,0,0-1.15-.82c-2.53-1.74-6.54-.65-8.86,1-.06,0,0,.21.08.16a19.53,19.53,0,0,1,4.27-1.3,7.64,7.64,0,0,1,4.41.83,3.12,3.12,0,0,1,1.28,2.5c-.15,1.11-2,1-2.78.88-1.46-.26-2.73-1.41-4.25-.67a4.14,4.14,0,0,0-1.47,1.78,12.51,12.51,0,0,1-2.06,3.07c-2.52,2.46-5.37.24-8.08-.34h0c-.45-.22-1-.36-1.42-.56-1.2-.57-.42-2.14,0-2.91a19.75,19.75,0,0,0,1.15-3s.09,0,.12-.06c1.06-2.8,1.29-5.85,2.47-8.62A9.62,9.62,0,0,1,52.8,99.9a13,13,0,0,1,7.72-.09C63.36,100.71,66.61,103.79,65.16,106.94Z"/><path class="cls-45" d="M50.52,94.14c-3.11-1.79-6.19.74-8.06,3.18-2.89,3.8-3.63,8.56-5.77,12.73,0,0,0,0,.05,0,.81-1.7,1.72-3.33,2.48-5s1.65-3.7,2.65-5.46c1.73-3,4.76-6.49,8.6-5.29C50.54,94.3,50.59,94.18,50.52,94.14Z"/><path class="cls-45" d="M73.05,106.74a55.56,55.56,0,0,0-1.78-8.46c-.63-2.11-1.18-4.6-2.86-6.12s-4.6-.73-6.58-.16c0,0,0,.08,0,.08,2.58-.35,5.22-.94,7,1.45a17.79,17.79,0,0,1,2.73,6.55A54.25,54.25,0,0,1,73.09,115s.08,0,.08,0A26.93,26.93,0,0,0,73.05,106.74Z"/><path class="cls-45" d="M68.86,91.17c-.07,0,0,.16,0,.12A8.91,8.91,0,0,1,77,93.45c2.27,1.87,3.19,4.42,3.81,7.2a.1.1,0,0,0,.19,0C80.9,94.87,74.75,88.5,68.86,91.17Z"/></g></g></g></g></svg>